<?xml version="1.0" encoding="UTF-8"?>
<svg width="19px" height="14px" viewBox="0 0 19 14" version="1.1" xmlns="http://www.w3.org/2000/svg" xmlns:xlink="http://www.w3.org/1999/xlink">
    <!-- Generator: Sketch 50.2 (55047) - http://www.bohemiancoding.com/sketch -->
    <title>check</title>
    <desc>Created with Sketch.</desc>
    <defs></defs>
    <g id="Page-1" stroke="none" stroke-width="1" fill="none" fill-rule="evenodd">
        <g id="Quiz-Email-Checked" transform="translate(-698.000000, -424.000000)" fill="#0083BB">
            <g id="Group" transform="translate(690.000000, 334.000000)">
                <path d="M14.3769634,103.706806 L8.2565445,97.6230366 C8.08551465,97.4520068 8,97.2321115 8,96.9633508 C8,96.6945901 8.08551465,96.4746948 8.2565445,96.3036649 L9.61256545,94.9842932 C9.7835953,94.7888309 9.9973822,94.6910995 10.2539267,94.6910995 C10.5104712,94.6910995 10.7364749,94.7888309 10.9319372,94.9842932 L15.0366492,99.0890052 L23.8324607,90.2931937 C24.027923,90.0977314 24.2539267,90 24.5104712,90 C24.7670157,90 24.9808026,90.0977314 25.1518325,90.2931937 L26.5078534,91.6125654 C26.6788833,91.7835953 26.7643979,92.0034906 26.7643979,92.2722513 C26.7643979,92.541012 26.6788833,92.7609073 26.5078534,92.9319372 L15.6963351,103.706806 C15.5253052,103.902269 15.3054099,104 15.0366492,104 C14.7678885,104 14.5479932,103.902269 14.3769634,103.706806 Z" id="check"></path>
            </g>
        </g>
    </g>
</svg>