<?xml version="1.0" encoding="UTF-8"?>
<svg width="24px" height="24px" viewBox="0 0 24 24" version="1.1" xmlns="http://www.w3.org/2000/svg" xmlns:xlink="http://www.w3.org/1999/xlink">
    <!-- Generator: Sketch 49.1 (51147) - http://www.bohemiancoding.com/sketch -->
    <title></title>
    <desc>Created with Sketch.</desc>
    <defs></defs>
    <g id="visuals" stroke="none" stroke-width="1" fill="none" fill-rule="evenodd">
        <g id="Quiz-Results" transform="translate(-264.000000, -801.000000)" fill="#80AE52">
            <g id="Group-11" transform="translate(264.000000, 711.000000)">
                <g id="Group-9" transform="translate(0.000000, 90.000000)">
                    <path d="M20.0625,9.46875 C20.0625,9.17708187 19.9687509,8.93750094 19.78125,8.75 L18.359375,7.34375 C18.1614573,7.14583234 17.9270847,7.046875 17.65625,7.046875 C17.3854153,7.046875 17.1510427,7.14583234 16.953125,7.34375 L10.578125,13.703125 L7.046875,10.171875 C6.84895734,9.97395734 6.61458469,9.875 6.34375,9.875 C6.07291531,9.875 5.83854266,9.97395734 5.640625,10.171875 L4.21875,11.578125 C4.03124906,11.7656259 3.9375,12.0052069 3.9375,12.296875 C3.9375,12.5781264 4.03124906,12.8124991 4.21875,13 L9.875,18.65625 C10.0729177,18.8541677 10.3072903,18.953125 10.578125,18.953125 C10.8593764,18.953125 11.0989573,18.8541677 11.296875,18.65625 L19.78125,10.171875 C19.9687509,9.98437406 20.0625,9.75000141 20.0625,9.46875 Z M22.390625,5.984375 C23.463547,7.8177175 24,9.82290578 24,12 C24,14.1770942 23.463547,16.1848866 22.390625,18.0234375 C21.317703,19.8619884 19.8619884,21.317703 18.0234375,22.390625 C16.1848866,23.463547 14.1770942,24 12,24 C9.82290578,24 7.81511336,23.463547 5.9765625,22.390625 C4.13801164,21.317703 2.68229703,19.8619884 1.609375,18.0234375 C0.536452969,16.1848866 0,14.1770942 0,12 C0,9.82290578 0.536452969,7.81511336 1.609375,5.9765625 C2.68229703,4.13801164 4.13801164,2.68229703 5.9765625,1.609375 C7.81511336,0.536452969 9.82290578,0 12,0 C14.1770942,0 16.1848866,0.536452969 18.0234375,1.609375 C19.8619884,2.68229703 21.317703,4.14061578 22.390625,5.984375 Z" id=""></path>
                </g>
            </g>
        </g>
    </g>
</svg>