<?xml version="1.0" encoding="UTF-8"?>
<svg width="24px" height="24px" viewBox="0 0 24 24" version="1.1" xmlns="http://www.w3.org/2000/svg" xmlns:xlink="http://www.w3.org/1999/xlink">
    <!-- Generator: Sketch 49.1 (51147) - http://www.bohemiancoding.com/sketch -->
    <title> copy</title>
    <desc>Created with Sketch.</desc>
    <defs></defs>
    <g id="visuals" stroke="none" stroke-width="1" fill="none" fill-rule="evenodd">
        <g id="Quiz-Results" transform="translate(-264.000000, -965.000000)" fill="#BB0017">
            <g id="Group-11" transform="translate(264.000000, 711.000000)">
                <g id="Group-10" transform="translate(0.000000, 254.000000)">
                    <path d="M17.953125,15.53125 C17.953125,15.2604153 17.8541677,15.0260427 17.65625,14.828125 L14.828125,12 L17.65625,9.171875 C17.8541677,8.97395734 17.953125,8.73958469 17.953125,8.46875 C17.953125,8.18749859 17.8541677,7.94791766 17.65625,7.75 L16.25,6.34375 C16.0520823,6.14583234 15.8125014,6.046875 15.53125,6.046875 C15.2604153,6.046875 15.0260427,6.14583234 14.828125,6.34375 L12,9.171875 L9.171875,6.34375 C8.97395734,6.14583234 8.73958469,6.046875 8.46875,6.046875 C8.18749859,6.046875 7.94791766,6.14583234 7.75,6.34375 L6.34375,7.75 C6.14583234,7.94791766 6.046875,8.18749859 6.046875,8.46875 C6.046875,8.73958469 6.14583234,8.97395734 6.34375,9.171875 L9.171875,12 L6.34375,14.828125 C6.14583234,15.0260427 6.046875,15.2604153 6.046875,15.53125 C6.046875,15.8125014 6.14583234,16.0520823 6.34375,16.25 L7.75,17.65625 C7.94791766,17.8541677 8.18749859,17.953125 8.46875,17.953125 C8.73958469,17.953125 8.97395734,17.8541677 9.171875,17.65625 L12,14.828125 L14.828125,17.65625 C15.0260427,17.8541677 15.2604153,17.953125 15.53125,17.953125 C15.8125014,17.953125 16.0520823,17.8541677 16.25,17.65625 L17.65625,16.25 C17.8541677,16.0520823 17.953125,15.8125014 17.953125,15.53125 Z M22.390625,5.984375 C23.463547,7.8177175 24,9.82290578 24,12 C24,14.1770942 23.463547,16.1848866 22.390625,18.0234375 C21.317703,19.8619884 19.8619884,21.317703 18.0234375,22.390625 C16.1848866,23.463547 14.1770942,24 12,24 C9.82290578,24 7.81511336,23.463547 5.9765625,22.390625 C4.13801164,21.317703 2.68229703,19.8619884 1.609375,18.0234375 C0.536452969,16.1848866 0,14.1770942 0,12 C0,9.82290578 0.536452969,7.81511336 1.609375,5.9765625 C2.68229703,4.13801164 4.13801164,2.68229703 5.9765625,1.609375 C7.81511336,0.536452969 9.82290578,0 12,0 C14.1770942,0 16.1848866,0.536452969 18.0234375,1.609375 C19.8619884,2.68229703 21.317703,4.14061578 22.390625,5.984375 Z" id="-copy"></path>
                </g>
            </g>
        </g>
    </g>
</svg>