<?xml version="1.0" encoding="UTF-8"?>
<svg width="140px" height="27px" viewBox="0 0 140 27" version="1.1" xmlns="http://www.w3.org/2000/svg" xmlns:xlink="http://www.w3.org/1999/xlink">
    <!-- Generator: Sketch 49 (51002) - http://www.bohemiancoding.com/sketch -->
    <title>amazon-logo</title>
    <desc>Created with Sketch.</desc>
    <defs></defs>
    <g id="visuals" stroke="none" stroke-width="1" fill="none" fill-rule="evenodd">
        <g id="Home" transform="translate(-1048.000000, -3871.000000)" fill-rule="nonzero">
            <g id="Stacked-Group-4" transform="translate(640.000000, 3858.000000)">
                <g id="amazon-logo" transform="translate(408.000000, 13.000000)">
                    <path d="M54.4508411,20.7676098 C53.8371963,21.2417561 53.1790654,21.6678293 52.5196262,22.0471463 L52.5196262,20.0557317 C52.8964486,19.9134878 53.3203738,19.7238293 53.6971963,19.5815854 C54.5450467,19.2022683 55.2986916,20.150561 54.4508411,20.7669512 L54.4508411,20.7676098 Z M58.9256075,17.4485854 C58.9256075,17.0692683 58.8300935,16.7834634 58.7371963,16.6412195 C58.3145794,16.1209756 55.204486,15.6455122 52.5196262,16.4522195 L52.5196262,17.9207561 C54.1682243,17.7791707 56.0994393,17.7317561 56.5704673,18.3474878 C57.2299065,19.1548537 55.8168224,22.6635366 55.2031776,24.1801463 C55.0160748,24.6542927 55.4386916,24.8439512 55.8639252,24.5120488 C57.9835514,22.7109512 58.8778505,19.4386829 58.9256075,17.7317561 L58.9256075,17.4499024 L58.9256075,17.4485854 Z M52.5196262,22.0478049 C47.5738318,25.0342683 41.1678505,26.5996098 35.6097196,26.5996098 C26.6601869,26.5996098 18.6527103,23.2805854 12.5764486,17.7324146 C12.0583178,17.3063415 12.4815888,16.6892927 13.0945794,17.0211951 C19.6418692,20.8617805 27.7435514,23.1850976 36.1278505,23.1850976 C41.4027103,23.1850976 47.1021495,22.1887317 52.5196262,20.0557317 L52.5196262,22.0478049 Z M52.5196262,16.452878 C51.7659813,16.6899512 51.1065421,17.0211951 50.4942056,17.4492439 C50.0231776,17.7811463 50.1173832,18.206561 50.5884112,18.1604634 C51.1065421,18.0643171 51.7659813,18.0169024 52.5196262,17.9233902 L52.5196262,16.452878 Z" id="Shape" fill="#F58220"></path>
                    <path d="M138.057009,3.22419512 L138.057009,2.98712195 C138.717757,2.98712195 139.235888,2.46556098 139.235888,1.8017561 C139.235888,1.13663415 138.67,0.616390244 138.058318,0.616390244 L138.058318,0.379317073 C138.810654,0.379317073 139.471402,0.995707317 139.471402,1.8017561 C139.471402,2.56039024 138.811963,3.22419512 138.058318,3.22419512 L138.057009,3.22419512 Z M138.057009,1.944 L138.104766,1.944 C138.199626,1.944 138.246729,1.99009756 138.246729,2.0862439 C138.246729,2.13365854 138.292523,2.51231707 138.34028,2.60780488 L138.67,2.60780488 C138.624206,2.51231707 138.576449,2.32265854 138.576449,2.18107317 C138.529346,1.99141463 138.529346,1.84917073 138.292523,1.8017561 C138.434486,1.75565854 138.622243,1.70626829 138.622243,1.42309756 C138.622243,0.99702439 138.246729,0.99702439 138.057664,0.99702439 L138.057664,1.23409756 C138.153178,1.23409756 138.293178,1.23409756 138.293178,1.47117073 C138.293178,1.566 138.247383,1.7082439 138.057664,1.7082439 L138.057664,1.94531707 L138.057009,1.944 Z M138.057009,0.379317073 L138.057009,0.616390244 C137.398224,0.616390244 136.833645,1.13663415 136.833645,1.8017561 C136.833645,2.46556098 137.398224,2.98712195 138.057009,2.98712195 L138.057009,3.22419512 C137.256262,3.22419512 136.598131,2.60714634 136.598131,1.8017561 C136.598131,0.995707317 137.256916,0.379317073 138.057009,0.379317073 Z M138.057009,0.995707317 L137.493084,0.995707317 L137.493084,2.60780488 L137.822804,2.60780488 L137.822804,1.944 L138.058318,1.944 L138.058318,1.70692683 L137.822804,1.70692683 L137.822804,1.23278049 L138.058318,1.23278049 L138.058318,0.995707317 L138.057009,0.995707317 Z M110.314112,15.6942439 L110.314112,13.7502439 C111.539439,13.7041463 112.528598,12.9441951 113.14028,11.664 C113.659065,10.4786341 113.753925,9.10360976 113.753925,7.82341463 C113.753925,6.40097561 113.612617,4.93046341 112.953178,3.69834146 C112.38729,2.65521951 111.350374,1.9907561 110.314766,1.944 L110.314766,0.0474146341 L110.551589,0.0474146341 C114.319813,0.0474146341 116.203925,3.888 116.203925,7.87082927 C116.201963,11.9959024 114.130093,15.6468293 110.314112,15.6942439 Z M118.180935,15.4097561 C117.897664,15.3636585 117.66215,15.1726829 117.66215,14.8875366 L117.66215,0.900219512 C117.707944,0.663146341 117.897664,0.474146341 118.180935,0.426073171 L119.170093,0.426073171 C119.45271,0.426073171 119.641121,0.663146341 119.686916,0.900219512 L119.686916,2.93970732 C120.393458,1.32760976 121.714953,0.0467560976 123.362243,0.0467560976 L123.598411,0.0467560976 C125.339907,0.0467560976 126.660093,1.37568293 127.129813,3.27160976 C127.884112,1.42243902 129.297196,0.046097561 131.18,0.046097561 L131.36972,0.046097561 C132.689907,0.046097561 133.960374,0.900878049 134.621121,2.22782927 C135.232804,3.46060976 135.232804,5.12012195 135.232804,6.49514634 L135.232804,14.8862195 C135.232804,15.1720244 134.998598,15.3616829 134.715981,15.408439 L133.537103,15.408439 C133.303551,15.3623415 133.067383,15.2187805 133.02028,14.9342927 L133.02028,6.49580488 C133.02028,5.49943902 133.067383,4.4082439 132.690561,3.50868293 C132.266636,2.56039024 131.465234,1.99009756 130.618037,1.94334146 C129.675981,1.98943902 128.828131,2.70065854 128.262897,3.65026829 C127.509252,4.83563415 127.556355,5.92617073 127.556355,7.34860976 L127.556355,14.9830244 C127.509252,15.1726829 127.320841,15.3623415 127.03757,15.4090976 L125.86,15.4090976 C125.576075,15.363 125.341215,15.1720244 125.341215,14.886878 L125.341215,5.92682927 C125.341215,5.12012195 125.295421,4.12507317 124.917944,3.41385366 C124.494019,2.56039024 123.694579,1.99141463 122.892523,1.94531707 C121.99757,1.99141463 121.149065,2.65653659 120.631589,3.41385366 C119.970841,4.40956098 119.829533,5.59492683 119.829533,6.82836585 L119.829533,14.886878 C119.829533,15.1726829 119.641776,15.3623415 119.358505,15.4090976 L118.180935,15.4090976 L118.180935,15.4097561 Z M110.314112,0.0474146341 L110.314112,1.944 L110.268318,1.944 C109.090748,1.99141463 108.007383,2.79812195 107.44215,4.07765854 C106.971121,5.16819512 106.829159,6.59063415 106.829159,7.82341463 C106.829159,9.19843902 107.018879,10.763122 107.582804,11.9484878 C108.101589,12.9916098 109.13785,13.7502439 110.267664,13.7502439 L110.313458,13.7502439 L110.313458,15.6942439 L109.981776,15.6942439 C106.120654,15.6942439 104.423645,11.7581707 104.423645,7.82341463 C104.425607,3.65092683 106.451682,0.0948292683 110.313458,0.0474146341 L110.314112,0.0474146341 Z M68.3926168,15.6942439 L68.3926168,12.8493659 C70.4206542,12.8019512 70.512243,9.8622439 70.512243,8.10790244 C70.512243,6.92253659 70.4651402,5.50009756 70.0896262,4.36214634 C69.8057009,3.41385366 69.2404673,3.03387805 68.3926168,2.98712195 L68.3926168,0.142243902 C72.3492523,0.189658537 74.5159813,3.65092683 74.5159813,8.0604878 C74.5159813,12.3278049 72.1150467,15.6468293 68.3926168,15.6942439 Z M97.9738318,13.7034878 C99.6701869,13.6554146 100.61028,12.3271463 100.987757,10.4786341 C101.03486,10.2889756 101.223271,10.0993171 101.458785,10.0993171 L102.590561,10.0993171 C102.873178,10.0993171 103.107383,10.3363902 103.107383,10.5734634 C102.590561,13.608 100.752243,15.6942439 98.1157944,15.6942439 L97.878972,15.6942439 C94.0636449,15.6942439 92.4150467,11.8536585 92.4150467,7.91692683 C92.4150467,4.0302439 94.1107477,0.0474146341 97.9260748,0.0474146341 L98.1171028,0.0474146341 C100.801963,0.0474146341 102.683458,2.13365854 103.108692,5.21560976 C103.108692,5.40658537 102.874486,5.64234146 102.638972,5.64234146 L101.412991,5.64234146 C101.177477,5.5962439 101.036168,5.40526829 100.989065,5.16819512 C100.706449,3.41385366 99.7179439,2.03882927 98.0693458,1.99141463 C95.4786916,2.08690244 94.7243925,5.31043902 94.7243925,7.776 C94.7243925,10.1941463 95.3373832,13.608 97.974486,13.7028293 L97.9738318,13.7034878 Z M92.0859813,14.2711463 C92.0859813,13.5599268 91.4736449,12.9909512 90.7671028,12.9909512 C90.0134579,12.9909512 89.4011215,13.5599268 89.4011215,14.2711463 C89.4011215,14.9823659 90.0134579,15.5513415 90.7671028,15.5513415 C91.4736449,15.5513415 92.0859813,14.9823659 92.0859813,14.2711463 Z M79.7450467,15.4097561 L77.0595327,15.4097561 C76.7782243,15.3623415 76.5427103,15.1726829 76.5427103,14.8875366 L76.5427103,0.900219512 C76.5898131,0.615731707 76.7782243,0.426073171 77.0595327,0.426073171 L79.6043925,0.426073171 C79.8399065,0.426073171 80.0283178,0.615731707 80.076729,0.852804878 L80.076729,2.98646341 L80.1238318,2.98646341 C80.8761682,1.04246341 81.9601869,0.141585366 83.8449533,0.141585366 C85.0225234,0.141585366 86.2471963,0.568317073 87.0008411,1.80109756 C87.7073832,2.94036585 87.7073832,4.78887805 87.7073832,6.16390244 L87.7073832,14.9356098 C87.6602804,15.1726829 87.4718692,15.4097561 87.1885981,15.4097561 L84.4566355,15.4097561 C84.2211215,15.3636585 83.9842991,15.174 83.9842991,14.9356098 L83.9842991,7.39668293 C83.9842991,5.832 84.1740187,3.6035122 82.2885981,3.6035122 C81.6291589,3.6035122 81.0174766,4.0302439 80.687757,4.74278049 C80.3115888,5.59558537 80.264486,6.44839024 80.264486,7.39668293 L80.264486,14.8875366 C80.2631776,15.1726829 80.0276636,15.4097561 79.7450467,15.4097561 Z M50.7297196,2.89229268 L50.7297196,0.900878049 C50.7297196,0.615731707 50.9652336,0.379317073 51.2478505,0.379317073 L60.1502804,0.379317073 C60.4328972,0.379317073 60.6684112,0.616390244 60.6684112,0.900878049 L60.6684112,2.60780488 C60.6684112,2.89229268 60.4328972,3.27160976 60.008972,3.88734146 L55.392243,10.5253902 C57.0885981,10.4792927 58.9249533,10.7624634 60.48,11.6159268 C60.8097196,11.853 60.903271,12.1361707 60.951028,12.4219756 L60.951028,14.5082195 C60.951028,14.7927073 60.6213084,15.1252683 60.2915888,14.9823659 C57.511215,13.5125122 53.8849533,13.3709268 50.871028,14.9823659 C50.5406542,15.1720244 50.2102804,14.7927073 50.2102804,14.5082195 L50.2102804,12.5168049 C50.2102804,12.2323171 50.2102804,11.6633415 50.5406542,11.1417805 L55.9103738,3.41319512 L51.2471963,3.41319512 C50.9658879,3.41319512 50.7303738,3.22353659 50.7303738,2.89163415 L50.7297196,2.89229268 Z M68.393271,0.142243902 L68.393271,2.98712195 C66.3678505,2.98712195 66.2749533,5.73717073 66.2749533,7.44409756 C66.2749533,9.19843902 66.2278505,12.8493659 68.3474766,12.8493659 L68.393271,12.8493659 L68.393271,15.6942439 L68.3474766,15.6942439 C64.3895327,15.6942439 62.2241121,12.2329756 62.2241121,7.91692683 C62.2241121,3.55543902 64.4379439,0.141585366 68.3474766,0.141585366 L68.393271,0.141585366 L68.393271,0.142243902 Z M41.5917757,15.3623415 L41.5917757,12.8493659 C42.2047664,12.707122 42.7235514,12.2803902 43.0990654,11.6165854 C43.6171963,10.6682927 43.6171963,9.81482927 43.6171963,8.72429268 L43.6171963,8.15531707 C42.9106542,8.15531707 42.2041121,8.20273171 41.5917757,8.34497561 L41.5917757,6.16390244 C42.2983178,6.06907317 43.0048598,6.02165854 43.6171963,5.9742439 L43.6171963,5.59492683 C43.6171963,4.92980488 43.6642991,4.1724878 43.2874766,3.6035122 C42.957757,3.12936585 42.2983178,2.89229268 41.7330841,2.89229268 L41.5917757,2.89229268 L41.5917757,0 L42.1570093,0 C43.4758879,0 45.1709346,0.379317073 46.2065421,1.37502439 C47.526729,2.60780488 47.4318692,4.26731707 47.4318692,6.06907317 L47.4318692,10.3363902 C47.4318692,11.6159268 47.95,12.185561 48.4216822,12.8487073 C48.6100935,13.0857805 48.6571963,13.3709268 48.4216822,13.5599268 C47.9035514,14.0353902 46.9137383,14.8881951 46.3491589,15.3623415 C46.1607477,15.5052439 45.9252336,15.5052439 45.6897196,15.4104146 C44.7954206,14.6530976 44.6534579,14.3205366 44.1353271,13.6093171 C43.2403738,14.5576098 42.486729,15.0778537 41.5917757,15.363 L41.5917757,15.3623415 Z M41.5917757,0 L41.5917757,2.89229268 C40.6026168,2.98778049 39.8018692,3.50934146 39.5663551,4.55180488 C39.5192523,4.78887805 39.3308411,5.02595122 39.0953271,5.07402439 L36.4569159,4.74146341 C36.2214019,4.69404878 35.9858879,4.55180488 36.0800935,4.1724878 C36.6459813,1.18536585 39.1424299,0.142243902 41.5917757,0 Z M41.5917757,6.16390244 L41.5917757,8.34497561 C40.4613084,8.67687805 39.5663551,9.38809756 39.5663551,10.9053659 C39.5663551,12.0907317 40.1786916,12.8967805 41.2149533,12.8967805 C41.3562617,12.8967805 41.4504673,12.8493659 41.5917757,12.8493659 L41.5917757,15.3623415 C41.0265421,15.5045854 40.4142056,15.5980976 39.6605607,15.5980976 C37.3996262,15.5980976 35.611028,14.1756585 35.611028,11.3788537 C35.611028,9.14970732 36.7885981,7.63178049 38.4829907,6.92056098 C39.3779439,6.49580488 40.5084112,6.3054878 41.5917757,6.1632439 L41.5917757,6.16390244 Z M5.98205607,15.3623415 L5.98205607,12.8493659 C6.59439252,12.707122 7.15962617,12.2803902 7.48934579,11.6165854 C8.05457944,10.6682927 8.00747664,9.81482927 8.00747664,8.72429268 L8.00747664,8.15531707 C7.30093458,8.15531707 6.59439252,8.20273171 5.98205607,8.34497561 L5.98205607,6.16390244 C6.68859813,6.06907317 7.39514019,6.02165854 8.00747664,5.9742439 L8.00747664,5.59492683 C8.00747664,4.92980488 8.05457944,4.1724878 7.67775701,3.6035122 C7.34803738,3.12936585 6.73570093,2.89229268 6.17046729,2.89229268 L5.98205607,2.89229268 L5.98205607,0 L6.54663551,0 C7.86616822,0 9.56121495,0.379317073 10.6452336,1.37502439 C11.9641121,2.60780488 11.8228037,4.26731707 11.8228037,6.06907317 L11.8228037,10.3363902 C11.8228037,11.6159268 12.3409346,12.185561 12.8590654,12.8487073 C13.0003738,13.0857805 13.0474766,13.3709268 12.8119626,13.5599268 C12.2938318,14.0353902 11.3046729,14.8881951 10.7394393,15.3623415 C10.551028,15.5045854 10.3161682,15.5045854 10.08,15.408439 C9.18504673,14.651122 9.04373832,14.3192195 8.52560748,13.608 C7.63065421,14.5562927 6.87700935,15.0785122 5.98205607,15.363 L5.98205607,15.3623415 Z M18.1816822,15.4097561 L15.4497196,15.4097561 C15.1671028,15.3636585 14.9786916,15.1726829 14.9786916,14.9356098 L14.9786916,0.948292683 C14.9786916,0.663804878 15.2142056,0.426731707 15.4968224,0.426731707 L17.9926168,0.426731707 C18.2758879,0.426731707 18.5107477,0.663804878 18.5107477,0.900878049 L18.5107477,2.75136585 L18.5578505,2.75136585 C19.2172897,0.94895122 20.4419626,0.143560976 22.1376636,0.143560976 C23.8333645,0.143560976 24.9160748,0.94895122 25.6703738,2.75136585 C26.3291589,0.94895122 27.79,0.143560976 29.3908411,0.143560976 C30.5684112,0.143560976 31.7930841,0.617707317 32.5460748,1.66017073 C33.3939252,2.84553659 33.2526168,4.55378049 33.2526168,6.07039024 L33.2526168,14.8895122 C33.2526168,15.1746585 33.0171028,15.4110732 32.6873832,15.4110732 L30.0025234,15.4110732 C29.7199065,15.3649756 29.5314953,15.174 29.5314953,14.8888537 L29.5314953,7.49085366 C29.5314953,6.92187805 29.5772897,5.40460976 29.4366355,4.88304878 C29.2482243,3.9347561 28.6358879,3.65026829 27.8351402,3.65026829 C27.1743925,3.65026829 26.5156075,4.07634146 26.2336449,4.78821951 C25.9503738,5.49943902 25.9503738,6.68480488 25.9503738,7.49085366 L25.9503738,14.8862195 C25.9503738,15.1720244 25.7148598,15.408439 25.4315888,15.408439 L22.7009346,15.408439 C22.466729,15.3610244 22.2299065,15.1713659 22.2299065,14.885561 L22.2299065,7.49019512 C22.2299065,5.9255122 22.4654206,3.60219512 20.5813084,3.60219512 C18.6036449,3.60219512 18.6971963,5.87809756 18.6971963,7.49019512 L18.6971963,14.885561 C18.6998131,15.1713659 18.4642991,15.408439 18.1816822,15.408439 L18.1816822,15.4097561 Z M5.98205607,0 L5.98205607,2.89229268 C5.04,2.98778049 4.19214953,3.50934146 3.95598131,4.55180488 C3.91018692,4.78887805 3.76757009,5.02595122 3.48495327,5.07402439 L0.848504673,4.74146341 C0.658785047,4.69404878 0.377476636,4.55180488 0.471028037,4.1724878 C1.03626168,1.18536585 3.57981308,0.142243902 5.98205607,0 Z M5.98205607,6.16390244 L5.98205607,8.34497561 C4.85028037,8.67687805 3.95598131,9.38809756 3.95598131,10.9053659 C3.95598131,12.0907317 4.56897196,12.8967805 5.60457944,12.8967805 C5.74654206,12.8967805 5.88785047,12.8493659 5.98205607,12.8493659 L5.98205607,15.3623415 C5.41682243,15.5045854 4.80448598,15.5980976 4.05084112,15.5980976 C1.78990654,15.5994146 0,14.1769756 0,11.3795122 C0,9.15102439 1.17757009,7.6337561 2.92037383,6.92253659 C3.8153271,6.49646341 4.89869159,6.30614634 5.98205607,6.16390244 Z" id="Shape" fill="#000000"></path>
                </g>
            </g>
        </g>
    </g>
</svg>