<?xml version="1.0" encoding="UTF-8"?>
<svg width="54px" height="33px" viewBox="0 0 54 33" version="1.1" xmlns="http://www.w3.org/2000/svg" xmlns:xlink="http://www.w3.org/1999/xlink">
    <!-- Generator: Sketch 49 (51002) - http://www.bohemiancoding.com/sketch -->
    <title>Group 14</title>
    <desc>Created with Sketch.</desc>
    <defs></defs>
    <g id="visuals" stroke="none" stroke-width="1" fill="none" fill-rule="evenodd" opacity="0.600000024">
        <g id="Home" transform="translate(-1192.000000, -645.000000)" fill="#37B9F1">
            <g id="Group-14" transform="translate(1192.000000, 645.000000)">
                <path d="M1.40613847,14.086438 L26.5938615,25.2809816 C26.8524269,25.3958995 27.1475731,25.3958995 27.4061385,25.2809816 L52.5938615,14.086438 C53.0985457,13.8621339 53.6895075,14.0894269 53.9138115,14.5941111 C53.9706378,14.7219701 54,14.8603312 54,15.0002496 L54,19.8116145 C54,20.2068032 53.7672665,20.5649247 53.4061385,20.7254261 L27.4061385,32.2809816 C27.1475731,32.3958995 26.8524269,32.3958995 26.5938615,32.2809816 L0.593861534,20.7254261 C0.232733521,20.5649247 3.63532385e-16,20.2068032 6.66133815e-16,19.8116145 L4.4408921e-16,15.0002496 C3.76453835e-16,14.4479648 0.44771525,14.0002496 1,14.0002496 C1.13991834,14.0002496 1.27827947,14.0296118 1.40613847,14.086438 Z" id="Rectangle-10"></path>
                <path d="M1.40613847,0.0864380258 L26.5938615,11.2809816 C26.8524269,11.3958995 27.1475731,11.3958995 27.4061385,11.2809816 L52.5938615,0.0864380258 C53.0985457,-0.137866055 53.6895075,0.0894269258 53.9138115,0.594111108 C53.9706378,0.721970106 54,0.860331231 54,1.00024957 L54,5.81161451 C54,6.20680322 53.7672665,6.56492472 53.4061385,6.72542606 L27.4061385,18.2809816 C27.1475731,18.3958995 26.8524269,18.3958995 26.5938615,18.2809816 L0.593861534,6.72542606 C0.232733521,6.56492472 3.63532385e-16,6.20680322 6.66133815e-16,5.81161451 L4.4408921e-16,1.00024957 C3.76453835e-16,0.447964825 0.44771525,0.000249574398 1,0.000249574398 C1.13991834,0.000249574398 1.27827947,0.0296118045 1.40613847,0.0864380258 Z" id="Rectangle-10-Copy"></path>
            </g>
        </g>
    </g>
</svg>