<?xml version="1.0" encoding="UTF-8"?>
<svg width="12px" height="19px" viewBox="0 0 12 19" version="1.1" xmlns="http://www.w3.org/2000/svg" xmlns:xlink="http://www.w3.org/1999/xlink">
    <!-- Generator: Sketch 49 (51002) - http://www.bohemiancoding.com/sketch -->
    <title> copy</title>
    <desc>Created with Sketch.</desc>
    <defs></defs>
    <g id="visuals" stroke="none" stroke-width="1" fill="none" fill-rule="evenodd">
        <g id="Home" transform="translate(-524.000000, -3036.000000)" fill="#FFFFFF">
            <g id="Group-27" transform="translate(456.000000, 2779.000000)">
                <g id="Group-17" transform="translate(0.000000, 244.000000)">
                    <g id="Group-9" transform="translate(52.000000, 0.000000)">
                        <path d="M27.7799228,16.1853282 L21.6293436,22.3359073 L27.7799228,28.4864865 C27.9266417,28.6332054 28,28.8069488 28,29.007722 C28,29.2084952 27.9266417,29.3822386 27.7799228,29.5289575 L25.8571429,31.4517375 C25.710424,31.5984563 25.5366805,31.6718147 25.3359073,31.6718147 C25.1351341,31.6718147 24.9613907,31.5984563 24.8146718,31.4517375 L16.2200772,22.8571429 C16.0733583,22.710424 16,22.5366805 16,22.3359073 C16,22.1351341 16.0733583,21.9613907 16.2200772,21.8146718 L24.8146718,13.2200772 C24.9613907,13.0733583 25.1351341,13 25.3359073,13 C25.5366805,13 25.710424,13.0733583 25.8571429,13.2200772 L27.7799228,15.1428571 C27.9266417,15.289576 28,15.4633195 28,15.6640927 C28,15.8648659 27.9266417,16.0386093 27.7799228,16.1853282 Z" id="-copy" transform="translate(22.000000, 22.335907) rotate(-180.000000) translate(-22.000000, -22.335907) "></path>
                    </g>
                </g>
            </g>
        </g>
    </g>
</svg>