<?xml version="1.0" encoding="utf-8"?>
<!-- Generator: Adobe Illustrator 22.1.0, SVG Export Plug-In . SVG Version: 6.00 Build 0)  -->
<svg version="1.1" id="Layer_1" xmlns="http://www.w3.org/2000/svg" xmlns:xlink="http://www.w3.org/1999/xlink" x="0px" y="0px"
	 viewBox="0 0 242 188.2" style="enable-background:new 0 0 242 188.2;" xml:space="preserve">
<path d="M74.9,71.7l-0.1,0.2l-0.2,0.4l-0.2,0.4l-0.2,0.5L74,73.7l-0.3,0.5l-0.3,0.6l-0.3,0.6L72.8,76l-0.3,0.6l-0.6,1L71.1,79
	l-0.9,1.5L69.3,82l-1,1.6l-1,1.6l-1,1.7l-1.6,2.6l-2.2,3.5l-2.2,3.5l-1.6,2.6l-1,1.7l-1,1.7l-0.9,1.6l-0.9,1.6l-0.8,1.6l-0.8,1.5
	l-0.5,1.1l-0.3,0.7l-0.3,0.7l-0.3,0.7l-0.3,0.6l-0.2,0.6l-0.2,0.6l-0.2,0.6l-0.2,0.6l-0.1,0.6l-0.1,0.5l-0.1,0.5l0,0.5l0,0.5l0,0.3
	l0,0c0,0.4,0.2,0.8,0.4,1.1l0,0l0,0l0.3,0.3l0.2,0.1l0.2,0.1l0.2,0.2l0.3,0.2l0.3,0.2l0.4,0.2l0.4,0.3l0.4,0.3l0.5,0.3l0.5,0.4
	L55,122l0.6,0.4l0.6,0.4l0.6,0.4l0.7,0.5l0.7,0.5l0.7,0.5l0.8,0.5l1.2,0.8l1.6,1.1l1.7,1.2l1.7,1.2l2.7,1.8l3.6,2.5l2.7,1.8l1.8,1.2
	l1.7,1.2l1.7,1.1l1.6,1.1l1.1,0.8l0.7,0.5l0.7,0.5l0.7,0.4l0.6,0.4l0.6,0.4l0.6,0.4l0.5,0.4l0.5,0.3l0.5,0.3l0.4,0.3l0.4,0.2
	l0.4,0.2l0.3,0.2l0.3,0.2l0.2,0.1l0.2,0.1l0.2,0.1l0.2,0.1l0,0c0.1,0,0.2,0,0.3,0l0,0l0.1,0l0.4-0.1l0.4-0.3l0.3-0.3l0.3-0.5
	l0.4-0.7l0.3-0.7l0.3-0.6l0.2-0.4L94,142l0.1-0.2l0.1-0.1l0,0l0,0l0.2-0.4l0.3-0.7l0.3-0.6l0.3-0.6l0.3-0.5l0.3-0.5L96,138l0.2-0.5
	l0.2-0.4l0.2-0.5l0.1-0.5l0.1-0.5l0.1-0.6l0-0.6l-0.1-0.7l-0.2-0.6l-0.2-0.4l0,0c0,0,0-0.1-0.1-0.1l0,0l-0.1-0.2l-0.4-0.6l-0.5-0.6
	l-0.5-0.5l-0.6-0.5l-0.6-0.5l-0.6-0.4l-0.7-0.4l-1.1-0.6l-1.5-0.9l-1.6-0.9l-1.6-0.9l-0.8-0.5l0,0l-1-0.6l-2-1.2l-3-1.8l-2-1.2l0,0
	l-0.4-0.2l-0.7-0.5l-0.8-0.5l-0.8-0.5l-1.2-0.8l-1.7-1.1l-1.7-1.2l-1.7-1.2l-1.3-0.8l-0.8-0.5l-0.8-0.5l-0.8-0.5l-0.4-0.2l0,0
	c-0.8-0.5-1.6-0.1-1.9,1c-0.3,1,0.1,2.2,0.9,2.7l0.3,0.2l0.7,0.5l0.8,0.5l0.8,0.5l1.3,0.8l1.7,1.1l1.8,1.2l1.7,1.1l1.3,0.8l0.8,0.5
	l0.8,0.5l0.8,0.5l0.4,0.2l0,0c0,0,0,0,0,0l0,0l2,1.2l2.9,1.7l1.9,1.2l1,0.6l0,0c0,0,0,0,0,0l0,0l0.8,0.5l1.6,0.9l1.6,0.9l1.4,0.8
	l1,0.6l0.6,0.4l0.5,0.4l0.5,0.3l0.4,0.3l0.3,0.3l0.2,0.2l0.2,0.2l0.1,0.2l-0.1-0.1l0-0.1l0,0l0-0.1l0,0l0,0.1l0,0.1l-0.1,0.2L94,135
	l-0.1,0.3l-0.2,0.4l-0.2,0.4l-0.2,0.5l-0.3,0.5l-0.3,0.6l-0.3,0.7l-0.3,0.7l-0.2,0.4l0,0c0,0,0,0,0,0l0,0l0,0.1l-0.1,0.2l-0.1,0.2
	l-0.1,0.2l-0.2,0.4l-0.2,0.5l-0.2,0.5l-0.2,0.4l-0.1,0.2l0,0l0.1,0l0.2,0l-0.1,0l0.3,0l0.2,0v0l-0.1,0l-0.2-0.1l-0.2-0.1l-0.3-0.2
	l-0.3-0.2l-0.4-0.2l-0.4-0.3l-0.5-0.3l-0.5-0.3l-0.5-0.3l-0.6-0.4l-0.6-0.4l-0.6-0.4l-0.7-0.4l-0.7-0.5l-0.7-0.5l-1.1-0.7l-1.6-1
	l-1.7-1.1l-1.7-1.1l-1.8-1.2l-2.7-1.8l-3.6-2.4l-2.7-1.8l-1.7-1.2l-1.7-1.1l-1.6-1.1l-1.2-0.8l-0.8-0.5l-0.7-0.5l-0.7-0.5l-0.7-0.5
	l-0.6-0.4l-0.6-0.4l-0.6-0.4l-0.5-0.4l-0.5-0.3l-0.5-0.3l-0.4-0.3l-0.4-0.3l-0.3-0.2l-0.3-0.2l-0.3-0.2l-0.2-0.1l-0.1-0.1l-0.1,0
	l0.1,0.2l0,0l0.4,1.1l0,0l0-0.2l0-0.3l0-0.3l0.1-0.4l0.1-0.4l0.1-0.5l0.2-0.5l0.2-0.5l0.2-0.6l0.2-0.6l0.3-0.6l0.3-0.6l0.3-0.7
	l0.5-1l0.7-1.5l0.8-1.5l0.9-1.6l0.9-1.6l1-1.7l1-1.7l1.6-2.6l2.1-3.5l2.2-3.5l1.6-2.6l1-1.7l1-1.7l1-1.6l0.9-1.6l0.9-1.5l0.8-1.4
	l0.6-1l0.4-0.7l0.3-0.6l0.3-0.6l0.3-0.6l0.3-0.6l0.3-0.5l0.2-0.5l0.2-0.5l0.2-0.5l0.1-0.2c0.2-0.6,0-1.4-0.5-1.8
	C75.6,70.9,75.1,71.1,74.9,71.7L74.9,71.7"/>
<path d="M76.5,74.4l0.3,0.1l0.6,0.3L78,75l0.7,0.3l1.1,0.5l1.1,0.5l0.7,0.4l0.6,0.4l0.5,0.4l0.4,0.3l0.3,0.3l0.2,0.2l0,0l-0.1-0.3
	l-0.1-0.3l0-0.2l0-0.1l0-0.1l0-0.1l-0.2,0.3l-0.4,0.7L82.5,79L82,79.8l-0.5,0.9L81,81.6l-0.6,1l-0.6,1l-0.6,1.1l-0.7,1.1L77.8,87
	l-0.7,1.2l-1.1,1.8l-1.5,2.5l-1.5,2.6l-1.5,2.6l-1.5,2.6l-1.1,1.9l-0.7,1.2l-0.7,1.2l-0.7,1.2l-0.7,1.1l-0.7,1.1l-0.6,1l-0.6,1
	l-0.6,0.9l-0.5,0.8l-0.3,0.4l0,0c-0.3,0.5-0.3,1.3,0.1,1.8c0.4,0.5,1,0.5,1.3,0l0.3-0.4l0.6-0.8l0.6-0.9l0.6-1l0.7-1l0.7-1.1
	l0.7-1.1l0.7-1.1l0.7-1.2l0.7-1.2l1.1-1.8l1.5-2.5l1.6-2.5l1.5-2.5l1.5-2.5l1.1-1.8l0.7-1.2l0.7-1.1l0.7-1.1l0.6-1.1l0.6-1l0.6-1
	l0.6-0.9l0.5-0.9l0.5-0.8l0.4-0.7l0.4-0.6l0.2-0.3l0,0c0,0,0,0,0-0.1l0,0l0.2-0.3l0.2-0.6l0.1-0.6l0-0.8l-0.3-0.9l-0.4-0.8l-0.5-0.6
	l-0.6-0.5l-0.6-0.5L83,73.7l-0.7-0.4l-0.7-0.4l-1.1-0.6l-1.1-0.5l-0.7-0.3L78,71.1l-0.6-0.3l-0.3-0.1c-0.8-0.4-1.5,0.1-1.7,1.1
	C75.3,72.9,75.8,74,76.5,74.4L76.5,74.4"/>
<path d="M116.5,72l0,1.1l0,2.2l-0.1,3.4l-0.2,4.4l-0.3,4.4l-0.4,4.4l-0.4,4.4l-0.5,4.4l-0.5,4.4l-0.8,6.7l-0.8,6.8l-0.5,4.6
	l-0.5,4.6l-0.4,4.7l-0.5,4.7l-0.4,4.7l-0.2,2.4l0,0c0,0.4,0.3,1.1,0.8,1.4c0.5,0.4,0.9,0.3,0.9-0.1l0.2-2.4l0.4-4.7l0.5-4.6l0.6-4.6
	l0.6-4.5l0.6-4.5l0.9-6.7l0.8-6.7l0.5-4.5l0.4-4.5l0.4-4.5l0.3-4.5l0.2-4.5l0.1-4.5l0-3.4l0-2.3l0-1.1c0-0.4-0.4-1-0.8-1.3
	C116.8,71.5,116.5,71.6,116.5,72L116.5,72"/>
<path d="M124,70.7l-0.7,9.4L122,98.9l-1.1,14.1l-0.8,9.4l-0.8,9.4l-0.8,9.4l-0.4,4.7l0,0c0,0.3,0.3,0.9,0.7,1.2
	c0.4,0.3,0.7,0.3,0.8-0.1l0,0l0.5-4.6l1-9.3l0.9-9.3l0.9-9.3l1.3-14l1.7-18.6l0.8-9.3c0,0,0,0,0,0c0-0.6-0.5-1.5-1.2-2.1
	C124.6,70,124,70.1,124,70.7L124,70.7"/>
<path d="M118.6,71.6l0.4,0l0.8,0.1l0.8,0.2l0.8,0.2l1.2,0.4l1.3,0.4l0.9,0.2l0.5,0.1l0,0c0.7,0.1,1.1-0.6,1-1.5
	c-0.1-0.9-0.8-1.7-1.5-1.8l-0.4,0l-0.8-0.1l-1.2-0.2l-1.3-0.2l-0.9-0.1l-0.9,0l-0.9,0l-0.4,0l0,0c-0.4,0-0.7,0.5-0.5,1
	C117.8,71.1,118.2,71.6,118.6,71.6L118.6,71.6"/>
<path d="M153.4,69.3l0.2,0.2L154,70l0.4,0.6l0.5,0.6l0.7,0.8l1,1.1l1.1,1.1l1.2,1.2l1.2,1.2l1.3,1.2l1.3,1.2l1.4,1.2l1.4,1.2
	l1.4,1.3l2.2,1.9l2.9,2.6l2.9,2.6l2.1,1.9l1.3,1.3l1.3,1.3l1.2,1.2l1.1,1.2l1.1,1.2l1,1.2l0.9,1.1l0.7,1.1l0.6,1l0.4,0.7l0.2,0.4
	l0.2,0.4l0.2,0.4l0.1,0.4l0.1,0.4l0.1,0.4l0.1,0.4l0,0.2l0-0.1l0,0.1l0,0l0,0.1l-0.1,0.2l-0.1,0.3l-0.2,0.4l-0.2,0.4l-0.3,0.4
	l-0.3,0.5l-0.3,0.5l-0.4,0.5l-0.4,0.6l-0.4,0.6l-0.5,0.6l-0.5,0.7l-0.5,0.7l-0.5,0.7l-0.6,0.7l-0.6,0.7l-0.6,0.8l-0.9,1.2l-1.3,1.6
	l-1.4,1.7l-1.4,1.7l-1.5,1.7l-1.5,1.8l-2.3,2.7l-2.3,2.6l-1.5,1.7l-1.5,1.7l-1.5,1.7l-1.4,1.6l-1.4,1.5l-1,1.1l-0.6,0.7L159,141
	l-0.6,0.7l-0.6,0.6l-0.6,0.6l-0.5,0.6l-0.5,0.6l-0.5,0.5l-0.4,0.5l-0.4,0.5l-0.4,0.4l-0.4,0.4l-0.3,0.4l-0.3,0.3l-0.3,0.3l-0.1,0.1
	l0,0c-0.3,0.4-0.1,1.4,0.6,2.2c0.7,0.8,1.5,1.1,1.9,0.7l0.1-0.1l0.3-0.3l0.3-0.3l0.3-0.4l0.4-0.4l0.4-0.4l0.4-0.5l0.5-0.5l0.5-0.5
	l0.5-0.6l0.5-0.6l0.6-0.6l0.6-0.6l0.6-0.7l0.6-0.7l0.6-0.7l1-1.1l1.4-1.5l1.4-1.6l1.5-1.6l1.5-1.7l1.5-1.7l2.3-2.6l2.3-2.6l1.5-1.7
	l1.5-1.7l1.4-1.7l1.4-1.7l1.3-1.6l1-1.2l0.6-0.8l0.6-0.7l0.6-0.7l0.5-0.7l0.5-0.7l0.5-0.7l0.5-0.6l0.4-0.6l0.4-0.6l0.4-0.6l0.3-0.5
	l0.3-0.5l0.3-0.5l0.2-0.4l0.2-0.4l0.2-0.4l0.1-0.4l0.1-0.4l0-0.4l0-0.1l0,0c0,0,0-0.1,0-0.1l0,0l0-0.4l-0.1-0.6l-0.2-0.7l-0.2-0.7
	l-0.2-0.7l-0.3-0.7l-0.3-0.7l-0.4-0.7l-0.6-1.1l-0.9-1.4l-1-1.4l-1.1-1.4l-1.1-1.4l-1.2-1.4l-1.3-1.4l-1.3-1.4l-1.4-1.4l-1.4-1.4
	l-2.2-2l-2.9-2.7l-2.9-2.6l-2.2-1.9l-1.4-1.3l-1.4-1.2l-1.3-1.2l-1.3-1.2l-1.2-1.1l-1.1-1.1l-1-1l-0.9-1l-0.8-0.9l-0.6-0.6l-0.3-0.4
	l-0.3-0.4l-0.3-0.4l-0.2-0.2l0,0c-0.8-1.1-2-1.8-2.6-1.4C152.4,66.9,152.6,68.1,153.4,69.3L153.4,69.3"/>
<path d="M154.1,147.1l-0.2-0.4l-0.5-0.7l-0.4-0.6l-0.4-0.6l-0.4-0.5l-0.3-0.5l-0.3-0.4l-0.2-0.4l-0.2-0.3l-0.1-0.3l-0.1-0.2
	l-0.1-0.1l0-0.1l0-0.1l0-0.1l0-0.1l0-0.2l0.1-0.3l0.2-0.3l0.2-0.2l0.2-0.3l0.2-0.3l0.3-0.3l0.3-0.3l0.3-0.4l0.4-0.4l0.4-0.4l0.4-0.5
	l0.5-0.5l0.5-0.5l0.3-0.3l0,0l0,0l0,0l1.4-1.5l2.7-3l4-4.4l4-4.4l2.7-3l2.7-3l2.8-3.1l1.4-1.6l0,0c0,0,0,0,0,0l0,0l0.1-0.1l0.2-0.2
	l0.2-0.3l0.2-0.3l0.3-0.5l0.5-0.8l0.4-0.8l0.3-0.6l0.2-0.4l0.1-0.4l0.1-0.4l0-0.5l-0.1-0.7l-0.3-0.8l0,0c-0.1-0.1-0.1-0.3-0.2-0.4
	l0,0l-0.3-0.4l-0.8-1.1l-0.9-1.1l-0.9-1.1l-1-1.1l-1-1.1l-1.1-1.1l-1.1-1.1l-1.2-1.1l-1.2-1.1l-1.8-1.6l-2.5-2.1l-2.5-2.1l-2.5-2
	l-1.8-1.5l-1.2-1l-1.1-0.9l-1.1-0.9l-1-0.9l-1-0.9l-0.9-0.8L151,80l-0.8-0.7l-0.7-0.7L149,78l-0.4-0.5l-0.3-0.4l-0.1-0.2l0-0.1l0,0
	l0.2,0.4l0,0l0.1,0.4l0,0.1l0-0.1l0.1-0.2l0.1-0.2l0.1-0.3l0.2-0.3l0.3-0.5l0.4-0.7l0.5-0.8l0.5-0.8l0.8-1.2l0.8-1.2l0.5-0.8
	l0.5-0.7l0.3-0.5l0.2-0.3l0.2-0.3l0.1-0.2l0.1-0.2l0.1-0.2l0-0.1l0,0c0.3-0.4,0-1.3-0.7-2c-0.7-0.7-1.4-0.9-1.7-0.5l0,0l0,0
	l-0.1,0.1l-0.1,0.2l-0.2,0.2l-0.2,0.2l-0.2,0.3l-0.3,0.4l-0.5,0.6l-0.5,0.7l-0.9,1.1l-0.9,1.2l-0.6,0.8l-0.5,0.8l-0.5,0.7l-0.3,0.5
	l-0.2,0.3l-0.2,0.3l-0.1,0.3l-0.1,0.3l-0.1,0.3l-0.1,0.4l0.1,0.6l0,0l0,0c0,0.1,0.1,0.3,0.2,0.4l0,0l0.1,0.3l0.3,0.5l0.4,0.7
	l0.6,0.9l0.7,0.9l0.8,0.9l0.8,0.9l0.9,0.9l0.9,0.9l1,0.9l1,0.9l1.1,0.9l1.1,1l1.2,1l1.2,1l1.8,1.5l2.5,2l2.5,2l2.4,2.1l1.7,1.5
	l1.1,1l1,1l1,1l0.9,0.9l0.8,0.9l0.8,0.9l0.7,0.8l0.6,0.7l0.5,0.7l0.3,0.4l-0.2-0.4l-0.2-0.6v-0.2l0,0.1l0,0.2l-0.1,0.3l-0.1,0.3
	l-0.2,0.5l-0.4,0.7l-0.4,0.7l-0.3,0.5l-0.2,0.3l-0.2,0.2l-0.1,0.2l-0.1,0.1l0,0l-1.4,1.6l-2.8,3.1l-2.7,3l-2.7,3l-4,4.5l-3.9,4.5
	l-2.6,3.1l-1.3,1.5l0,0l-0.2,0.3l-0.5,0.6l-0.4,0.5l-0.4,0.5l-0.4,0.4l-0.4,0.4l-0.3,0.4l-0.3,0.4l-0.3,0.3l-0.2,0.3l-0.2,0.3
	l-0.2,0.3l-0.2,0.5l-0.2,0.7l0,0.6l0,0.5l0.1,0.5l0.2,0.5l0.2,0.5l0.2,0.5l0.3,0.5l0.3,0.5l0.3,0.5l0.3,0.5l0.3,0.5l0.4,0.5l0.4,0.5
	l0.4,0.6l0.4,0.6l0.5,0.7l0.3,0.4l0,0c0.6,0.8,1.4,1.3,1.9,1.1C154.8,148.8,154.7,147.9,154.1,147.1L154.1,147.1"/>
<path d="M2.5,4.1l7.4-0.1l14.7-0.1l22.1-0.1l29.5-0.1l29.5-0.1l29.5-0.1l29.5-0.2l44.3-0.3l29.5-0.3l0,0c0.7,0,1.1-0.5,1-1
	c-0.1-0.6-0.7-1-1.4-1l-29.6-0.3L164.3,0l-29.6,0l-29.5,0.1L75.7,0.4L46.2,0.8L24.1,1.3L9.4,1.6L2.1,1.8l0,0C1.3,1.8,0.8,2.3,1,3
	C1.1,3.6,1.8,4.1,2.5,4.1L2.5,4.1"/>
<path d="M0.8,2.8L0.6,8.5L0.3,19.9L0,37.1L0.1,60l1,23l0.6,22.9l0.5,22.9l0.5,22.9L3,169l0.2,11.5l0.1,5.7l0,0
	c0,0.4,0.4,0.9,0.9,0.9c0.5,0.1,0.9-0.2,0.9-0.7l0.1-5.7l0.2-11.4l0.1-17.2l-0.1-22.9l-0.2-22.9L5.2,83.4l0.3-22.8L5,37.6L4.4,20.4
	L4,8.9L3.8,3.1l0,0c0-0.7-0.7-1.3-1.5-1.4C1.5,1.6,0.8,2.1,0.8,2.8L0.8,2.8"/>
<path d="M4.5,187.1l3.6,0.1l7.2,0l7.2-0.1l7.2-0.1l7.2-0.1l7.2-0.1l7.3-0.1l7.3,0l7.3,0l7.3,0l11,0.1L99,187l14.7,0.3l14.7,0.3
	l14.7,0.3l14.6,0.3l14.6,0.1l10.8-0.2l7.2-0.1l7.2-0.1l7.2-0.1l7.1-0.1l7.1-0.1l7.1-0.2l7-0.3l3.5-0.4l0,0c0.3,0,0.4-0.2,0.4-0.4
	c0-0.2-0.3-0.4-0.5-0.4l-3.6-0.3l-7.1-0.2l-7.1-0.2l-7.1-0.2l-7.2-0.2l-7.2-0.2l-7.2-0.2l-7.2-0.3l-10.9-0.6l-14.6-0.4l-14.7-0.4
	l-14.7-0.3l-14.7-0.3L98.3,182l-14.7-0.1l-11,0l-7.3,0.1l-7.3,0.1l-7.3,0.2l-7.3,0.2l-7.2,0.3l-7.2,0.4l-7.2,0.4l-7.1,0.5l-7.1,0.8
	l-3.5,0.6c-0.5,0-0.8,0.4-0.7,0.9C3.5,186.8,4,187.2,4.5,187.1L4.5,187.1"/>
<path d="M238.8,1.4l-0.5,6.1l-0.5,12.2l-0.2,12.1l-0.1,12l-0.1,11.9l-0.1,11.8l0,11.7l0.1,11.6l0,8.6l-0.1,5.7l-0.1,5.7l-0.1,5.7
	L237,122l-0.1,5.6l-0.1,5.6l0,5.6l0,5.5l0,5.5l0.1,5.5l0.1,5.5l0.2,5.4l0.3,5.4l0.4,5.4l0.7,5.4l0.6,2.7l0,0c0,0.5,0.5,1,1.1,1
	c0.6,0.1,1-0.3,1-0.8l0.3-2.6l0.3-5.3l0-5.3l-0.1-5.4l-0.1-5.4l-0.2-5.5l-0.2-5.5l-0.2-5.5l-0.2-5.5l-0.2-5.6l-0.2-5.6l-0.2-5.6
	l-0.2-5.7l-0.2-5.7l-0.1-5.7l-0.1-5.7L240,91l0.2-11.6l0.2-11.7l0.2-11.8l0.3-11.9l0.3-12l0.3-12.1l0.1-12.2l-0.2-6.2l0,0
	c0-0.6-0.5-1.2-1.2-1.2C239.4,0.4,238.8,0.8,238.8,1.4L238.8,1.4"/>
<path d="M165.8,15.5l0.1,0.2L166,16l0,0.4v0.5l0,0.5L166,18l-0.1,0.9l-0.2,1.2l-0.1,0.9l0,0.6l0,0.6l0.1,0.5l0.2,0.4l0.2,0.3
	l0.2,0.2l0.2,0.2l0.1,0.1l0,0c0,0,0,0,0.1,0l0,0l0,0l0.2,0.1l0.3,0.1l0.5,0.2l0.6,0.2l0.7,0.2l0.8,0.1l1.2,0.2l1.3,0.2l0.9,0.1
	l0.8,0.1l0.8,0l0.7,0l0.6,0l0.4,0l0.3-0.1l0.3-0.1l0.3-0.1l0.2-0.1l0,0c0,0,0.1-0.1,0.1-0.1l0,0l0,0l0.2-0.3l0.1-0.3l0.1-0.3
	l0.1-0.3l0.1-0.3l0.1-0.5l0.1-0.7l0.1-0.8l0-0.9l0-0.9l0-0.9l0-0.9l0-0.9l-0.1-0.8l-0.1-0.7l-0.1-0.7l-0.1-0.5l-0.1-0.3l-0.1-0.3
	l-0.2-0.3l-0.2-0.3l0,0c-0.1-0.1-0.1-0.1-0.2-0.2l0,0l0,0l-0.3-0.2l-0.4-0.1l-0.3-0.1l-0.5-0.1l-0.7,0l-0.7,0l-0.8,0l-0.8,0.1
	l-0.8,0.1l-1.2,0.1l-1.2,0.2L169,13l-0.7,0.1l-0.6,0.1l-0.5,0.1l-0.3,0.1l-0.2,0l-0.1,0l0,0c-1,0.2-1.6,1.2-1.4,2.2
	c0.2,1,1.2,1.6,2.2,1.4l0.1,0l0.2,0l0.3-0.1l0.5-0.1l0.6-0.1l0.7-0.2l0.7-0.2l1.1-0.2l1.1-0.2l0.7-0.1l0.7-0.1l0.6-0.1l0.5,0l0.4,0
	l0.2,0l0,0l-0.1,0l-0.1-0.1l0,0l-0.2-0.2l-0.1-0.2l0-0.1l0,0l0,0.1l0.1,0.3l0.1,0.5l0.1,0.6l0.1,0.7l0.1,0.8l0.1,0.8l0.1,0.8l0,0.8
	l0,0.8V22l0,0.6l0,0.4l0,0.2l0,0.2l0,0.1l0,0l0.1-0.1l0,0l0.1-0.1l0.1-0.1l0,0l-0.1,0l-0.1,0l-0.3,0.1l-0.5,0.1l-0.6,0l-0.7,0
	l-0.8,0l-0.8,0l-1.2-0.1l-1.2-0.1l-0.7-0.1l-0.7-0.1l-0.6-0.1l-0.4-0.1l-0.2-0.1l-0.1,0l-0.1,0l0.1,0l0,0l-0.1-0.1l-0.1-0.1
	l-0.1-0.1l-0.1-0.2l-0.1-0.4l-0.1-0.4l0-0.5l0-0.9l0.1-1.2L167,18l0-0.6l0-0.6l0-0.6l-0.1-0.5l-0.2-0.5l-0.1-0.2
	c-0.1-0.2-0.4-0.3-0.6-0.2C165.8,15,165.7,15.3,165.8,15.5L165.8,15.5"/>
<path d="M186.8,15.5l0.1,0.2l0.1,0.3l0,0.4l0,0.4l0,0.5l-0.1,0.6l-0.1,0.9l-0.2,1.2l-0.1,0.9l0,0.6l0,0.6l0.1,0.6l0.2,0.4l0.2,0.3
	l0.2,0.3l0.3,0.2l0.2,0.1l0,0c0,0,0.1,0,0.1,0.1l0,0l0,0l0.2,0.1l0.4,0.1l0.6,0.2l0.6,0.1l0.7,0.1l0.8,0.1l1.3,0.2l1.3,0.1l0.9,0.1
	l0.8,0.1l0.8,0l0.7,0l0.6,0l0.4-0.1l0.3-0.1l0.3-0.1l0.3-0.1L199,25l0,0c0,0,0.1-0.1,0.1-0.1l0,0l0,0l0.2-0.2l0.1-0.3l0.1-0.3
	l0.1-0.3l0.1-0.3l0.1-0.5l0.1-0.7l0-0.8l0-0.8l0-0.9l0-0.9l0-0.9l0-0.8l-0.1-0.8l-0.1-0.7l-0.1-0.6l-0.1-0.4l-0.1-0.3l-0.1-0.3
	l-0.2-0.3l-0.2-0.3l0,0c-0.1-0.1-0.1-0.1-0.2-0.2l0,0l0,0l-0.4-0.2l-0.4-0.2l-0.4-0.1l-0.5-0.1l-0.7,0l-0.7,0l-0.8,0l-0.8,0.1
	l-0.8,0.1l-1.2,0.2l-1.2,0.2l-0.8,0.1l-0.7,0.1l-0.6,0.1l-0.5,0.1l-0.3,0.1l-0.2,0l-0.1,0l0,0C186.8,14,186.4,14.8,186.8,15.5
	c0.3,0.8,1.2,1.3,2,1.1l0.1,0l0.2,0l0.3-0.1l0.5-0.1l0.6-0.1l0.7-0.1l0.7-0.1l1.1-0.2l1.1-0.2l0.7-0.1l0.7-0.1l0.6-0.1l0.5,0l0.4,0
	l0.2,0l0,0l-0.1-0.1L197,15l0,0l-0.2-0.2l-0.1-0.2l0-0.1l0,0l0,0.1l0.1,0.3l0.1,0.5l0.1,0.6l0.1,0.7l0.1,0.8l0.1,0.8l0,0.9l0,0.8
	l0,0.8l0,0.7l0,0.6l0,0.4l0,0.2l0,0.2l0,0.1l0,0l0,0l0,0l0.1-0.1l0.1-0.1l0,0l-0.1,0l-0.1,0l-0.3,0l-0.5,0l-0.6,0l-0.7,0l-0.8,0
	l-0.8,0l-1.2-0.1l-1.2-0.1l-0.7-0.1l-0.6-0.1l-0.5-0.1l-0.4-0.1l-0.2,0l0,0l-0.1,0l0.1,0.1l0,0l0,0l-0.1,0l-0.1-0.1l-0.1-0.2
	l-0.1-0.4l-0.1-0.4l0-0.5l0-0.9l0.1-1.2l0.1-0.9l0-0.6l0-0.6l0-0.6l-0.1-0.6l-0.2-0.5l-0.1-0.2l0,0c-0.2-0.3-0.6-0.5-1-0.4
	C186.7,14.8,186.6,15.2,186.8,15.5L186.8,15.5"/>
<path d="M207.5,15.5l0.1,0.2l0.1,0.3l0,0.4l0,0.5l0,0.5l-0.1,0.6l-0.1,0.9l-0.2,1.2l-0.1,0.9l0,0.6l0,0.6l0.1,0.6l0.2,0.4l0.2,0.3
	l0.2,0.3l0.3,0.3l0.2,0.1l0,0c0,0,0.1,0,0.1,0.1l0,0l0.1,0l0.2,0.1l0.4,0.1l0.6,0.2l0.6,0.2l0.7,0.1l0.8,0.1l1.3,0.2l1.3,0.2
	l0.9,0.1l0.8,0.1l0.8,0l0.7,0l0.7,0l0.5,0l0.3-0.1l0.3-0.1l0.3-0.1l0.2-0.1l0,0c0,0,0.1-0.1,0.1-0.1l0,0l0,0l0.2-0.3l0.1-0.3
	l0.1-0.3l0.1-0.3l0.1-0.3l0.1-0.5l0.1-0.7l0.1-0.8l0-0.8l0-0.9l0-0.9l0-0.9l0-0.8l-0.1-0.8l-0.1-0.7l-0.1-0.6l-0.1-0.4l-0.1-0.3
	l-0.1-0.3l-0.2-0.3l-0.3-0.3l0,0c-0.1-0.1-0.1-0.1-0.2-0.2l0,0l0,0l-0.4-0.3l-0.5-0.2l-0.4-0.1l-0.5-0.1l-0.7,0l-0.7,0l-0.8,0
	l-0.8,0.1l-0.8,0.1l-1.2,0.2l-1.2,0.2l-0.8,0.1l-0.7,0.1l-0.6,0.1l-0.5,0.1l-0.3,0.1l-0.2,0l-0.1,0l0,0c-1.1,0.2-1.6,1.2-1.2,2.1
	c0.4,1,1.6,1.5,2.7,1.3l0,0l0.1,0l0.2,0l0.3-0.1l0.5-0.1l0.6-0.1l0.6-0.1l0.7-0.2l1.1-0.2l1.1-0.2l0.7-0.1l0.7-0.1l0.6-0.1l0.5,0
	l0.4,0l0.1,0l0,0l-0.2-0.1l-0.2-0.1l0.1,0l-0.2-0.2l-0.2-0.2l0-0.1l0,0l0,0.1l0.1,0.3l0.1,0.5l0.1,0.6l0.1,0.7l0.1,0.8l0.1,0.8
	l0.1,0.9l0,0.8l0,0.8v0.7l0,0.6l0,0.4l0,0.2l0,0.2l0,0.1l0,0l0.1-0.1l0,0l0.1-0.1l0.1-0.1l0,0l0,0l-0.1,0l-0.3,0.1l-0.5,0.1l-0.6,0
	l-0.7,0l-0.8,0l-0.8,0l-1.2-0.1l-1.2-0.1l-0.7-0.1l-0.6-0.1l-0.5-0.1l-0.4-0.1l-0.2,0l0,0l-0.1,0l0.1,0.1l0,0l0,0l-0.1,0l-0.1-0.1
	l-0.1-0.2l-0.1-0.4l-0.1-0.4l0-0.5l0-0.9l0.1-1.2l0.1-0.9l0-0.6l0-0.6l0-0.6l-0.1-0.6l-0.2-0.5l-0.1-0.2c-0.2-0.3-0.6-0.5-0.9-0.4
	C207.4,14.9,207.3,15.2,207.5,15.5L207.5,15.5"/>
<path d="M4.6,33.5l3.6-0.1l7.3-0.3l7.3-0.2l7.3-0.2l7.3-0.2l7.3-0.1l7.3-0.1l7.3,0l7.3,0l7.3,0l10.9,0.1L99,32.7l14.5,0.3l14.5,0.4
	l14.5,0.4l14.5,0.3l14.5,0.3l14.5,0.2l10.8,0.1l7.2,0l7.2-0.1l7.2-0.1l7.2-0.2l7.1-0.4l3.5-0.3l0,0c0.2,0,0.3-0.1,0.3-0.3
	c0-0.2-0.2-0.3-0.4-0.3l0,0l-3.6-0.2l-7.2-0.1l-7.2-0.1l-7.2-0.1l-7.2-0.1l-7.2-0.1l-10.8-0.2l-14.5-0.4l-14.5-0.4l-14.5-0.4
	l-14.5-0.4l-14.6-0.4l-14.6-0.3L84,29.3l-10.9-0.1l-7.3,0l-7.3,0l-7.3,0.1L44,29.4l-7.3,0.2l-7.3,0.2l-7.3,0.3l-7.3,0.4L7.7,31
	l-3.6,0.3l0,0c-0.7,0-1.1,0.5-0.9,1.1C3.3,33.1,3.9,33.5,4.6,33.5L4.6,33.5"/>
<path d="M112.9,148.2l1.6,0.4l2.9,0.1l1.3-0.4l0,0c0.5-0.1,0.7-0.8,0.3-1.7c-0.4-0.9-1.1-1.5-1.6-1.4l0,0l-1.4,0l-2.5,0.8l-1.1,0.8
	l0,0c-0.2,0-0.3,0.4-0.1,0.8C112.3,147.9,112.6,148.2,112.9,148.2L112.9,148.2"/>
</svg>
