<?xml version="1.0" encoding="utf-8"?>
<!-- Generator: Adobe Illustrator 22.1.0, SVG Export Plug-In . SVG Version: 6.00 Build 0)  -->
<svg version="1.1" id="Layer_1" xmlns="http://www.w3.org/2000/svg" xmlns:xlink="http://www.w3.org/1999/xlink" x="0px" y="0px"
	 viewBox="0 0 244.7 243.9" style="enable-background:new 0 0 244.7 243.9;" xml:space="preserve">
<path d="M50.5,114.8l-0.5,0.5l-0.9,1.1l-0.9,1.1l-0.9,1.2l-0.9,1.2l-0.9,1.2l-0.9,1.3l-0.9,1.3l-1.3,2l-1.7,2.8l-1.7,2.8l-1.7,2.9
	l-1.7,2.9l-1.6,2.9l-1.6,2.9l-1.6,2.8l-1.6,2.7l-1.6,2.6l-1.2,1.9l-0.8,1.2l-0.8,1.2l-0.8,1.1l-0.4,0.5l0,0l-0.1,0.2l-0.2,0.3
	l-0.3,0.4l-0.3,0.4l-0.3,0.4l-0.3,0.5l-0.4,0.5l-0.4,0.5l-0.4,0.5l-0.4,0.6l-0.7,0.9l-0.9,1.2l-1,1.3l-1,1.4l-1.1,1.4l-1.1,1.5
	l-1.1,1.5l-1.7,2.3l-2.2,3.2l-1.6,2.4l-1,1.6l-1,1.6l-1,1.6l-0.9,1.6l-0.8,1.6l-0.8,1.5l-0.7,1.5l-0.5,1.1l-0.3,0.7l-0.2,0.7
	l-0.2,0.7l-0.2,0.7l-0.2,0.7l-0.1,0.7l-0.1,0.7L0,195.9l0,0.7l0,0.7l0,0.7l0.1,0.7l0.2,0.7l0.3,0.8l0.4,0.8l0.3,0.5l0,0
	c0.1,0.1,0.1,0.2,0.2,0.3l0,0l0.2,0.2l0.7,0.8l0.8,0.8l0.8,0.6l0.8,0.5l0.8,0.5l0.9,0.4l0.9,0.4l1,0.4l1,0.3l1,0.3l1.1,0.3l1.1,0.3
	l1.1,0.3l1.7,0.4l2.3,0.5l2.3,0.4l2.3,0.4l2.2,0.4l1.6,0.3l1,0.2l1,0.2l0.9,0.1l0.9,0.1l0.8,0.1l0.7,0.1l0.7,0.1l0.3,0.1l0,0
	l0.3,0.1l0.5,0.1l0.6,0.1l0.6,0.1l0.7,0.1l0.7,0.1l0.7,0.1l0.8,0.2l0.8,0.2l0.8,0.2l0.9,0.2l0.9,0.2l0.9,0.2l1,0.2l1.5,0.3l2.1,0.4
	l2.3,0.4l2.4,0.5l2.5,0.5l2.6,0.5l2.7,0.5l2.8,0.5l2.9,0.5l2.9,0.6l3,0.6l3.1,0.6l3.2,0.6l3.2,0.6l3.3,0.6l3.3,0.6l3.4,0.6l5.1,0.9
	l6.9,1.2l7,1.2l7,1.2l7,1.2l6.9,1.2l5.1,0.8l3.4,0.5l3.3,0.5l3.3,0.5l3.2,0.5l3.2,0.5l3.1,0.5l3.1,0.4l3,0.4l2.9,0.4l2.8,0.4
	l2.7,0.3l2.6,0.3l2.6,0.3l2.4,0.3l2.3,0.2l1.7,0.2l1.1,0.1l1.1,0.1l1,0.1l1,0.1l1,0.1l0.9,0l0.9,0l0.9,0l0.8,0l0.8,0l0.8,0l0.7,0
	l0.7,0l0.6,0l0.6,0l0.6-0.1l0.5-0.1l0.5-0.1l0.5-0.1l0.4-0.1l0.4-0.1l0.4-0.1l0.3-0.2l0.2-0.1l0,0c0,0,0,0,0.1,0l0,0l0.2-0.1
	l0.4-0.4l0.4-0.5l0.4-0.6l0.5-0.7l0.5-0.7l0.5-0.8l0.5-0.9l0.6-1l0.6-1.1l0.6-1.1l0.6-1.2l0.6-1.3l0.7-1.3l0.7-1.4l0.7-1.5l0.7-1.5
	l0.7-1.6l0.8-1.6l0.8-1.7l0.8-1.7l0.8-1.8l0.8-1.8l0.8-1.9l0.8-1.9l0.8-1.9l1.3-3l1.7-4l1.7-4.1l2.6-6.3l2.5-6.3l1.7-4.2l1.6-4.1
	l1.6-4.1l1.2-3l0.8-2l0.8-1.9l0.7-1.9l0.7-1.9l0.7-1.8l0.7-1.8l0.7-1.7l0.6-1.7l0.6-1.6l0.6-1.6l0.6-1.5l0.6-1.4l0.5-1.4l0.5-1.3
	l0.5-1.2l0.5-1.2l0.4-1.1l0.4-1l0.4-0.9l0.2-0.4l0,0c0.4-0.9-0.1-2.4-1-3.4c-0.9-1-2-1.1-2.3-0.3l0,0l-0.2,0.4l-0.4,0.9l-0.4,1
	l-0.5,1.1l-0.5,1.1l-0.5,1.2l-0.5,1.3l-0.6,1.3l-0.6,1.4l-0.6,1.5l-0.6,1.5l-0.7,1.6l-0.7,1.6l-0.7,1.7l-0.7,1.7l-0.7,1.8l-0.8,1.8
	l-0.8,1.8l-0.8,1.9l-0.8,1.9l-1.2,2.9l-1.7,4l-1.7,4.1l-1.7,4.1l-2.6,6.2l-2.6,6.2l-1.7,4.1l-1.7,4l-1.3,2.9l-0.8,1.9l-0.8,1.9
	l-0.8,1.8l-0.8,1.8l-0.8,1.8l-0.8,1.7l-0.8,1.7l-0.8,1.6l-0.7,1.6l-0.7,1.5l-0.7,1.5l-0.7,1.4l-0.7,1.3l-0.6,1.3l-0.6,1.2l-0.6,1.1
	l-0.6,1l-0.5,0.9l-0.5,0.9l-0.5,0.8l-0.4,0.7l-0.4,0.6l-0.3,0.5l-0.3,0.3l-0.2,0.2l-0.2,0.1l0.1,0l0,0l-0.1,0.1l-0.2,0.1l-0.3,0.1
	l-0.3,0.1l-0.4,0.1l-0.4,0.1l-0.5,0.1l-0.5,0.1l-0.6,0l-0.6,0l-0.6,0l-0.7,0l-0.7,0l-0.8,0l-0.8,0l-0.8,0l-0.9,0l-0.9,0l-0.9,0
	l-1-0.1l-1-0.1l-1-0.1l-1.1-0.1l-1.7-0.1l-2.3-0.2l-2.4-0.2l-2.5-0.3l-2.6-0.3l-2.7-0.3l-2.8-0.3l-2.9-0.4l-3-0.4l-3-0.4l-3.1-0.4
	l-3.2-0.4l-3.2-0.5l-3.3-0.5l-3.3-0.5l-3.4-0.5l-5.1-0.8l-6.9-1.1l-7-1.1l-7-1.2l-6.9-1.2l-6.9-1.2l-5.1-0.9l-3.3-0.6l-3.3-0.6
	l-3.3-0.6l-3.2-0.6L72,214l-3.1-0.6l-3-0.5l-2.9-0.5l-2.9-0.5l-2.8-0.5l-2.7-0.5l-2.6-0.5l-2.5-0.5l-2.4-0.4l-2.3-0.4l-2.1-0.4
	l-1.5-0.3l-1-0.2l-0.9-0.2l-0.9-0.2l-0.9-0.2l-0.8-0.2l-0.8-0.2l-0.8-0.1l-0.7-0.1l-0.7-0.1l-0.7-0.1l-0.6-0.1l-0.6-0.1l-0.5-0.1
	l-0.3,0l0,0c0,0,0,0,0,0l0,0l-0.3-0.1l-0.7-0.1l-0.8-0.1l-0.8-0.1l-0.9-0.1l-0.9-0.1l-1-0.1l-1-0.1l-1.6-0.2l-2.2-0.3l-2.3-0.4
	l-2.3-0.4l-2.3-0.5l-1.7-0.4l-1.1-0.3l-1-0.3l-1-0.3l-0.9-0.3l-0.9-0.3l-0.8-0.3l-0.8-0.3L5.2,201l-0.6-0.3l-0.5-0.3l-0.3-0.2
	L3.6,200l-0.1-0.1l-0.2-0.2l0.2,0.3l0.1,0.1h0l0-0.1l-0.1-0.2l-0.1-0.3l0-0.3l0-0.4l0-0.4l0-0.5l0.1-0.5l0.1-0.6l0.1-0.6l0.2-0.6
	l0.2-0.6l0.2-0.7l0.2-0.7l0.4-1l0.6-1.4l0.7-1.5l0.8-1.5l0.9-1.6l0.9-1.6l1-1.6l1-1.6l1.6-2.4l2.2-3.2l1.7-2.3l1.1-1.5l1.1-1.5
	l1-1.4l1-1.4l1-1.3l0.9-1.2l0.7-0.9l0.4-0.6l0.4-0.5l0.4-0.5l0.4-0.5l0.3-0.5l0.3-0.4l0.3-0.4l0.3-0.4l0.3-0.4l0.1-0.2l0,0
	c0,0,0,0,0,0l0,0l0.4-0.6l0.8-1.2l0.8-1.2l0.8-1.2l1.2-1.9l1.5-2.7l1.6-2.8l1.6-2.8l1.6-2.9l1.6-2.9l1.6-2.9l1.7-2.9l1.7-2.8
	l1.7-2.8l1.3-2l0.9-1.3l0.9-1.3l0.9-1.2l0.9-1.2l0.9-1.2l0.9-1.1l0.9-1.1l0.5-0.5l0,0c0.4-0.4,0.2-1.5-0.3-2.3
	C51.7,114.7,50.9,114.4,50.5,114.8L50.5,114.8"/>
<path d="M52.8,117l0-1.4l-0.1-2.9l-0.3-4.4l-0.4-5.9l-0.5-6l-0.4-6l-0.3-4.5l-0.2-3l-0.2-3L50.3,77l-0.1-2.9l-0.1-2.9l0-1.4l0,0
	l0-0.2l0-0.4l0-0.5l0-0.5l0-0.6l0-0.7l0-0.7l0-0.8l0-0.8l0-0.9l0-0.9l-0.1-1l-0.1-1l-0.1-1.1l-0.1-1.1l-0.1-1.1l-0.1-1.8l-0.1-2.5
	l-0.1-2.6L49,48.1l-0.2-2.7l-0.2-2.8l-0.2-4.2l-0.2-4.3l-0.1-2.8L48,28.5l-0.1-2.7l-0.1-2.6l-0.1-2.5l-0.1-1.8l0-1.1l0-1.1l0-1.1
	l0-1l0-1l0-0.9l0-0.9l0-0.8l0-0.8l0-0.7l0-0.6l0-0.6l0-0.5l0-0.4l0-0.4l0-0.3l0-0.2l0,0l0,0.1l-0.2,0.2l-0.1,0.1l0.3-0.1l0.7-0.2
	L49,6.5l0.8-0.1l0.8-0.1l0.9-0.1L52.4,6l0.9-0.1l1.5-0.2l2-0.2l2.1-0.1l2.2-0.1l2.2-0.1l2.2-0.1L67.6,5l2.1,0l2,0l1.4,0l0.9,0l0.9,0
	l0.8,0l0.8,0l0.7,0l0.3,0l0,0c0,0,0,0,0,0l0,0l0.2,0l0.5,0l0.6,0l0.6,0l0.7,0h0.7h0.7l0.8,0l0.8,0L84,5l1.4,0l1.9,0l2.1,0l2.2,0
	l2.3,0l2.5,0l2.6,0l2.7,0l2.8,0l2.9,0l3,0l3.1,0l3.1,0l3.2,0l3.3,0l3.3,0l3.4,0l3.4,0l3.5,0l5.3,0l7.2,0l7.2,0l7.2,0l7.2,0l5.4,0
	l3.5,0l3.5,0l3.5,0.1l3.4,0.1l3.3,0.1l3.3,0.1l3.2,0.1l3.1,0.1l3.1,0.1l3,0.1l2.9,0.1l2.8,0.1l2.7,0.1l2.6,0.2l2.5,0.2l2.3,0.2
	l2.2,0.2l1.6,0.2l1,0.1l1,0.2l1,0.2l0.9,0.2l0.9,0.2l0.8,0.2l0.8,0.2l0.8,0.2l0.7,0.2l0.7,0.2l0.6,0.2l0.6,0.2l0.5,0.2l0.5,0.2
	l0.4,0.2l0.3,0.2l0.3,0.1l0.2,0.1l0.1,0.1l-0.1,0l-0.3-0.2l-0.5-0.6L239.4,8l-0.2-0.8l0-0.3l0,0.8l0.1,1.5l0.1,1.6l0.1,1.6l0.1,2.5
	l0.1,3.4l0.1,3.5l0.1,3.5l0.1,3.6l0.1,3.6l0.1,3.6l0.1,3.5l0.1,3.5l0.1,3.4l0.1,3.3l0.1,2.4l0,1.5l0,1.5l0.1,1.5l0.1,1.4l0.1,1.4
	l0,0.7v0l0,1.2l0.1,2.3l0.1,3.5v4.6l-0.1,4.5l-0.2,4.4l-0.3,4.4l-0.3,4.4l-0.2,4.4l-0.4,6.6l-0.5,8.7l-0.4,6.6l-0.2,4.4l-0.1,4.5
	l0,4.6l0.1,2.4l0,0c0,0.9,0.6,2.1,1.4,2.7c0.8,0.5,1.5,0.2,1.5-0.7l0,0l0.2-2.1l0.3-4.3l0.2-4.4l0.2-4.3l0.4-6.5l0.6-8.7l0.5-6.5
	l0.3-4.4l0.2-4.5l0.1-4.5l0.1-4.6l0.1-4.6l0-4.6l0-3.5l0-2.3l0-1.2l0,0c0,0,0,0,0,0l0,0l0-0.6l0-1.3l0-1.4l0-1.4l0-1.4l0-1.5l0-2.3
	l0.1-3.2l0.1-3.3l0.1-3.4l0-3.5l0-3.6l0-3.6l-0.1-3.6l-0.1-3.6l-0.1-3.6l-0.2-3.5l-0.2-2.6l-0.1-1.7l-0.2-1.7l-0.2-1.6l-0.1-0.8l0,0
	c0-0.1,0-0.2,0-0.3l0,0l-0.2-1l-0.6-1.3l-0.7-0.9l-0.6-0.6l-0.5-0.4l-0.5-0.3l-0.5-0.2L239.3,4l-0.5-0.2l-0.5-0.2l-0.5-0.1l-0.6-0.1
	l-0.6-0.1l-0.7-0.1L235.3,3l-0.7-0.1l-0.8-0.1L233,2.8l-0.8-0.1l-0.9-0.1l-0.9-0.1l-0.9-0.1l-1-0.1l-1-0.1l-1.6-0.1L223.6,2
	l-2.4-0.2l-2.5-0.2l-2.6-0.2l-2.7-0.2l-2.8-0.1L207.7,1l-3-0.1l-3.1-0.1l-3.2-0.1l-3.2-0.1l-3.3-0.1l-3.4-0.1l-3.4-0.1l-3.5-0.1
	l-3.5-0.1l-3.5,0l-5.4-0.1l-7.2,0l-7.2,0l-7.2,0l-7.2,0l-5.3,0l-3.5,0l-3.4,0l-3.4,0l-3.3,0l-3.3,0l-3.2,0l-3.1,0l-3.1,0l-3,0
	l-2.9,0l-2.8,0l-2.7,0l-2.6,0l-2.5,0l-2.3,0l-2.2,0l-2.1,0l-1.9,0l-1.4,0l-0.9,0l-0.8,0l-0.8,0l-0.7,0l-0.7,0l-0.7,0l-0.6,0l-0.6,0
	l-0.5,0l-0.2,0h0l-0.3,0l-0.7,0l-0.8,0l-0.8,0l-0.9,0l-0.9,0l-1.4,0l-2,0l-2.1,0l-2.2,0l-2.2,0.1l-2.2,0.1l-2.2,0.1l-2.2,0.1
	l-2.1,0.2l-1.5,0.1l-1,0.1l-0.9,0.1L48.9,2L48,2.2l-0.8,0.1l-0.8,0.2l-0.7,0.2l-0.3,0.1l0,0c-0.1,0-0.1,0-0.1,0.1l0,0L45,3l-0.2,0.3
	l-0.1,0.3L44.5,4l-0.1,0.4l-0.1,0.5l0,0.5l0,0.6l0,0.6l0,0.7l0,0.7l0,0.8l0,0.9l0,0.9l0,0.9l0,1l0,1l0,1.1l0,1.1l0,1.2l0,1.8
	l0.1,2.5l0.1,2.6l0.1,2.7l0.1,2.8l0.1,2.8l0.2,4.2l0.2,4.2l0.1,2.8l0.1,2.7l0.1,2.7l0.1,2.6l0.1,2.5l0.1,1.8l0.1,1.1l0.1,1.1
	l0.1,1.1l0,1l0,1l0,0.9l0,0.9l0,0.8l0,0.8l0,0.7l0,0.6l0,0.6l0,0.5l0,0.4l0,0.3v0.2l0,0c0,1.2,0.8,2.6,1.8,3.3c1,0.6,1.8,0.2,1.8-1
	s-0.8-2.6-1.8-3.3c-1-0.6-1.8-0.2-1.8,1l0,0l0,1.5l0,3l0.1,3l0.1,3l0.2,3l0.2,3l0.4,4.6l0.6,6.1l0.6,6.1l0.6,6l0.5,4.5l0.3,3
	l0.2,1.5c0.1,0.8,0.6,1.7,1.3,2.1C52.3,118.2,52.8,117.8,52.8,117L52.8,117"/>
<path d="M51.5,117.6l1.9,0.4l3.7,0.6l3.7,0.5l3.6,0.5l3.6,0.4l3.5,0.4l5.2,0.6l6.9,0.7l6.8,0.7l6.7,0.6l6.7,0.6l6.7,0.6l6.7,0.5
	l6.7,0.5l6.8,0.4l6.9,0.4l5.2,0.3l3.5,0.2l3.6,0.2l3.6,0.2l3.6,0.2l3.7,0.1l1.9,0.1l0,0l1.1,0l2.3,0.1l3.5,0.2l4.7,0.3l4.8,0.4
	l4.8,0.4l4.9,0.5l7.4,0.8l7.5,0.9l5,0.6l5,0.5l4.9,0.5l4.9,0.4l4.8,0.4l3.6,0.2l2.4,0.1l2.3,0.1l2.3,0l1.1-0.1l0,0
	c0.7,0,1-0.9,0.6-1.9c-0.4-1.1-1.2-1.9-1.9-1.9l0,0l-1.2-0.1l-2.3,0l-2.3,0l-2.3,0l-3.5-0.1l-4.8-0.2l-4.8-0.2l-4.9-0.3l-4.9-0.3
	l-4.9-0.4l-7.4-0.6l-7.4-0.6l-4.9-0.4l-4.8-0.5l-4.8-0.4l-4.7-0.4l-3.5-0.3l-2.3-0.2l-1.1-0.1l0,0l0,0l0,0l-1.9-0.1L156,124
	l-3.7-0.2l-3.6-0.3l-3.6-0.3l-3.5-0.3l-5.3-0.4l-6.9-0.6l-6.8-0.6l-6.7-0.6l-6.7-0.7l-6.7-0.7l-6.7-0.7L89,118l-6.8-0.8l-6.9-0.8
	l-5.2-0.6l-3.5-0.4l-3.6-0.4l-3.6-0.4l-3.6-0.4l-3.6-0.3l-1.8-0.1c-0.7-0.1-1,0.7-0.7,1.7C50,116.7,50.8,117.5,51.5,117.6
	L51.5,117.6"/>
<path d="M53.1,10.3l0.1,0.4l0.1,0.8l0.1,0.9l0.1,1l0.1,1l0.1,1.1l0.1,1.1l0.1,1.2l0.1,1.3l0.1,1.3l0.1,1.4l0.1,1.4l0.1,1.4l0.1,1.5
	l0.1,1.5l0.1,1.6l0.1,2.4l0.1,3.3l0.1,3.4l0.1,3.5l0.1,3.6l0.1,3.7l0.2,5.6l0.2,7.5l0.1,5.6l0.1,3.7l0.1,3.6l0.1,3.6l0.1,3.5
	l0.1,3.3l0.1,3.2l0.1,2.3l0,1.5l0.1,1.5l0,1.4l0.1,1.4l0.1,1.3l0.1,1.3l0.1,1.2l0.1,1.2l0.1,1.1l0.1,1.1l0.1,1L57,106l0.1,0.9l0,0.4
	l0,0c0.1,1.1,0.8,2.4,1.7,2.8c0.2,0.1,0.3,0.2,0.5,0.2l0,0l2.3,0.3l4.6,0.6l4.6,0.6l4.5,0.6l4.4,0.5l4.4,0.5l4.3,0.5l4.3,0.5
	l4.2,0.5l4.2,0.4l4.1,0.4l4,0.4l4,0.4l3.9,0.4l3.9,0.4l3.8,0.3l3.7,0.3l3.7,0.3l3.6,0.3l3.6,0.3l3.5,0.3l3.4,0.3l3.4,0.2l3.3,0.2
	l3.3,0.2l3.2,0.2l3.1,0.2l3.1,0.2l3,0.2l2.9,0.2l2.9,0.1l2.8,0.1l2.7,0.1l2.7,0.1l2.6,0.1l2.6,0.1l2.5,0.1l2.4,0.1l2.4,0.1l2.3,0
	l2.2,0l2.2,0l2.1,0l2,0l2,0l1.9,0l1.8,0l1.8,0l1.7,0l1.6,0l1.5,0l1.5-0.1l1.4-0.1l1.3-0.1l1.3-0.1l1.2-0.1l1.1-0.1l1.1-0.1l1-0.1
	l0.9-0.1l0.8-0.1l0.8-0.1l0.7-0.1l0.6-0.1l0.3-0.1l0,0c0.1,0,0.2,0,0.2-0.1l0,0l0,0l0.3-0.4l0.2-0.4l0.1-0.4l0.1-0.4l0.1-0.4
	l0.1-0.5l0.1-0.5l0.1-0.6l0-0.7l0-0.7l0-0.8l0-0.8l0-0.9l0-0.9l0-1l0-1l0-1l0.1-1.6l0.1-2.3l0.1-2.4l0.1-2.5l0.1-2.6l0.1-4l0.1-5.4
	l0.1-4.1l0-2.7l0-2.6l0-2.5l0-2.5l0-2.3l0-1.7l0-1.1l0-1l0-1l0-0.9l0-0.9l0-0.9l0-0.8l0-0.7l0-0.7l0-0.6l0-0.6l0-0.5l0-0.4l0-0.4
	l0-0.3l0-0.1l0,0l0-0.6l0-1.3l0-1.3l0-1.4l0-1.5l0-1.6l0-1.6l0-1.7l0-2.6l0-3.6l0-3.6l-0.1-3.6l-0.1-2.6l0-1.7l0-1.6l0-1.6l-0.1-1.5
	l-0.1-1.5l-0.1-1.4l-0.1-1.3l-0.1-1.2l-0.1-1.1l-0.1-1l-0.1-0.8l-0.1-0.7l-0.1-0.5l-0.1-0.3l-0.1-0.3l-0.1-0.3l-0.2-0.5l-0.5-0.9
	l-0.9-0.8l0,0c-0.1-0.1-0.2-0.1-0.3-0.1l0,0l-0.4-0.1l-0.8-0.1l-0.9-0.1l-0.9-0.1l-0.9-0.1l-1-0.1l-1-0.1l-1.1-0.1l-1.6-0.2
	l-2.3-0.2l-2.4-0.2l-2.5-0.2l-2.6-0.1l-2.6-0.1l-2.7-0.1l-2.8-0.1l-2.8-0.1l-2.8-0.1l-4.3-0.1l-5.7-0.1l-4.3,0l-2.8,0l-2.8,0l-2.7,0
	l-2.6,0l-2.5,0l-2.5,0l-2.4,0l-2.2,0l-2.1,0l-1.5,0l-1,0l-0.9,0l-0.9,0l-0.8,0l-0.8,0l-0.8,0l-0.7,0l-0.3,0h0l-1.8,0l-3.6-0.1
	l-3.5-0.1l-3.5-0.1l-3.4-0.1l-3.4-0.1l-3.3-0.1l-3.3-0.1l-4.8-0.1l-6.3-0.2l-6.2-0.1L105.8,9l-6.1-0.1l-6-0.1l-6-0.1l-6-0.1
	l-6.1-0.1l-6.1,0l-6.2,0l-4.7,0.1l-3.2,0.1l-1.6,0.1l0,0c-0.5,0-0.7,0.6-0.4,1.5c0.3,0.8,0.9,1.4,1.5,1.5l0,0l1.7,0.1l3.2,0.1
	l4.8,0.1l6.3,0.1l6.2,0.1l6.1,0.1l6,0.1l6,0.1l6,0.1l6.1,0.1l6.1,0.2l6.2,0.2l6.3,0.2l4.8,0.1l3.3,0.1l3.3,0.1l3.4,0.1l3.4,0.1
	l3.5,0.1l3.5,0.1l3.6,0.1l1.8,0l0,0l0,0l0,0l0.3,0l0.7,0l0.8,0l0.8,0l0.8,0l0.9,0l0.9,0l1,0l1.5,0l2.1,0l2.2,0l2.4,0l2.5,0l2.5,0
	l2.6,0l2.7,0l2.8,0l2.8,0l4.3,0l5.7,0.1l4.3,0.1l2.8,0.1l2.8,0.1l2.8,0.1l2.7,0.1l2.6,0.1l2.6,0.1l2.5,0.2l2.4,0.2l2.3,0.2l1.6,0.2
	l1,0.1l1,0.1l1,0.1l0.9,0.1l0.9,0.1l0.8,0.1l0.8,0.1l0.4,0.1l-0.3-0.1l-0.9-0.8l-0.5-0.8l-0.1-0.3l0-0.1l0,0.1l0,0.1l0,0.3l0.1,0.6
	l0.1,0.8l0.1,0.9l0.1,1l0.1,1.1l0.1,1.2l0.1,1.3l0,1.4l0,1.5l0,1.6l0,1.6l0,1.7l0,2.6l0,3.5l0,3.6l0,3.5l0,2.6l0,1.7l0,1.6l0,1.6
	l0,1.5l0,1.4l0,1.3l0,1.2l0,0.6l0,0c0,1,0.6,2.3,1.5,2.9c0.9,0.6,1.6,0.3,1.6-0.7c0-1-0.6-2.3-1.5-2.9c-0.9-0.6-1.6-0.3-1.6,0.7l0,0
	l0,0.1l0,0.3l0,0.4l0,0.5l0,0.5l0,0.6l0,0.6l0,0.7l0,0.7l0,0.8l0,0.9l0,0.9l0,0.9l0,1l0,1l0,1.1l0,1.7l0,2.3l0,2.5l0,2.5l0,2.6
	l-0.1,2.7l-0.1,4.1l-0.1,5.4l-0.1,4l-0.1,2.6l-0.1,2.5l-0.1,2.4l-0.1,2.3l-0.1,1.6l0,1l0,1l0,0.9l0,0.9l0,0.8l0,0.8l0,0.7l0,0.7
	l0,0.6l0,0.6l0,0.5l0,0.4l0,0.3l0,0.2l0,0.1l0.1-0.1l0.2-0.2l0,0l0.2-0.1l-0.3,0.1l-0.6,0.1l-0.7,0.1l-0.7,0.1l-0.8,0.1l-0.9,0.1
	l-1,0.1l-1,0.1l-1.1,0.1l-1.2,0.1l-1.3,0.1l-1.3,0.1l-1.4,0.1l-1.5,0l-1.5,0l-1.6,0l-1.7,0l-1.7,0l-1.8,0l-1.9,0l-2,0l-2,0l-2.1,0
	l-2.2,0l-2.2,0l-2.3-0.1l-2.4-0.1l-2.4-0.1l-2.5-0.1l-2.5-0.1l-2.6-0.1l-2.7-0.1l-2.7-0.1l-2.8-0.1l-2.9-0.1l-2.9-0.2l-3-0.2
	l-3.1-0.2l-3.1-0.2l-3.2-0.2l-3.2-0.2l-3.3-0.2l-3.4-0.2l-3.4-0.3l-3.5-0.3l-3.6-0.3l-3.6-0.3l-3.7-0.3l-3.7-0.3l-3.8-0.3l-3.9-0.4
	l-3.9-0.4l-4-0.4l-4-0.4l-4.1-0.4l-4.1-0.4l-4.2-0.5l-4.3-0.5l-4.3-0.5l-4.4-0.5L74,108l-4.5-0.5l-4.5-0.5l-4.6-0.6L58,106l2.2,3
	l0-0.4l-0.1-0.8l-0.1-0.9l-0.1-1l-0.1-1l-0.1-1.1l-0.1-1.2l-0.1-1.2l-0.1-1.3l-0.1-1.3l-0.1-1.4L59.6,96l-0.1-1.5l-0.1-1.5l-0.1-2.3
	l-0.1-3.2l-0.1-3.4L59,80.7l-0.1-3.6l-0.1-3.6l-0.1-3.7l-0.2-5.6l-0.3-7.6l-0.2-5.6l-0.2-3.7l-0.2-3.7L57.4,40l-0.2-3.5l-0.2-3.4
	L57,30.7l-0.1-1.6l-0.1-1.5L56.7,26l-0.1-1.5l-0.1-1.4l-0.1-1.4l-0.1-1.3l-0.1-1.3l-0.1-1.2L56,16.7l-0.1-1.1l-0.1-1.1l-0.1-1
	l-0.1-0.9l-0.1-0.9l0-0.4l0,0c-0.1-0.8-0.7-1.7-1.4-2C53.5,9.1,53,9.5,53.1,10.3L53.1,10.3"/>
<path d="M0.5,199.7l0.1,0.5l-0.1,0.8l-0.1,0.8l0,0.8l0,0.9l0.1,0.9l0.1,1l0.2,1l0.3,1.1l0.4,1.2l0.7,1.3l0.7,1l0.5,0.7l0.5,0.5
	l0.5,0.5l0.6,0.4l0.6,0.4l0.6,0.3l0.6,0.3l0.6,0.3l0.7,0.2l0.4,0.1l0,0c0,0,0,0,0,0l0,0l0.2,0.1l0.4,0.1l0.5,0.1l0.5,0.1l0.6,0.1
	l0.6,0.1l0.7,0.1l0.7,0.1l0.8,0.1l0.8,0.1l0.9,0.1l0.9,0.1l1,0.2l1,0.2l1,0.2l1.1,0.2l1.1,0.2l1.2,0.2l1.2,0.2l1.3,0.2l1.3,0.2
	l1.3,0.3l1.4,0.3l1.4,0.3l1.4,0.3l1.5,0.3l2.3,0.4l3.1,0.6l3.2,0.6l3.4,0.6l3.5,0.6l3.6,0.7l3.7,0.7l3.8,0.7l3.8,0.8l3.9,0.8l4,0.8
	l4,0.8l4.1,0.7l6.1,1.1l8.3,1.4l8.3,1.4l8.4,1.3l6.2,1l4.1,0.6l4.1,0.6l4.1,0.6l4,0.6l4,0.6l3.9,0.5l3.8,0.5l3.8,0.5l3.7,0.5
	l3.6,0.4l3.5,0.4l3.4,0.4l3.3,0.4l2.4,0.3l1.6,0.2l1.5,0.2l1.5,0.2l1.5,0.2l1.4,0.2l1.4,0.2l1.4,0.2l1.3,0.2l1.3,0.2l1.3,0.2
	l1.2,0.1l1.2,0.1l1.1,0.1l1.1,0.1l1.1,0.1l1,0.1l1,0.1l0.9,0.1l0.9,0.1l0.8,0l0.8,0l0.7,0l0.7,0l0.6,0l0.6,0l0.5,0l0.5-0.1l0.4-0.1
	l0.4-0.1l0.4-0.1l0.3-0.1l0.2-0.1l0,0c0,0,0,0,0,0l0,0l0.3-0.2l0.5-0.5l0.5-0.5l0.5-0.6l0.5-0.7l0.5-0.7l0.5-0.8l0.5-0.8l0.5-0.9
	l0.5-0.9l0.5-0.9l0.5-1l0.5-1l0.5-1l0.8-1.6l1.1-2.2l1.1-2.3l1.2-2.4l1.2-2.5l1.2-2.5l1.2-2.6l1.2-2.6l1.2-2.7l1.7-4.1l1.7-4.1
	l1.1-2.7l1.1-2.6l1-2.6l1-2.5l1-2.4l0.9-2.3l0.6-1.7l0.4-1.1l0.4-1.1l0.4-1.1l0.3-1l0.3-1l0.3-1l0.3-0.9l0.3-0.9l0.3-0.8l0.3-0.8
	l0.3-0.7l0.2-0.7l0.2-0.6l0.1-0.3l0,0l0.1-0.4l0.3-0.8l0.3-0.9l0.4-0.9l0.4-0.9l0.4-1l0.4-1l0.4-1l0.7-1.6l0.9-2.2l0.9-2.3l0.9-2.3
	l0.9-2.4l0.9-2.4l0.8-2.4l0.8-2.4l0.5-1.8l0.3-1.2l0.3-1.1l0.3-1.1l0.2-1.1l0.2-1.1l0.2-1.1l0.1-1l0.1-0.5l0,0c0,0,0,0,0,0l0,0
	l0-0.2l0-0.6l0-0.6l-0.1-0.6l-0.1-0.8l-0.3-1l-0.3-1l-0.3-0.8l-0.3-0.7l-0.2-0.6l0-0.2l0,0c-0.2-1-1-1.9-1.7-2.1
	c-0.7-0.2-1.1,0.4-0.9,1.4l0,0l0.1,0.6l0.3,1l0.3,0.8l0.3,0.7l0.2,0.6l0.2,0.6l0.1,0.4l0,0.3l0,0.3l0,0.4l0,0.2l0,0l0,0.5l-0.1,1
	l-0.2,1l-0.2,1l-0.2,1.1l-0.2,1.1l-0.3,1.1l-0.3,1.1l-0.5,1.7l-0.7,2.3l-0.8,2.4l-0.8,2.4l-0.9,2.4l-0.9,2.3l-0.9,2.3l-0.9,2.2
	l-0.7,1.6l-0.4,1l-0.4,1l-0.4,1l-0.4,0.9l-0.4,0.9l-0.4,0.8l-0.4,0.8l-0.2,0.4l0,0l0,0l0,0l-0.1,0.3l-0.3,0.6l-0.3,0.7l-0.3,0.7
	l-0.3,0.8l-0.3,0.8l-0.3,0.8l-0.4,0.9l-0.4,0.9l-0.4,1l-0.4,1l-0.4,1l-0.4,1.1l-0.4,1.1l-0.6,1.8l-0.8,2.5l-0.8,2.6l-0.9,2.6
	l-0.9,2.7l-0.9,2.8l-1,2.8l-1.5,4.2l-1.5,4.2l-1.1,2.8l-1.1,2.8l-1.1,2.7l-1.1,2.6l-1.1,2.6l-1.1,2.4l-1.2,2.3l-1.2,2.1l-0.9,1.5
	l-0.6,0.9l-0.6,0.9l-0.6,0.8l-0.6,0.8l-0.6,0.7l-0.6,0.7l-0.6,0.6l-0.6,0.6l-0.6,0.5l-0.6,0.5l-0.6,0.4l-0.5,0.4l-0.5,0.3l-0.3,0.2
	l0,0l0,0l-0.2,0.1l-0.2,0.1l-0.3,0.1l-0.4,0.1l-0.4,0.1l-0.5,0l-0.5,0l-0.6,0l-0.7,0l-0.7,0l-0.8,0l-0.8,0l-0.8,0l-0.9,0l-0.9,0
	l-1,0l-1,0l-1.1,0l-1.1,0l-1.2-0.1l-1.2-0.1l-1.2-0.1l-1.3-0.1l-1.3-0.1l-1.3-0.1l-1.4-0.1l-1.4-0.1l-1.5-0.1l-1.5-0.2l-1.5-0.2
	l-1.6-0.2l-2.4-0.3l-3.3-0.5l-3.4-0.5l-3.5-0.5l-3.6-0.5l-3.7-0.6l-3.8-0.6l-3.8-0.6l-3.9-0.6l-4-0.6l-4-0.6l-4.1-0.6L120,231
	l-4.1-0.7l-6.2-1l-8.4-1.4l-8.4-1.4l-8.3-1.4l-6.1-1l-4-0.7l-4-0.6l-3.9-0.6l-3.9-0.6l-3.8-0.6l-3.7-0.6l-3.6-0.6l-3.6-0.6l-3.5-0.6
	l-3.4-0.6l-3.2-0.6l-3.1-0.6l-2.3-0.5l-1.5-0.3l-1.4-0.3l-1.4-0.3l-1.4-0.3l-1.3-0.3l-1.3-0.3l-1.3-0.3l-1.2-0.3l-1.2-0.3l-1.1-0.3
	l-1.1-0.3l-1.1-0.3l-1-0.3l-1-0.3l-0.9-0.3l-0.9-0.3l-0.8-0.2l-0.8-0.2l-0.7-0.2l-0.7-0.2l-0.6-0.2l-0.6-0.2l-0.5-0.2L8.2,210
	l-0.4-0.1l-0.2-0.1l0,0l-0.3-0.1l-0.5-0.2l-0.4-0.2l-0.4-0.2l-0.3-0.2l-0.2-0.2l-0.2-0.1l-0.1-0.1l-0.1-0.1l0,0l0,0L5,208.4
	l-0.1-0.3l-0.1-0.4L4.7,207l-0.1-0.7l-0.1-0.8l-0.1-0.9l-0.1-1L4,202.4l-0.3-1.1l-0.1-0.5c-0.2-1.1-1-2.3-1.9-2.6
	C0.8,197.9,0.3,198.6,0.5,199.7L0.5,199.7"/>
<path d="M199.1,240.4L199,240l-0.2-0.9l-0.3-1.3l-0.5-1.6l-0.5-1.2l-0.4-0.8l-0.2-0.4l0,0c0-0.1-0.1-0.1-0.1-0.2
	c-0.1,0-0.1,0-0.1,0.1l0,0l-0.1,0.3l-0.2,0.7l-0.1,1.1l0,1.4l0,1l0,0.6l0,0.4l0,0c0.1,0.9,0.7,2,1.4,2.4
	C198.6,241.8,199.2,241.3,199.1,240.4L199.1,240.4"/>
<path d="M71.8,205.8l1.5,0.1l2.9,0.3l2.9,0.4l2.8,0.4l2.8,0.5l2.8,0.5l4.2,0.8l5.6,1.2l5.6,1.2l4.3,0.9l2.9,0.6l2.9,0.5l2.9,0.5
	l1.5,0.2l0,0c0.2,0,0.3-0.2,0.2-0.5c-0.1-0.3-0.4-0.6-0.6-0.7l0,0l-1.5-0.3l-2.9-0.6l-2.9-0.7l-2.9-0.7l-4.3-1.1l-5.8-1.6l-5.8-1.6
	l-4.3-1.2l-2.9-0.7l-2.9-0.7l-2.9-0.6l-3-0.5l-3-0.4l-1.5-0.2c-0.8-0.1-1.1,0.8-0.8,2C70.1,204.7,71,205.7,71.8,205.8L71.8,205.8"/>
<path d="M71.2,204.6l0.1-0.5l0.2-0.9l0.3-1.3l0.3-1.7l0.3-1.6l0.3-1.5l0.2-1.4l0.2-1.3l0.2-1.2l0.2-1.1l0.2-1l0.2-0.9l0.2-0.8
	l0.3-0.7l0.3-0.6l0.3-0.5l0.3-0.4l0.2-0.1l0,0l0.1-0.1l0.3-0.1l0.4-0.1l0.5-0.1l0.5-0.1l0.6-0.1l0.7,0l0.7,0l0.8,0l0.8,0l0.9,0.1
	l0.9,0.1l1.4,0.2l1.9,0.3l2,0.3l1.9,0.4l1.9,0.4l1.4,0.3l0.9,0.2l0.8,0.2l0.8,0.2l0.8,0.2l0.7,0.1l0.6,0.1l0.6,0.1l0.5,0.1l0.5,0.1
	l0.2,0l0,0h0l0,0l0.1,0l0.3,0l0.4,0.1l0.5,0.1l0.6,0.1l0.6,0.1l0.7,0.1l0.7,0.1l0.8,0.1l0.8,0.1l1.3,0.2l1.8,0.3l1.8,0.3l1.8,0.4
	l1.8,0.4l1.7,0.4l1.2,0.3l0.7,0.2l0.7,0.2l0.6,0.2l0.5,0.2l0.5,0.2l0.4,0.2l0.3,0.2l0.2,0.1l-0.1,0l-0.3-0.3l-0.1-0.3l0.1,0.2l0,0.3
	l0,0.3l0,0.4l0,0.4l0,0.5l-0.1,0.5l-0.1,0.5l-0.2,0.9l-0.3,1.2l-0.3,1.3l-0.3,1.3l-0.6,2.1l-0.6,2.1l-0.3,1.4l-0.3,1.3l-0.2,0.9
	l-0.1,0.6l-0.1,0.6l0,0.6l0,0.6l0,0.5l0,0.3l0,0c0,0.5,0.3,1.2,0.8,1.6c0.5,0.4,0.9,0.2,0.9-0.3l0.1-0.1l0.1-0.3l0.2-0.4l0.2-0.4
	l0.2-0.5l0.2-0.5l0.2-0.9l0.4-1.2l0.3-1.3l0.5-2.2l0.5-2.2l0.3-1.5l0.2-1.5l0.1-1.4l0.1-1l0-0.7l0-0.7l0-0.6l-0.1-0.6l-0.1-0.6
	l-0.2-0.6l-0.2-0.6l-0.1-0.2l0,0c0-0.1-0.1-0.2-0.1-0.3l0,0l-0.3-0.5l-0.4-0.3l-0.4-0.2l-0.4-0.2l-0.5-0.2l-0.5-0.2l-0.6-0.2
	l-0.6-0.2l-0.7-0.2l-0.7-0.2l-1.2-0.3l-1.7-0.5l-1.8-0.4l-1.8-0.4l-1.8-0.4l-1.8-0.4l-1.3-0.3l-0.8-0.2l-0.8-0.2l-0.7-0.1l-0.7-0.1
	l-0.6-0.1l-0.6-0.1l-0.5-0.1l-0.4-0.1l-0.3,0l-0.1,0h0l-0.2,0l-0.4-0.1l-0.5-0.1l-0.6-0.1l-0.6-0.1l-0.7-0.1l-0.7-0.1l-0.8-0.1
	l-0.8-0.1l-0.9-0.1l-1.3-0.2l-1.9-0.3l-1.9-0.2l-1.9-0.2l-1.9-0.2L82,185l-0.9-0.1l-0.9-0.1l-0.8-0.1l-0.8-0.1l-0.8-0.1l-0.7,0
	l-0.7,0l-0.6,0l-0.5,0.1l-0.5,0.1l-0.4,0.1l-0.1,0.1l0,0c0,0,0,0,0,0l0,0l-0.3,0.2l-0.5,0.4l-0.4,0.5l-0.4,0.6l-0.3,0.7l-0.3,0.8
	l-0.3,0.9l-0.3,1l-0.3,1l-0.3,1.1l-0.3,1.2l-0.3,1.3l-0.4,1.4l-0.4,1.5l-0.4,1.6l-0.4,1.2l-0.3,0.9l-0.1,0.4c-0.2,0.8,0.3,2.2,1.1,3
	C70.1,205.4,70.9,205.4,71.2,204.6L71.2,204.6"/>
<path d="M65,139.1l4.4,1.1l8.6,1.6l8.6,1.3l8.6,1.1l8.6,1l8.6,0.9l12.8,1.2l17.1,1.4l17,1.3l12.8,1l8.5,0.6l8.5,0.6l8.4,0.7l4.2,0.3
	l0,0c0,0,0,0,0-0.1s0-0.1-0.1-0.1l-4.3-0.7l-8.6-1.3l-8.6-1.2l-8.6-1.1l-13-1.6l-17.3-2l-17.2-1.9l-12.9-1.4l-8.6-0.9l-8.5-0.9
	l-8.5-0.9l-8.4-0.9l-8.4-0.7l-4.1-0.1c-0.4-0.1-0.5,0.3-0.4,0.9S64.6,139,65,139.1L65,139.1"/>
<path d="M58.8,151.6l4.2,1.1l8.3,1.6l8.3,1.4l8.2,1.2L96,158l8.2,1l12.3,1.4l16.4,1.7l12.3,1.3l8.2,0.8l8.1,0.8l8.1,0.8l8.1,0.9
	l8,0.8l4,0.3l0,0c0,0,0,0,0-0.1s0-0.1-0.1-0.1l-4.2-1l-8.3-1.7l-8.3-1.5l-8.3-1.3l-8.3-1.2l-8.3-1.2l-12.4-1.6l-16.5-2l-12.3-1.5
	l-8.2-1l-8.2-0.9l-8.1-0.9l-8.1-0.8l-8-0.7l-3.9-0.2l0,0c-0.3,0-0.4,0.2-0.3,0.6C58.3,151.2,58.6,151.6,58.8,151.6L58.8,151.6"/>
<path d="M56,164.9l3.9,0.8l7.7,1.2l7.6,0.9l7.5,0.8l7.5,0.8l7.5,0.8l7.5,0.9l7.5,0.9l7.5,0.9l7.5,1l7.5,1.1l7.5,1.2l7.5,1.2l7.5,1.2
	l7.4,1.1l7.3,0.8l3.5-0.2l0,0c0.1,0,0.2-0.1,0.1-0.2c0-0.2-0.2-0.3-0.3-0.3l-4-1.5l-7.6-1.8l-7.5-1.4l-7.5-1.2l-7.5-1.2l-7.5-1.1
	l-7.5-1.1l-7.5-1.2l-7.6-1.2l-7.6-1.1l-7.6-1.1l-7.6-1.1l-7.6-1l-7.6-0.9l-7.5-0.7l-7.4-0.4l-3.7,0l0,0c-0.6-0.1-0.9,0.6-0.6,1.5
	C54.7,164,55.4,164.8,56,164.9L56,164.9"/>
<path d="M134.6,83.7l0.3-0.3l0.2-0.9l0.1-1l-0.1-1l-0.2-1l-0.3-1l-0.4-1l-0.5-1l-0.3-0.6l0,0c0,0,0,0,0,0l0,0l-0.4-0.7l-0.8-1.4
	l-0.8-1.4l-0.8-1.4l-0.7-1.4l-0.7-1.4l-0.7-1.3l-0.6-1.3l-0.5-1.3l-0.4-1.2l-0.2-0.9l-0.1-0.6l-0.1-0.6l0-0.6v-0.6l0-0.6l0.1-0.6
	l0.1-0.7l0.2-0.7l0.2-0.7l0.3-0.7l0.3-0.7l0.2-0.3l0,0l0.3-0.5l0.6-0.8l0.7-0.8l0.8-0.8l0.8-0.7l0.9-0.7l1-0.7l1-0.6l1.1-0.6
	l1.1-0.5l1.2-0.5l1.2-0.4l1.2-0.3l1.2-0.3l1.3-0.2l1.3-0.2l1.3-0.1l1.2,0l1.2,0l1.2,0.1l1.2,0.2l1.2,0.2l1.1,0.3l1.1,0.4l1,0.4
	l0.9,0.5l0.9,0.5l0.6,0.4l0.3,0.3l0.3,0.3l0.3,0.3l0.3,0.3l0.3,0.3l0.2,0.4l0.2,0.4l0.2,0.4l0.2,0.4l0.1,0.2l0-0.1l0.2,0.6l0.3,1
	l0.2,0.9l0.1,0.9l0.1,0.9l0,0.9l-0.1,0.9l-0.1,1l-0.2,1l-0.3,1l-0.3,1l-0.4,1l-0.4,1l-0.5,1l-0.8,1.4l-1.2,1.9l-1.2,1.9l-1.2,1.9
	l-1.2,1.9l-0.8,1.5l-0.5,1l-0.5,1l-0.4,1l-0.4,1.1l-0.3,1.1l-0.2,1.1l-0.2,1.1l-0.1,0.6l0,0c0,0.3,0.1,0.6,0.4,0.8
	c0.2,0.2,0.5,0.1,0.5-0.1l0.1-0.5l0.2-1l0.3-1l0.4-1l0.4-0.9l0.5-0.9l0.5-0.9l0.6-0.9l0.9-1.4l1.3-1.8l1.3-1.8l1.3-1.8l1.3-1.8
	l0.9-1.4l0.5-0.9l0.5-1l0.5-1l0.4-1l0.3-1l0.3-1.1l0.2-1.1l0.1-1.2l0-1.2l-0.1-1.3l-0.2-1.3l-0.3-1.4l-0.5-1.3l-0.2-0.6l0,0
	c0,0,0-0.1,0-0.1l0,0l-0.2-0.4l-0.3-0.7l-0.4-0.7l-0.4-0.6l-0.4-0.6l-0.5-0.6l-0.5-0.5l-0.5-0.5l-0.5-0.5l-0.5-0.5l-0.8-0.6
	l-1.1-0.7l-1.1-0.6l-1.2-0.5l-1.2-0.4l-1.2-0.3l-1.3-0.3l-1.3-0.2l-1.3-0.1l-1.3,0l-1.3,0l-1.3,0.1l-1.3,0.2l-1.3,0.2l-1.3,0.3
	l-1.3,0.3l-1.3,0.4l-1.2,0.5l-1.2,0.5l-1.2,0.6l-1.1,0.6l-1,0.7l-1,0.7l-0.9,0.8l-0.8,0.8l-0.8,0.9l-0.7,0.9l-0.3,0.5l0,0
	c0,0,0,0,0,0l0,0l-0.2,0.4l-0.4,0.8l-0.3,0.8l-0.3,0.8l-0.2,0.8l-0.2,0.9l-0.1,0.9l-0.1,0.9l0,0.9l0.1,0.9l0.1,0.9l0.2,0.9l0.3,1.4
	l0.6,1.7l0.7,1.7l0.8,1.6l0.9,1.6l0.9,1.5l1,1.4l1,1.4l0.9,1.3l0.9,1.3l0.4,0.6l0,0l0.2,0.3l0.4,0.6l0.3,0.6l0.2,0.7l0.2,0.7
	l0.1,0.8l0.1,0.9l0,1l0.1,0.6c0,0.2,0.1,0.6,0.3,0.8C134.3,84,134.5,83.9,134.6,83.7L134.6,83.7"/>
<path d="M135,84.5l0.9,0l1.7,0l2.6,0l2.6,0.1l1.8,0.3l1.8,0.1l1.7-0.1l0.8-0.4l0,0c0.1,0,0.1-0.1,0.1-0.3c-0.1-0.2-0.2-0.3-0.3-0.3
	l0,0l-1-0.3l-1.8-0.1l-1.8,0l-1.7,0l-2.8-0.4l-2.8-0.5l-1.8-0.2l-0.9,0l0,0c-0.4,0-0.5,0.5-0.3,1C134.1,84,134.6,84.5,135,84.5
	L135,84.5"/>
<path d="M134.8,86.2l1.8,0.3l3.5,0.4l2.6,0.2l1.7,0.1l1.6,0.1l1.6-0.1l0.8-0.1l0,0c0,0,0,0,0,0c0,0,0,0,0,0l-0.9-0.6l-1.9-0.8
	l-1.8-0.5l-1.8-0.3l-2.6-0.2l-3.4,0.1l-1.7,0.1l0,0c-0.3,0-0.4,0.3-0.2,0.7C134.3,85.9,134.6,86.2,134.8,86.2L134.8,86.2"/>
<path d="M135,89.4l0.8,0.1l1.7,0.2l2.4,0.1l3-0.2l3-0.1l1.5,0l0,0c0.3,0,0.4-0.3,0.3-0.7c-0.1-0.4-0.4-0.7-0.7-0.8l-1.6-0.3
	l-3.3-0.5l-3.3-0.4l-2.4,0l-1.5,0.2l-0.8,0.1l0,0c-0.4,0-0.5,0.5-0.3,1.1S134.6,89.4,135,89.4L135,89.4"/>
<path d="M134.8,91.4l0.7,0.2L137,92l1.5,0.2l1.4,0.1l1.3-0.2l1.2-0.5l1.3-0.5l1.3-0.4l0.7-0.2l0,0c0,0,0,0,0-0.1
	c0,0-0.1-0.1-0.1-0.1l-0.7,0.1l-1.4,0.1l-1.5-0.1l-1.5-0.3l-1.4-0.1l-1.4,0l-1.3,0l-1.3,0l-0.7,0c-0.3-0.1-0.4,0.2-0.3,0.6
	C134.2,91,134.5,91.4,134.8,91.4L134.8,91.4"/>
<path d="M138.9,97.2l1.4,0.1l2.6-0.5l1.1-0.9l0,0c0.2,0,0.3-0.3,0.2-0.7c-0.1-0.4-0.4-0.7-0.7-0.7l0,0l-1.7-0.9l-2.9-0.6l-1.4,0l0,0
	c-0.8,0-1.1,0.9-0.7,2C137.2,96.3,138.2,97.2,138.9,97.2L138.9,97.2"/>
<path d="M141.3,83.2l0.1-0.4l0.2-0.9l0.1-0.9l0-1l-0.2-1.5l-0.3-1.9l-0.1-0.9l0,0c0-0.1,0-0.2-0.1-0.2c-0.1,0-0.1,0-0.1,0.1
	l-0.1,0.8l-0.1,1.6l-0.1,1.2l-0.1,0.8l-0.1,0.8l-0.1,0.9l-0.1,0.5l0,0c-0.1,0.3,0.1,0.8,0.4,1C140.9,83.6,141.2,83.5,141.3,83.2
	L141.3,83.2"/>
<path d="M143.6,83.6l0.2-0.9l0.5-1.8l0.5-1.8l0.4-2l0.1-1.1l0,0c0-0.1,0-0.3-0.2-0.5c-0.1-0.1-0.3-0.1-0.3,0l-0.5,0.7l-0.8,1.6
	l-0.5,1.8l-0.4,1.9l-0.1,1l0,0c-0.1,0.4,0.2,0.9,0.5,1.2C143.2,84,143.5,84,143.6,83.6L143.6,83.6"/>
<path d="M138.3,75.5L138.3,75.5l0.1-0.2l-0.2-0.4l-0.3-0.7l0.2-0.1l0.3-0.1l0.3-0.1l0.3-0.1l0.3-0.1l0.3,0l0.4,0l0.4,0.1l0.3,0.1
	L141,74l0.2,0.1l0.2,0.1l0.3,0.1l0.3,0.2l0.3,0.2l0.3,0.2l0.1,0.1l0,0l0.3,0.2l0.4,0.3l0.2,0.2l0.1,0.1l0,0l0,0l0,0l0,0.1l-0.1,0.1
	l-0.1,0.2l-0.2,0.2l-0.2,0.2l-0.2,0.1l-0.2,0.1l-0.3,0.1l-0.3,0.1l-0.3,0l-0.3,0l-0.2,0L141,77l-0.1-0.1l0,0L141,77l0.1,0.2l0.1,0.1
	l0-0.1l0.1-0.2l0.1-0.3l0.2-0.4l0.3-0.5l0.3-0.4l0.2-0.3l0.3-0.3l0.3-0.3l0.2-0.2l0,0l0.2-0.2l0.5-0.4l0.5-0.3l0.5-0.3l0.5-0.2
	l0.5-0.2l0.5-0.1l0.5,0l0.5,0l0.4,0.1l0.4,0.1l0.4,0.2l0.3,0.2l0.2,0.2l0.2,0.1l0.3,0.2l0.2,0.1l0,0c0.1,0.2,0.2,0.3,0.4,0.3
	c0.1,0,0.1-0.2,0-0.4l-0.1-0.4l-0.3-0.8l-0.5-0.7l-0.6-0.5l-0.6-0.3l-0.6-0.2l-0.6-0.1l-0.6-0.1l-0.6,0l-0.6,0.1l-0.6,0.1l-0.6,0.2
	l-0.6,0.3l-0.5,0.3l-0.5,0.4l-0.5,0.4l-0.2,0.2l0,0c0,0,0,0,0,0l0,0l-0.2,0.2l-0.3,0.3l-0.3,0.3l-0.3,0.3l-0.3,0.4l-0.4,0.5
	l-0.3,0.5l-0.2,0.5l-0.1,0.5l0,0.6l0.2,0.7l0.3,0.6l0.4,0.4l0.4,0.3l0.3,0.2l0.3,0.1l0.3,0.1l0.4,0l0.4,0l0.4-0.1l0.3-0.1l0.3-0.1
	l0.3-0.2l0.3-0.2l0.3-0.3l0.2-0.3l0.2-0.4l0.1-0.5l0-0.6l-0.2-0.7l-0.3-0.7l-0.4-0.6l-0.5-0.5l-0.5-0.5l-0.3-0.2l0,0c0,0,0,0,0,0
	l0,0l-0.2-0.2l-0.4-0.3l-0.4-0.2l-0.4-0.2l-0.4-0.2l-0.3-0.1l-0.3-0.1l-0.3-0.1l-0.4,0l-0.5,0.1l-0.4,0.2l-0.3,0.2l-0.3,0.3
	l-0.2,0.4l-0.1,0.4l-0.1,0.4l0,0.4l-0.5-0.2l-0.3,0l-0.1,0.2l0,0.1c-0.1,0.4,0.2,1,0.5,1.3C137.9,75.9,138.2,75.9,138.3,75.5
	L138.3,75.5"/>
<path d="M124.5,36.6l0.3,0.5l0.7,1l1.2,1.3l1.7,1.2l1.1,1l0.7,0.7l0.4,0.3l0,0c0.1,0.1,0.2,0.1,0.2,0.1c0-0.1,0-0.2-0.1-0.3l0,0
	l-0.3-0.6l-0.7-1l-1.1-1.4l-1.4-1.9l-1-1.2l-0.7-0.6l-0.4-0.3c-0.4-0.5-1-0.7-1.2-0.3C123.9,35.4,124.1,36.1,124.5,36.6L124.5,36.6"
	/>
<path d="M164.4,34.1l-0.4,0.1l-0.7,0.3l-0.7,0.4l-0.6,0.4l-0.5,0.5l-0.5,0.6l-0.6,0.9l-0.6,1.4l-0.7,1.3l-0.7,1.2l-0.7,1.3l-0.3,0.7
	l0,0c0,0.1,0,0.2,0,0.3c0.1,0.1,0.2,0.1,0.2,0.1l0,0l0.6-0.3l1-0.9l0.9-1l0.9-0.9l1-0.7l0.8-0.6l0.5-0.4l0.5-0.5l0.5-0.5l0.5-0.5
	l0.5-0.6l0.3-0.3l0,0c0.3-0.2,0.3-0.9,0-1.5C165.3,34.2,164.8,33.9,164.4,34.1L164.4,34.1"/>
<path d="M141.8,24.7l0,0.9l0,1.9l0,2.9l0.2,4.1l0.2,4.2l0.1,2.1l0,0c0,0.2,0.1,0.4,0.2,0.5c0.1,0.1,0.3,0.1,0.3-0.1l0,0l0.4-1.7
	l0.9-3.5l0.7-3.6l0.2-2.9l0-2l0-1c0-1-0.7-2.3-1.6-2.9C142.4,23.2,141.7,23.6,141.8,24.7L141.8,24.7"/>
</svg>
