<?xml version="1.0" encoding="UTF-8"?>
<svg width="300px" height="300px" viewBox="0 0 300 300" version="1.1" xmlns="http://www.w3.org/2000/svg" xmlns:xlink="http://www.w3.org/1999/xlink">
    <!-- Generator: Sketch 49 (51002) - http://www.bohemiancoding.com/sketch -->
    <title>Group 20</title>
    <desc>Created with Sketch.</desc>
    <defs></defs>
    <g id="visuals" stroke="none" stroke-width="1" fill="none" fill-rule="evenodd">
        <g id="Home" transform="translate(-972.000000, -2338.000000)">
            <g id="Group-11" transform="translate(348.000000, 2338.000000)">
                <g id="Group-20" transform="translate(624.000000, 0.000000)">
                    <path d="M285.484676,21.430654 C291.478833,22.5854263 294.791393,26.4115927 295.422357,32.9154463 C295.737839,35.5364961 295.002766,37.8460406 293.213983,39.8377868 C291.428356,41.9365146 289.062241,43.037796 286.11564,43.1416311 C278.439964,43.456283 271.972584,43.3524479 266.716655,42.8269793 C239.582053,40.2059294 211.24231,39.0511572 181.694271,39.365809 L154.405083,39.365809 C150.830673,39.365809 148.884149,39.6269701 148.568667,40.1524386 C147.937703,40.7817423 147.988181,42.8269793 148.726408,46.2881496 L149.04189,49.1200161 L150.303818,50.6932754 C153.039046,50.7971105 155.405161,49.3811772 157.402162,46.4454755 C158.771353,44.5575644 160.083758,44.3467477 161.345686,45.8161718 C163.131314,47.7040828 162.661246,49.173507 159.926017,50.2212976 C155.405161,51.5868866 151.777119,54.4156066 149.04189,58.7168973 C147.571744,61.0232953 145.678853,65.4284211 143.363215,71.9322747 C145.571589,71.0921543 149.726486,68.6787747 155.824752,64.6952823 C160.872463,61.4449288 165.446951,59.346201 169.548217,58.4022455 C167.655325,61.0232953 165.185101,63.2258582 162.134391,65.0099342 C160.348763,66.0577248 157.982648,67.4233138 155.036047,69.1004081 C149.988336,72.0392563 145.994335,75.2896099 143.047733,78.8546152 C140.735251,81.2679949 139.26195,82.7342725 138.630986,83.259741 C136.949467,84.62533 135.056576,85.5157947 132.952311,85.9342817 C131.583119,86.0381168 129.639751,87.1393983 127.115895,89.238126 C110.288088,104.130598 89.677653,106.91212 65.2782795,97.5763999 C50.6620011,92.2273185 42.0398796,80.7425263 39.4087602,63.1220231 C37.4117595,48.3333865 40.4088379,35.1180092 48.4031504,23.475891 C56.290199,12.0445896 67.278435,4.70376207 81.3710134,1.45026202 C95.775919,-1.90392662 108.291088,0.559797305 118.91021,8.84458032 C127.220004,15.1376172 136.946313,18.2841356 148.09229,18.2841356 C152.404928,18.1803005 158.610458,18.3376264 166.705724,18.7561133 C175.223737,19.1746003 181.37248,19.385417 185.161418,19.385417 C188.212128,19.385417 190.420502,18.9134393 191.789694,17.9694837 C193.367103,17.0255282 194.259917,15.0841263 194.47129,12.1484247 C195.102254,10.0496969 195.468213,8.52992847 195.575477,7.58597295 C195.78685,5.27957494 195.998223,3.75666002 196.206441,3.02352123 C196.629187,1.55724365 197.679741,0.77061404 199.36126,0.663632413 C203.569789,-0.0695063793 206.778241,1.13561018 208.983459,4.2821286 C211.930061,8.47643766 213.400207,11.6764469 213.400207,13.8790098 C213.400207,16.3962245 214.13528,18.0733189 215.60858,18.9134393 C216.763244,19.6465781 218.605659,19.9077391 221.129514,19.7000689 C240.585286,19.5962338 255.201564,19.385417 264.978349,19.0707652 C269.60647,18.9669301 276.442963,19.7535597 285.484676,21.430654 Z M262.454494,25.2064761 C258.984193,25.2064761 253.936481,25.3103112 247.311361,25.521128 C241.20994,25.521128 232.010486,25.6249631 219.706691,25.8357798 C208.980305,25.8357798 199.88496,25.521128 192.417503,24.8918243 C186.953355,24.3663557 178.432188,24.1051947 166.863465,24.1051947 C155.402006,24.1051947 146.461248,23.737052 140.0475,23.0039132 C141.62491,26.6759002 142.994101,29.193115 144.148765,30.5555574 C145.830284,32.1288167 148.145922,32.9154463 151.089368,32.9154463 C169.175948,33.126263 196.468291,33.7555667 232.956932,34.8033573 C242.102754,35.1180092 248.939248,35.5364961 253.463259,36.0619647 C263.347308,37.320572 271.761211,37.6352239 278.701814,37.0059202 C281.014297,37.2135904 282.69897,37.2135904 283.749525,37.0059202 C285.749681,36.5874333 286.800236,35.5364961 286.904345,33.8594018 C287.008454,30.9205536 284.484598,28.8784631 279.335933,27.7236909 L277.2853,27.2517131 C273.184035,25.8892706 268.240433,25.2064761 262.454494,25.2064761 Z M202.358339,9.15923216 C201.307784,9.89237095 200.623188,10.9936524 200.307706,12.4630765 C200.203597,13.3031969 200.099488,14.5618043 199.992224,16.2388986 C199.36126,18.4414615 200.045856,19.5962338 202.042857,19.7000689 C204.355339,19.7000689 205.986381,19.4892521 206.932827,19.0707652 C208.406127,18.1268097 208.456605,16.7108764 207.090568,14.8229653 C206.355495,13.3566877 205.882272,12.2019155 205.670899,11.3617951 C204.828562,9.99935258 203.724375,9.26306727 202.358339,9.15923216 Z M160.869308,87.8221928 C159.399162,88.976965 157.08668,90.6540593 153.93186,92.8566222 L139.574277,103.554785 C140.30935,105.861183 141.732174,107.645259 143.836438,108.903866 C146.256185,110.370144 148.199553,111.106429 149.672854,111.106429 C151.777119,111.317246 153.774119,110.477125 155.667011,108.589214 C161.449795,102.714664 167.289366,98.7311721 173.176259,96.6324443 C171.807067,99.5712925 168.866776,102.506994 164.342764,105.442696 C159.506426,108.693049 156.351607,111.474572 154.878306,113.78097 C159.08368,117.24214 163.080837,117.24214 166.86662,113.78097 L182.640717,100.722918 C182.432499,102.925481 181.432421,105.024209 179.643639,107.015955 C177.646638,109.637005 176.435187,111.474572 176.018751,112.522362 C177.804379,112.311546 179.593162,111.578407 181.378789,110.319799 C183.274836,109.165027 184.694505,108.221072 185.64095,107.487933 C195.840482,100.147105 203.72753,95.0056943 209.302096,92.0699926 C212.876507,89.9712648 216.296331,89.4992871 219.555259,90.6540593 C225.546261,92.5419704 229.912532,97.000587 232.644605,104.026763 C235.483943,111.263755 235.275725,117.503301 232.016796,122.748547 C229.177459,127.257508 224.86482,132.084267 219.078882,137.222532 C215.819953,140.054399 210.929983,144.355689 204.412126,150.123258 C203.885271,150.648726 199.941747,153.89908 192.581553,159.877465 C196.891037,160.610603 201.203675,159.509322 205.516313,156.57362 C212.03417,151.643026 215.349885,149.179302 215.453994,149.179302 C216.296331,150.960231 215.924062,152.586981 214.346652,154.056406 C212.769243,155.736646 212.03417,157.099089 212.138279,158.14688 C215.400362,158.039898 218.870664,155.944317 222.552338,151.853843 C226.653603,147.552552 230.070272,144.981846 232.805501,144.144873 C232.90961,146.558252 231.59405,148.918141 228.861977,151.224539 C225.811266,153.741754 224.129748,155.840482 223.811111,157.517576 C231.382677,157.936063 237.430466,156.048152 241.951322,151.853843 L245.579365,148.235346 C247.364993,146.976739 249.314671,146.715578 251.415781,147.448717 C250.99619,148.600343 249.838371,149.862097 247.945479,151.224539 C245.841215,152.797798 244.52881,154.213731 244.001955,155.472339 C249.365148,157.045598 253.466413,156.677455 256.302596,154.371057 L267.663101,146.032784 C268.082692,148.02453 267.558992,149.755115 266.085691,151.224539 C263.877318,153.323267 262.722654,154.581874 262.612235,155.000361 C263.13909,155.944317 263.874163,156.416294 264.820609,156.416294 C266.082536,156.208624 267.028982,156.101643 267.659946,156.101643 C273.44273,155.994661 276.862554,155.418848 277.913109,154.371057 C278.859555,153.216285 279.544151,149.597789 279.960587,143.515569 C280.591551,132.921241 280.17196,119.705864 278.701814,103.869437 C278.493596,99.045824 278.544073,95.5311629 278.859555,93.3286 C281.067929,82.7342725 282.172115,68.7857563 282.172115,51.479905 C282.172115,49.0665253 282.43712,47.4932661 282.96082,46.7601273 C284.118639,45.7123367 285.273303,45.344194 286.434276,45.6588459 C287.380722,46.1843144 288.011686,46.8639624 288.327168,47.7040828 C288.64265,48.2295514 288.800391,49.173507 288.800391,50.5359494 C288.589018,51.5837401 288.377645,57.8767769 288.169427,69.41506 C287.85079,77.0736858 287.276613,83.3667227 286.434276,88.2941705 C285.484676,93.5394167 285.222826,99.9362887 285.645572,107.487933 C285.961054,111.682242 286.380645,117.975279 286.904345,126.367043 C287.008454,129.095075 287.273458,133.132058 287.693049,138.481139 C287.797158,143.200917 287.484831,147.2379 286.746604,150.595235 C286.327013,152.586981 286.380645,154.056406 286.904345,155.000361 C287.746681,155.944317 289.324091,156.466639 291.636574,156.57362 C294.687284,156.57362 296.842026,157.202924 298.103954,158.461531 C299.053554,159.509322 299.681363,161.60805 300,164.754568 C300,167.69027 299.526777,170.522136 298.580331,173.250168 C297.425667,177.236807 296.371958,179.596696 295.425512,180.329834 C294.374957,181.169955 291.851101,181.641933 287.853945,181.745768 L216.712767,182.217745 C212.822875,182.217745 210.983615,184.159147 211.191833,188.038805 C211.191833,191.185323 211.034092,195.06498 210.721765,199.680923 L209.93306,211.323041 C209.93306,214.888046 209.614423,217.823748 208.983459,220.133292 C208.563868,222.43969 207.40605,223.909115 205.513158,224.538418 C204.462603,224.956905 202.620189,225.167722 199.992224,225.167722 C195.890959,225.063887 193.840326,222.703998 193.840326,218.088055 L194.158963,192.601256 C194.158963,187.98846 193.578476,185.049612 192.420657,183.791005 C191.054621,182.425416 188.111174,181.849603 183.587163,182.06042 C175.596005,182.26809 163.55406,182.847049 147.464481,183.791005 C145.571589,183.998675 144.256029,184.631125 143.520956,185.678916 C143.205474,186.308219 143.050888,187.670662 143.050888,189.76939 L143.36637,232.719366 C143.36637,237.857631 142.896302,241.740434 141.946701,244.361484 C141.104365,246.249395 139.899224,247.089516 138.321814,246.878699 C136.536186,246.564047 135.637062,245.358931 135.637062,243.260203 C135.637062,233.612977 135.848435,227.159468 136.268026,223.909115 C137.529954,214.154907 137.583586,203.088602 136.425767,190.713345 L135.637062,179.228553 C136.482554,172.517029 136.89899,167.429109 136.89899,163.967939 C136.89899,157.778737 135.059731,152.376165 131.378056,147.763369 C135.267949,148.918141 139.634219,150.909887 144.470557,153.741754 C149.830595,156.888272 153.512269,158.776183 155.512425,159.405487 L165.292365,163.495961 C170.551449,165.280037 175.491896,164.439916 180.120016,160.978746 C190.63503,153.530937 203.519312,143.097082 218.766554,129.670888 C223.394675,125.580414 226.073116,121.48994 226.811344,117.399466 C227.546417,113.519809 226.707235,109.272009 224.287488,104.656066 C220.605814,98.2591944 215.665367,96.6324443 209.459837,99.7789628 C203.781162,102.925481 197.998378,106.650959 192.10833,110.949103 C190.426812,112.311546 186.271914,114.82876 179.646794,118.500747 C171.655636,123.11669 163.926328,124.582967 156.458871,122.905873 C150.568823,121.543431 144.366448,118.08226 137.845436,112.522362 L131.693538,107.015955 C130.223392,107.330607 128.803724,108.170727 127.434532,109.53317 C126.592195,110.37329 125.437531,111.685388 123.964231,113.466318 C115.973073,122.380405 105.71991,127.049838 93.2047411,127.468325 C81.1091634,127.886812 70.4900412,124.268316 61.33791,116.612836 C58.0789816,114.095622 55.9210851,112.733179 54.8705302,112.522362 C53.7158663,112.522362 51.4538608,113.834461 48.0876684,116.45551 L39.7305518,123.220525 C34.1559858,128.044138 30.4743115,132.502754 28.6886838,136.593228 C26.7926373,140.579867 25.5874963,146.819413 25.0606414,155.315013 C28.0072428,152.586981 30.2156164,150.541744 31.688917,149.179302 C34.3168816,146.872904 36.9984781,145.614297 39.7337066,145.40348 L28.2186157,157.202924 C23.3822775,161.818867 22.0130858,166.853296 24.1173504,172.306212 C26.325724,171.887725 28.8495795,170.522136 31.688917,168.215738 C35.3674365,165.383872 38.0521878,163.549452 39.7337066,162.709331 C38.3645149,167.010622 35.8942913,169.895979 32.3167261,171.362257 C25.1647504,174.823427 22.1203497,180.594142 23.1709046,188.668108 C23.2750136,189.612064 23.3286455,192.286604 23.3286455,196.69173 C23.5368636,197.846502 24.0132414,198.579641 24.7483143,198.894293 C24.9565324,199.001275 25.7988692,199.155454 27.2721698,199.366271 C23.0667955,203.771397 22.0130858,208.698845 24.1173504,214.154907 C25.6947601,213.947237 27.2185379,213.053626 28.6918386,211.480367 C31.0043212,209.173969 32.266249,207.965706 32.4776219,207.861871 C35.9479233,205.240821 39.1532198,203.614071 42.0998212,202.984767 C42.4153031,204.243374 42.2039302,205.18733 41.4688573,205.816634 C41.3647482,205.920469 40.6801524,206.445937 39.4182246,207.389893 C36.582042,209.381639 33.2694816,212.005835 29.4836982,215.256189 C24.0163962,219.661315 22.3853545,225.535865 24.5937281,232.876692 C26.3793559,232.351224 28.8527344,230.777964 32.0075538,228.156914 C34.6355184,225.850516 37.001633,224.591909 39.1058975,224.381092 C39.2100066,222.703998 39.9987114,221.495735 41.4720121,220.762596 C45.0495773,219.085502 47.5734329,216.461305 49.0435787,212.8963 C49.9900245,210.48292 50.5673565,206.971406 50.7787294,202.355463 L50.9364704,193.545212 C50.6209884,191.864971 50.5705113,190.606364 50.7787294,189.76939 C50.9869475,188.406947 51.9870252,187.724153 53.7758079,187.724153 C55.2491085,187.724153 56.1955544,188.457291 56.6119905,189.926716 C56.7160996,190.766836 56.7697315,192.075788 56.7697315,193.859864 C57.1924773,197.321034 57.1924773,200.832548 56.7697315,204.4007 C56.5615134,208.072687 56.5615134,212.949791 56.7697315,219.032011 C57.4006954,226.68749 57.7193322,231.72192 57.7193322,234.135299 C59.7163329,233.609831 61.8205974,232.193898 64.028971,229.8875 C66.4487175,227.159468 68.4961953,225.428883 70.1777141,224.695744 C69.8622321,227.316794 68.8116773,229.572848 67.0228947,231.460759 C65.9723398,232.508549 64.3949301,234.031464 62.2906655,236.023211 C61.6628564,236.967166 60.6596239,238.225773 59.2967419,239.799033 C58.3471412,241.268457 58.0852912,242.788225 58.508037,244.361484 C58.6121461,244.990788 58.5616689,246.038579 58.3471412,247.508003 C58.3471412,248.870445 58.9781051,249.764056 60.2431877,250.182543 C62.3474523,251.022664 64.5021939,250.550686 66.7105675,248.76661 L82.0114418,235.393907 C84.1157063,233.505996 86.428189,232.826348 88.9520445,233.34867 L70.6540918,248.609284 C75.2822119,251.126499 79.8567001,251.126499 84.3775563,248.609284 C86.690039,246.929043 88.5324535,245.723927 89.8984904,244.990788 C92.0027549,243.417529 94.0533875,242.523918 96.0503882,242.316247 L96.0503882,242.001596 L96.2081292,242.316247 L96.0503882,242.316247 C95.9462792,243.67869 95.2080515,244.883806 93.8420146,245.934744 C92.1604959,247.297186 91.2140501,248.502303 91.005832,249.55324 C96.369025,251.651968 101.574477,250.758356 106.622188,246.878699 C111.774008,241.740434 115.982537,238.43659 119.241466,236.967166 C119.241466,239.273564 117.979538,241.425783 115.455683,243.417529 C112.720454,245.620092 111.143044,247.454512 110.723453,248.923936 C113.982382,250.497195 117.190833,250.339869 120.345653,248.451958 C124.027327,245.516257 126.86351,243.313694 128.863665,241.84427 C128.759556,243.102877 128.494551,244.990788 128.07496,247.508003 C128.390442,249.288932 130.018329,249.657075 132.96493,248.609284 C133.491785,248.502303 134.122749,248.609284 134.857822,248.923936 C135.384677,249.342423 135.703314,249.918236 135.807423,250.654521 C136.015641,252.542432 135.018718,253.486388 132.810344,253.486388 C131.441153,253.486388 125.131514,254.011856 113.881428,255.059647 C106.202597,255.792786 99.8424812,255.688951 94.7947701,254.744995 C92.0595417,254.326508 89.4820542,254.169182 87.0654625,254.273017 C82.3332334,255.006156 76.0235945,255.374299 68.1365459,255.374299 C58.4638695,255.478134 52.1005987,255.581969 49.0498884,255.688951 C44.2135502,256.003602 40.6896169,256.368599 38.4780884,256.790232 C33.5376412,257.419536 29.3322669,256.632906 25.8588107,254.430343 C22.2844003,252.331615 19.9182857,248.977427 18.760467,244.361484 C17.0789482,237.857631 16.2366115,231.146107 16.2366115,224.223766 C15.9211295,199.891739 15.9211295,181.692277 16.2366115,169.631672 C16.3407205,164.071774 17.0789482,155.997807 18.4449851,145.40348 C19.2873218,138.584974 22.2844003,132.66008 27.4362204,127.625651 C39.7400162,115.983533 50.0468113,108.063746 58.3534509,103.869437 C64.0352807,111.839568 71.0799924,117.031323 79.490741,119.444703 C87.2736806,122.065753 96.264916,121.911573 106.464447,118.972725 C110.672976,117.610283 114.089646,115.196903 116.71761,111.735733 C119.768321,108.063746 122.295331,105.546531 124.289177,104.184089 C126.60166,102.296177 128.07496,100.880244 128.705924,99.9362887 C129.756479,98.1522127 129.91422,96.1069758 129.175992,93.8005778 C128.86051,93.1712741 128.914142,92.4381353 129.333733,91.5980149 C129.756479,90.7578944 130.387443,90.2324259 131.22978,90.0247556 C133.334044,89.4992871 134.646449,90.4967334 135.173304,93.0139481 L136.908455,97.5763999 C137.539419,99.2534942 137.381678,100.776409 136.435232,102.138852 L138.962242,103.240133 C138.962242,102.192342 139.066351,101.563039 139.277724,101.352222 C151.688784,91.0725463 160.415014,84.0998615 165.462725,80.4278745 C164.920096,83.1559059 163.396319,85.6196299 160.869308,87.8221928 Z M291.324247,163.495961 C290.693283,162.552005 289.955055,162.183863 289.115873,162.394679 C286.592017,163.2348 283.279457,163.338635 279.178192,162.709331 C274.026372,161.869211 270.663334,161.504215 269.085924,161.60805 C264.353695,161.922702 253.677786,162.341189 237.064507,162.866657 C223.710157,163.392126 213.037402,164.021429 205.04309,164.754568 C196.840559,165.280037 192.004221,165.645033 190.530921,165.85585 C185.063618,166.69597 180.435498,168.269229 176.649715,170.575627 C175.179569,171.7304 172.390709,171.887725 168.292598,171.047605 C165.03367,170.522136 161.036514,169.159694 156.304285,166.957131 C150.414237,164.125265 146.312971,162.341189 144.000489,161.60805 L142.738561,171.676909 C142.31897,176.292851 144.262339,178.495414 148.578132,178.284597 C150.575132,178.599249 152.09891,178.756575 153.15262,178.756575 C167.768898,177.916455 186.486442,177.394133 209.308406,177.183316 C241.172082,176.554012 259.889626,176.189016 265.464192,176.082035 L282.026994,176.082035 C284.973595,175.874364 287.128337,175.452731 288.494374,174.823427 C291.229602,173.775637 292.49153,171.101096 292.280157,166.799805 C292.270692,165.541198 291.95521,164.439916 291.324247,163.495961 Z M199.515846,200.782204 C199.411737,208.230013 200.727297,213.840256 203.459371,217.616078 L204.248075,199.995575 C204.879039,196.430569 205.405894,193.756029 205.825485,191.971953 C206.35234,188.718453 205.882272,185.940077 204.408971,183.633679 C201.46237,187.620318 199.834483,193.334395 199.515846,200.782204 Z M116.862732,12.7777283 C109.603493,7.63946376 101.716444,5.17259331 93.2015863,5.38341005 C85.3145377,5.49039168 77.2161162,7.90062479 68.9094767,12.6204024 C60.81421,17.1293633 55.1323802,23.1077483 51.8734518,30.5555574 C53.4508615,30.6625391 55.608758,29.715437 58.3408316,27.7236909 C60.7637329,26.0465965 63.1298475,25.6784539 65.4391753,26.6224094 C62.7071017,28.3026502 59.0254274,30.5555574 54.3973073,33.387424 C50.7187878,35.3791702 48.1949323,38.3148719 46.8288955,42.1976756 C45.8824497,44.9257071 45.4597038,48.7015292 45.5669677,53.5251419 C45.5669677,54.6799142 45.9897135,55.5168881 46.8288955,56.0423567 C47.1443774,56.1461918 47.8794504,56.4608436 49.0372691,56.9863122 C48.6145233,57.719451 47.8794504,58.8207324 46.8288955,60.2901565 C45.9865587,61.652599 45.7783406,63.018188 46.1979316,64.3806305 C48.5104142,73.087047 52.8230524,80.1132226 59.1326913,85.4623039 C59.3440642,85.7769558 59.8677642,85.9342817 60.710101,85.9342817 C61.7638107,85.9342817 62.4484065,85.9342817 62.7607336,85.9342817 L62.7607336,85.7769558 C64.5463614,89.9712648 67.4929628,92.6458055 71.594228,93.8005778 C75.5913842,95.1661668 79.3235356,94.5872074 82.793837,92.0699926 L95.8863376,81.8438077 C97.7792293,80.4782187 98.937048,79.6915891 99.356639,79.4839189 C100.82994,78.7507801 102.457827,78.6437985 104.249764,79.1692671 L84.8476244,94.7445333 C89.8953355,96.2108109 93.2615279,96.7897703 94.9430466,96.4751184 C96.5204563,96.2643017 99.1484209,94.6406982 102.830095,91.5980149 C111.871808,84.0463706 119.654747,79.1157763 126.172604,76.8093783 C124.279713,78.8011244 121.020784,81.4756651 116.392664,84.8330002 C111.764544,88.1903354 108.505615,90.9183669 106.612724,93.0139481 C107.767388,93.7470869 108.874729,93.9579037 109.925284,93.6432518 C110.240766,93.5394167 111.029471,93.0642924 112.291399,92.2273185 C119.232001,88.3476613 124.702458,84.4145133 128.69646,80.4278745 C133.84828,75.393445 137.476322,69.6258767 139.577432,63.1220231 C141.262106,57.45829 141.785806,51.4264141 141.154842,45.0295422 C140.312505,38.1072017 137.372213,31.760674 132.321347,25.9931057 C129.270637,22.5319355 124.118817,18.1268097 116.862732,12.7777283 Z M65.7546572,45.344194 C66.4897302,46.1843144 66.1742482,46.9709441 64.8082114,47.7040828 C63.1266927,48.3333865 60.5996823,49.9601366 57.2366448,52.5811864 C54.2900434,54.6799142 51.7157108,56.0958475 49.5073372,56.8289863 C50.349674,54.1009548 52.2425656,51.7945568 55.1860122,49.9066457 C59.7100232,46.6531457 62.1802468,44.8187255 62.6029926,44.4002385 C63.1298475,43.8747699 63.7071794,43.717444 64.3381433,43.9282607 C65.0700614,44.2429126 65.5432843,44.7148903 65.7546572,45.344194 Z M75.8500794,61.0767861 L60.0759823,70.6736673 C63.7545017,64.3806305 68.8558447,60.5009733 75.3768565,59.0315492 L75.8500794,61.0767861 Z M76.6387843,76.1800746 C72.0106642,82.1584596 67.436176,85.3584688 62.9121649,85.7769558 C66.8020573,80.4278745 71.3260684,77.1775209 76.4778885,76.0227487 C77.0047433,74.4494894 78.0016663,73.2947172 79.474967,72.5615784 C80.4214128,71.8284396 82.2101954,71.04181 84.83816,70.2016896 C83.1566412,74.6068154 80.4214128,76.5985615 76.6387843,76.1800746 Z M57.8676087,166.327827 C56.8170538,169.578181 57.3407538,173.196677 59.4450184,177.183316 C53.3435976,179.071227 50.715633,177.287151 51.5579698,171.834235 C52.4003066,166.90364 52.4003066,162.133518 51.5579698,157.517576 C51.4538608,155.840482 51.4002288,154.789544 51.4002288,154.371057 C51.6084469,153.11245 52.4507837,152.429656 53.9240844,152.32582 C55.5014941,152.115004 56.552049,152.586981 57.0789038,153.741754 C57.2871219,154.371057 57.5489719,155.472339 57.8676087,157.045598 C58.9181635,160.088281 58.9181635,163.181309 57.8676087,166.327827 Z M36.8849046,193.387886 C33.6259762,196.219752 30.6288977,198.107664 27.8936693,199.051619 C32.0990436,191.918462 38.2509414,187.409501 46.3493629,185.52159 C44.8792171,186.465545 41.7243976,189.086595 36.8849046,193.387886 Z M39.4087602,224.695744 C39.2005421,226.794472 38.1499872,228.418075 36.2539407,229.572848 C35.0992768,230.305987 33.3104942,231.356924 30.8939025,232.719366 C28.3668922,234.921929 26.6853734,236.967166 25.8430366,238.855077 C24.8965908,241.161475 25.0006998,243.782525 26.1616734,246.721373 C27.8431921,245.777418 30.8402706,243.628346 35.1529088,240.27101 C38.834583,237.228327 42.0430344,235.236581 44.775108,234.292625 C43.9327712,236.80984 41.9894025,239.327055 38.9386921,241.84427 C35.0487997,244.883806 32.7331623,247.13986 31.9980893,248.609284 C33.0486442,249.55324 34.2600949,250.075562 35.6261317,250.182543 C37.0994324,250.075562 38.2540963,250.025217 39.0964331,250.025217 C47.0875907,250.236034 50.8228969,246.617538 50.296042,239.169729 C49.6650781,232.458205 49.5073372,226.165168 49.8259739,220.290618 C48.3526733,220.290618 46.5670455,221.234574 44.4627809,223.122485 C42.6708435,224.591909 40.9861699,225.117378 39.4087602,224.695744 Z M103.61249,235.708559 C102.666045,237.071001 101.561858,238.697751 100.29993,240.585662 C99.2462203,241.84427 97.8801835,242.316247 96.1955099,242.001596 C96.4068828,240.846823 97.0914787,239.799033 98.2461426,238.855077 C98.9843703,238.43659 100.769998,237.385653 103.61249,235.708559 Z" id="Shape" fill="#292929" fill-rule="nonzero"></path>
                    <text id="Created-by-Saeful-Mu" fill="#000000" font-family="Helvetica-Bold, Helvetica" font-size="5" font-weight="bold">
                        <tspan x="0" y="298">Created by Saeful Muslim from the Noun Project</tspan>
                    </text>
                </g>
            </g>
        </g>
    </g>
</svg>