<?xml version="1.0" encoding="utf-8"?>
<!-- Generator: Adobe Illustrator 22.1.0, SVG Export Plug-In . SVG Version: 6.00 Build 0)  -->
<svg version="1.1" id="Layer_1" xmlns="http://www.w3.org/2000/svg" xmlns:xlink="http://www.w3.org/1999/xlink" x="0px" y="0px"
	 viewBox="0 0 234.6 199.1" style="enable-background:new 0 0 234.6 199.1;" xml:space="preserve">
<path d="M44.8,27.8l-0.4-0.1l-0.8-0.1l-0.8-0.1l-0.8-0.1l-0.8,0l-0.8,0l-1.1,0.1L38,27.6l-1.5,0.3l-1.4,0.5L33.8,29l-1.3,0.7
	l-1.3,0.8l-1.2,0.8l-1.2,0.9l-1.1,1l-1.1,1l-1,1.1l-1,1.2l-0.9,1.2l-0.9,1.2l-0.9,1.3L21,41.5l-0.8,1.3l-0.8,1.4l-0.7,1.4l-0.7,1.4
	l-1,2.1l-1.2,2.8L15.2,54l-0.5,1.4l-0.5,1.4l-0.4,1.3l-0.2,0.7l0,0c0,0,0,0,0,0l0,0l-0.2,0.8l-0.4,1.7l-0.3,1.7l-0.2,1.6l-0.1,1.6
	l-0.1,1.5l0,1.5l0.1,1.5l0.2,1.4l0.3,1.4l0.3,1.3l0.4,1.3l0.5,1.2l0.6,1.2l0.6,1.2l0.7,1.1l0.7,1.1l0.8,1l0.8,1l0.9,0.9l1,0.9l1,0.9
	l1,0.8l1.1,0.8l1.1,0.7l1.2,0.7l1.2,0.7l1.2,0.6l1.3,0.6l1.3,0.5l1.3,0.5l1.3,0.4l1.4,0.4l1.4,0.4l1.4,0.3l1.4,0.3l1.4,0.2l1.5,0.2
	l1.5,0.2l1.5,0.1l1.5,0.1l1.5,0l1.5,0l1.5-0.1l1.5-0.1l1.5-0.1l1.5-0.2l1.5-0.2l1.4-0.3l1.4-0.3l1.4-0.3l1.4-0.4l1.4-0.4l1.4-0.5
	l1.3-0.5l1.3-0.6l1.3-0.6l1.2-0.7l1.2-0.7l1.2-0.8l1.1-0.8l1.1-0.9l1-0.9l1-1l0.5-0.5l0,0c0,0,0,0,0-0.1l0,0l0.4-0.5l0.9-1.1
	l0.8-1.2l0.7-1.2l0.7-1.2l0.6-1.3l0.5-1.3l0.4-1.3l0.4-1.3l0.3-1.3l0.2-1.3l0.2-1.4l0.1-1.4l0-1.4l0-1.4L83.1,64L83,62.6l-0.2-1.4
	l-0.2-1.4l-0.3-1.4L82.1,57l-0.4-1.4l-0.4-1.4l-0.5-1.4l-0.5-1.4l-0.5-1.3l-0.6-1.3l-0.6-1.3L78,46.3L77.3,45l-0.7-1.3l-0.8-1.2
	L75,41.3l-0.8-1.2l-0.8-1.2l-0.9-1.1l-0.9-1.1l-0.9-1.1l-0.9-1l-1-1l-1-1l-1-0.9l-1-0.9l-1-0.8l-1-0.8l-1.1-0.7l-1.1-0.7l-1.1-0.6
	l-1.1-0.6l-1.1-0.5l-1.1-0.5l-1.1-0.4L55,24.9l-1.1-0.3l-1.2-0.2l-1.2-0.1l-1.2-0.1l-1.2,0L48,24.3l-1.2,0.2l-1.2,0.3l-1.2,0.4
	l-1.2,0.5l-1.1,0.6l-0.6,0.4l0,0c-1,0.6-1.3,1.6-0.7,2.3c0.6,0.7,1.9,0.7,2.9,0.1l0.3-0.2l0.7-0.4l0.7-0.3l0.7-0.2l0.7-0.2l0.8-0.1
	l0.8-0.1l0.8,0l0.8,0l0.9,0.1l0.9,0.2l0.9,0.2l0.9,0.3l0.9,0.4l0.9,0.4l0.9,0.5l0.9,0.5l0.9,0.6l0.9,0.6l0.9,0.7l0.9,0.7l0.9,0.8
	l0.9,0.8l0.9,0.9l0.9,0.9l0.9,0.9l0.9,1l0.8,1l0.8,1l0.8,1.1l0.8,1.1l0.8,1.1l0.7,1.2l0.7,1.2l0.7,1.2l0.6,1.2l0.6,1.2l0.6,1.2
	l0.5,1.3l0.5,1.3l0.5,1.3l0.4,1.3l0.4,1.3l0.4,1.3l0.3,1.3l0.3,1.3l0.2,1.3l0.2,1.3l0.1,1.3l0.1,1.3l0,1.3l-0.1,1.2l-0.1,1.2L78,71
	l-0.2,1.2l-0.3,1.2l-0.3,1.1l-0.4,1.1l-0.4,1.1l-0.5,1.1l-0.5,1l-0.6,1l-0.7,1l-0.8,0.9l-0.4,0.5l0-0.1l-0.3,0.4l-0.8,0.8L71.1,84
	l-0.8,0.7l-0.9,0.7L68.4,86l-0.9,0.6l-1,0.6l-1,0.5l-1.1,0.5l-1.1,0.5l-1.1,0.4l-1.1,0.4l-1.2,0.4l-1.2,0.3l-1.2,0.3l-1.2,0.3L55,91
	l-1.3,0.2l-1.3,0.2l-1.3,0.1l-1.3,0.1l-1.3,0l-1.3,0l-1.3,0l-1.3-0.1l-1.3-0.1l-1.3-0.2l-1.3-0.2l-1.3-0.2l-1.3-0.3l-1.3-0.3
	l-1.3-0.3l-1.2-0.4l-1.2-0.4l-1.2-0.5l-1.2-0.5l-1.1-0.5L28.3,87l-1.1-0.6l-1-0.7l-1-0.7l-1-0.7l-0.9-0.8l-0.9-0.8l-0.8-0.9L20.8,81
	L20.1,80l-0.7-1l-0.6-1l-0.6-1l-0.5-1.1l-0.4-1.1l-0.4-1.2l-0.3-1.2l-0.2-1.2l-0.2-1.3l-0.1-1.3l0-1.4l0-1.4l0.1-1.5l0.2-1.5
	l0.3-1.5l0.4-1.6l0.2-0.8l0,0l0.2-0.6l0.4-1.3l0.4-1.3l0.4-1.3l0.7-2l1.1-2.7l0.9-2l0.6-1.3l0.7-1.3l0.7-1.3l0.7-1.3l0.8-1.2
	l0.8-1.2l0.8-1.2l0.8-1.1l0.9-1.1l0.9-1l0.9-0.9l0.9-0.9l1-0.8l1-0.7l1-0.6l1-0.6l1.1-0.5L37,30l1.1-0.3l1.2-0.2l0.9-0.1l0.6-0.1
	l0.6,0l0.7,0l0.7,0l0.7,0l0.4,0l0,0c0.5,0.1,1.1-0.2,1.4-0.6C45.6,28.3,45.4,27.8,44.8,27.8L44.8,27.8"/>
<path d="M24.7,102.5l0.3,0.6l0.7,1.1l0.7,1l0.7,1l0.7,0.9l0.7,0.9l0.7,0.9l0.7,0.8l0.7,0.8l0.7,0.7l0.7,0.7l0.7,0.6l0.7,0.6l0.7,0.6
	l0.7,0.5l0.7,0.5l0.7,0.4l0.7,0.4l0.7,0.4l0.7,0.3l1,0.4l1.4,0.4l1.4,0.3l1.4,0.2l1.5,0l1.5-0.1l1.5-0.3l1.4-0.4l1.4-0.5l1.4-0.6
	l1.3-0.7l1.3-0.8l1.3-0.9l1.2-1l1.2-1.1L59,110l1.2-1.2l1.1-1.3l1.1-1.3l1.1-1.4l1.1-1.4l1.1-1.5l0.5-0.8l0,0
	c0.5-0.7,0.2-1.5-0.6-1.8c-0.9-0.3-2,0.1-2.5,0.8l-0.5,0.7l-1.1,1.4l-1.1,1.4l-1.1,1.3l-1.1,1.2l-1.1,1.2l-1.1,1.1l-1.1,1l-1.1,0.9
	l-1,0.9l-1,0.8l-1,0.7l-1,0.6l-1,0.5l-1,0.4l-0.9,0.3l-0.9,0.2l-0.9,0.1l-1,0l-1-0.1l-1-0.2l-1.1-0.4l-0.8-0.4l-0.5-0.3l-0.6-0.3
	l-0.6-0.4l-0.6-0.4l-0.6-0.4l-0.6-0.5l-0.6-0.5l-0.6-0.6l-0.6-0.6l-0.6-0.6l-0.6-0.7l-0.6-0.7l-0.6-0.8l-0.6-0.8l-0.6-0.9l-0.6-0.9
	l-0.6-1l-0.6-1l-0.6-1l-0.3-0.5l0,0c-0.5-0.8-1.7-1-2.9-0.5C24.8,100.7,24.2,101.7,24.7,102.5L24.7,102.5"/>
<path d="M64.2,102.4l0.3,0.1l0.6,0.2l0.7,0.2l0.8,0.3l0.8,0.3l0.9,0.4l0.9,0.4l0.9,0.4l1.5,0.7l2,0.9l2.1,0.9l2.1,0.9l2.1,0.9
	l1.6,0.6l1.1,0.4l1,0.3l1,0.3l1,0.2l1,0.2l1,0.1l1,0.1l1,0l1-0.1l1-0.2l1-0.3l1-0.4l0.7-0.5l0.5-0.4l0.2-0.2l0,0c0,0,0,0,0.1-0.1
	l0,0l0.4-0.4l0.9-0.9l0.8-1l0.8-1.1l0.8-1.1l0.8-1.1l0.7-1.2l0.7-1.2l1-1.8l1.4-2.5l1.4-2.6l1.4-2.6l1.4-2.6l1.4-2.5l1.1-1.8
	l0.7-1.2l0.8-1.1l0.8-1.1l0.8-1l0.8-1l0.8-0.9l0.8-0.8l0.9-0.8l0.9-0.7l0.9-0.6l0.9-0.5l0.4-0.2l-0.1,0l0.3-0.2l0.5-0.2l0.4-0.1
	l0.4-0.1l0.4-0.1l0.4,0l0.3,0l0.3,0l0.3,0.1l0.3,0.1l0.3,0.1l0.3,0.1l0.3,0.2l0.3,0.2l0.3,0.2l0.3,0.3l0.3,0.3l0.3,0.3l0.3,0.4
	l0.3,0.4l0.3,0.4l0.2,0.4l0.2,0.5l0.2,0.5l0.3,0.7l0.3,1l0.2,1l0.1,1l0,0.5l0,0l0,0.2l0,0.5l-0.1,0.5l-0.1,0.5l-0.1,0.6l-0.1,0.6
	l-0.2,0.7l-0.2,0.7l-0.2,0.7l-0.2,0.7l-0.3,0.8l-0.3,0.8l-0.3,0.8l-0.3,0.9l-0.4,0.9l-0.4,0.9l-0.6,1.4l-0.9,1.9l-0.9,2l-1,2l-1.1,2
	l-1.1,2.1l-1.1,2.1l-1.2,2.1l-1.8,3.1l-1.8,3.1l-1.2,2l-1.2,2l-1.2,1.9l-1.2,1.8l-1.2,1.8l-1.2,1.7l-1.1,1.6l-0.8,1.1l-0.5,0.7
	l-0.5,0.7l-0.5,0.6l-0.5,0.6l-0.5,0.6l-0.5,0.5l-0.4,0.5l-0.4,0.5l-0.4,0.4l-0.4,0.4l-0.3,0.3l-0.1,0.1l0.1-0.1l-0.2,0.2l-0.4,0.2
	l-0.4,0.2l-0.4,0.2l-0.5,0.1l-0.6,0.1l-0.6,0.1l-0.7,0.1l-0.7,0l-0.8,0l-0.8,0l-0.8,0l-1.3-0.1l-1.8-0.2l-1.8-0.3l-1.8-0.4l-1.3-0.3
	l-0.8-0.2l-0.8-0.3l-0.8-0.3l-0.7-0.3l-0.7-0.3l-0.6-0.3l-0.6-0.3l-0.5-0.3l-0.5-0.3l-0.4-0.3l-0.3-0.3l-0.1-0.1l0,0
	c-0.4-0.4-1.2-0.4-1.8,0c-0.6,0.4-0.7,1-0.3,1.4l0,0l0.2,0.2l0.4,0.3l0.5,0.3l0.5,0.3l0.6,0.3l0.7,0.3l0.7,0.3l0.7,0.3l0.8,0.3
	l0.8,0.3l0.9,0.3l0.9,0.3l1.4,0.4l1.9,0.5l1.9,0.4l1.9,0.3l1.4,0.2l1,0.1l1,0l0.9,0l0.9-0.1l0.9-0.1l0.9-0.1l0.9-0.2l0.9-0.3
	l0.8-0.3l0.8-0.4l0.7-0.5l0.2-0.2l0,0c0,0,0,0,0.1-0.1l0,0l0.2-0.2l0.4-0.4l0.4-0.4l0.5-0.5l0.5-0.5l0.5-0.5l0.5-0.6l0.5-0.6
	l0.5-0.6l0.5-0.7l0.5-0.7l0.6-0.7l0.9-1.1l1.2-1.6l1.2-1.7l1.2-1.8l1.3-1.9l1.3-1.9l1.3-2l1.3-2l1.9-3.1l1.9-3.2l1.2-2.1l1.2-2.1
	l1.1-2.1l1.1-2.1l1-2l1-2l0.9-1.9l0.6-1.4l0.4-0.9l0.4-0.9l0.4-0.9l0.3-0.9l0.3-0.8l0.3-0.8l0.3-0.8l0.2-0.8l0.2-0.7l0.2-0.7
	l0.2-0.7l0.1-0.7l0.1-0.6l0.1-0.6l0-0.6l0-0.2l0,0c0,0,0,0,0,0l0,0l0-0.6l-0.1-1.2l-0.2-1.2l-0.3-1.2l-0.3-0.9l-0.2-0.6l-0.3-0.5
	l-0.3-0.5l-0.3-0.5l-0.4-0.5l-0.4-0.5l-0.4-0.5l-0.4-0.4l-0.5-0.4l-0.5-0.4l-0.5-0.3l-0.6-0.3l-0.6-0.3l-0.7-0.2l-0.7-0.2l-0.7-0.1
	l-0.8,0l-0.8,0l-0.8,0.1l-0.8,0.2l-0.8,0.2l-0.8,0.3l-0.8,0.3l-0.3,0.2l0,0c0,0-0.1,0-0.1,0l0,0l-0.7,0.4l-1.2,0.7l-1.2,0.8
	l-1.1,0.9l-1,0.9l-1,1l-0.9,1l-0.9,1.1l-0.9,1.1l-0.8,1.2l-0.8,1.2l-0.8,1.2l-1.1,1.9l-1.4,2.6l-1.4,2.6l-1.4,2.6l-1.3,2.6l-1.3,2.5
	l-1,1.8l-0.7,1.1l-0.7,1.1l-0.7,1l-0.7,1l-0.7,0.9l-0.7,0.9l-0.7,0.8l-0.4,0.4l0.1-0.1l0,0l0,0l-0.1,0.1l-0.2,0.1l-0.3,0.1l-0.4,0.1
	l-0.5,0H90l-0.7-0.1l-0.8-0.1l-0.8-0.2l-0.9-0.2l-0.9-0.3l-0.9-0.3l-1-0.3l-1.5-0.6l-2-0.8l-2.1-0.9l-2-1l-2-1l-1.5-0.7l-0.9-0.4
	l-0.9-0.4l-0.9-0.4l-0.9-0.4l-0.8-0.3l-0.8-0.3L67,99.1L66.7,99c-1.1-0.3-2.6,0.1-3.3,1.1C62.7,101,63.1,102.1,64.2,102.4
	L64.2,102.4"/>
<path d="M74.7,132.6l-0.1,1.3l-0.1,2.6l-0.1,2.6l0,2.6v2.6l0.1,2.6l0.2,3.9L75,156l0.5,5.1l0.3,3.8l0.1,2.6l0.1,2.6l0,2.6l0,1.3l0,0
	c0,0.4,0.5,0.7,1,0.7c0.6-0.1,1.1-0.5,1.1-0.9l0,0l0.1-1.3l0.1-2.6l0-2.6l0-2.6l-0.1-3.9l-0.2-5.2l-0.3-5.2l-0.3-3.8l-0.2-2.6
	l-0.1-2.6l-0.1-2.6l0-2.6l0.1-2.6l0.1-1.3l0,0c0-0.5-0.5-0.9-1.2-0.8C75.4,131.6,74.8,132.1,74.7,132.6L74.7,132.6"/>
<path d="M4.2,198.6l0.5-0.3l1-0.6l1-0.6l1.1-0.6l1.1-0.6l1.1-0.6l1.2-0.6l1.2-0.6l1.2-0.6l1.3-0.6l1.3-0.5l1.3-0.5l1.4-0.5l1.4-0.5
	l1.4-0.5l1.5-0.5l2.3-0.7l3.1-1l3.2-0.9l3.3-0.9l3.4-0.8l3.5-0.8l3.6-0.8l3.6-0.7l3.7-0.7l3.8-0.6l3.9-0.6l3.9-0.6l4-0.5l4-0.5
	l4.1-0.5l4.1-0.4l4.2-0.4l4.2-0.3l4.2-0.3l4.3-0.3l4.3-0.2l4.3-0.2l4.3-0.2l4.3-0.1l4.3-0.1l4.3,0l4.3,0l4.3,0l4.3,0.1l4.2,0.1
	l4.2,0.1l4.2,0.2l4.1,0.2l4.1,0.2l4.1,0.3l4,0.3l4,0.3l3.9,0.4l3.8,0.4l3.8,0.4l3.7,0.5l3.6,0.5l3.5,0.5l3.4,0.6l3.3,0.6l3.2,0.6
	l3.1,0.7l3,0.7l2.9,0.7l2.1,0.6l1.4,0.4l1.3,0.4l1.3,0.4l1.3,0.4l1.2,0.4l1.2,0.4l1.2,0.4l1.1,0.4l1.1,0.4l1.1,0.5l1,0.5l1,0.5
	l0.9,0.5l0.4,0.2l0,0c1.6,0.8,4.1,0.3,5.5-1.1c1.4-1.4,1.2-3.2-0.4-4.1l0,0l-0.5-0.3l-1.1-0.5l-1.1-0.5l-1.1-0.5l-1.2-0.5l-1.2-0.5
	l-1.2-0.5l-1.3-0.5l-1.3-0.4l-1.3-0.4l-1.4-0.4l-1.4-0.4l-1.4-0.4l-1.5-0.4l-2.2-0.6l-3.1-0.7l-3.2-0.7l-3.3-0.7l-3.4-0.6l-3.5-0.6
	l-3.6-0.6l-3.6-0.5l-3.7-0.5l-3.8-0.5L179,174l-3.9-0.4l-4-0.3l-4-0.3l-4.1-0.3l-4.1-0.2l-4.2-0.2l-4.2-0.2l-4.3-0.1l-4.3-0.1
	l-4.3-0.1l-4.3,0l-4.4,0l-4.4,0l-4.4,0.1l-4.4,0.1l-4.4,0.2l-4.4,0.2l-4.4,0.2l-4.4,0.3l-4.3,0.3l-4.3,0.3l-4.3,0.4l-4.3,0.4
	l-4.2,0.5l-4.2,0.5l-4.1,0.5l-4.1,0.6l-4,0.6l-4,0.7l-3.9,0.7l-3.8,0.7l-3.8,0.8l-3.7,0.8l-3.6,0.9l-3.5,0.9l-3.4,0.9l-3.3,1l-3.2,1
	l-2.3,0.8l-1.5,0.5l-1.5,0.6l-1.5,0.6l-1.5,0.6l-1.4,0.6l-1.4,0.6l-1.4,0.6l-1.3,0.6L9,191.6l-1.3,0.7l-1.2,0.7l-1.2,0.7l-1.2,0.7
	L3,195l-1.1,0.7L1.4,196c-1.1,0.7-1.4,1.9-0.6,2.6C1.5,199.3,3.1,199.3,4.2,198.6L4.2,198.6"/>
<path d="M3.6,7.7l0.1,3l0.2,6l0.2,5.9l0.2,5.9l0.3,8.9L5,49.2l0.4,11.8l0.3,8.9l0.2,5.9l0.3,5.9l0.4,5.9L7,93.6l0.5,5.9l0.3,3l0,0
	c0,0.5,0.6,0.7,1.2,0.6c0.6-0.1,1.1-0.6,1-1l-0.2-3l-0.3-5.9l-0.2-5.9l-0.2-5.9L9,75.4L9,69.5l0-8.9l0.1-11.9l0.1-11.9v-9l-0.1-6
	l-0.2-6L8.4,9.8l-0.3-3l0,0C8.1,5.9,7,5.4,5.8,5.6C4.5,5.8,3.5,6.7,3.6,7.7L3.6,7.7"/>
<path d="M5.7,8.7l1.6-0.1l3.3-0.2L15.6,8l6.6-0.4l6.7-0.3l6.7-0.2L42.3,7l6.8-0.1L56,6.8l6.9,0l6.9,0l10.4,0.1l13.9,0.2L108,7.3
	l13.9,0.2l10.3,0.1l6.9,0.1l6.8,0.1l6.8,0l6.7,0l6.7,0l6.6-0.1l6.5-0.2l6.5-0.2l4.8-0.2l3.2-0.2l3.1-0.2l3.1-0.2l3.1-0.2l3.1-0.2
	l3.1-0.3l3-0.3l3-0.3l3-0.3l1.5-0.2l0,0c1.6-0.2,3-1.3,3-2.5c0.1-1.2-1.2-2-2.8-1.9l0,0l-1.4,0.2l-2.9,0.3l-2.9,0.3l-3,0.3l-3,0.2
	l-3,0.2l-3,0.2l-3.1,0.2l-3.1,0.2l-3.1,0.1l-4.7,0.2l-6.4,0.2L173.7,3l-6.5,0.1l-6.6,0.1l-6.7,0l-6.7,0l-6.8,0l-6.8-0.1L123.2,3
	l-13.9-0.2l-14-0.2l-14-0.1l-10.5,0l-7,0.1l-7,0.1L50,2.9l-6.9,0.2l-6.9,0.3l-6.8,0.4l-6.8,0.5l-6.7,0.5l-5,0.5L7.6,5.6L6,5.8
	C4.9,5.9,4,6.6,3.9,7.4C3.9,8.3,4.7,8.8,5.7,8.7L5.7,8.7"/>
<path d="M98.4,157.8l1.8,0l3.6,0.1l3.7,0.1l3.8,0.1l3.8,0l3.9,0l3.9,0l4,0l4,0l4.1,0l4.1,0l4.1,0l6.2-0.1l8.4-0.2l8.4-0.2l6.3-0.2
	l4.2-0.2l4.2-0.2l4.1-0.2l4.1-0.3l4.1-0.3l4-0.3l4-0.4l4-0.4l3.9-0.4l3.9-0.4l3.8-0.5l3.7-0.5l3.7-0.6l1.8-0.3l0,0
	c1.3-0.2,2.4-1.2,2.4-2.2c0-1-1.2-1.6-2.5-1.4l0,0l-1.8,0.3l-3.6,0.6l-3.7,0.5l-3.7,0.5l-3.8,0.5l-3.9,0.4l-3.9,0.4l-4,0.4l-4,0.3
	l-4,0.3l-4.1,0.3l-4.1,0.3l-4.1,0.2l-4.1,0.2l-6.2,0.3l-8.3,0.3l-8.3,0.2L144,155l-4.1,0.1l-4.1,0l-4.1,0l-4,0l-4,0l-3.9,0l-3.9,0
	l-3.8,0l-3.8,0l-3.7,0l-3.6,0l-1.8,0c-1,0-2,0.6-2.2,1.4C96.7,157.1,97.4,157.8,98.4,157.8L98.4,157.8"/>
<path d="M218.8,2l-0.2,2.2l-0.4,4.5l-0.3,4.6l-0.2,4.6l-0.1,4.6l-0.1,4.6l0,4.6l0.1,4.6l0.1,4.7l0.2,4.7l0.2,4.7l0.3,4.7l0.5,7
	l0.7,9.4l0.8,9.4l0.8,9.4l0.8,9.4l0.6,7l0.3,4.6l0.3,4.6l0.3,4.6l0.2,4.6l0.2,4.6l0.1,4.5l0.1,4.5l0,4.5l-0.1,4.5l-0.1,2.2l0,0
	c0,0.9,0.9,1.5,2.1,1.3c1.2-0.1,2.1-1,2.1-1.8l0,0l0.1-2.2l0.1-4.5l0-4.5l-0.1-4.5l-0.1-4.6l-0.2-4.6l-0.2-4.6l-0.3-4.6l-0.3-4.6
	l-0.3-4.7l-0.5-7l-0.8-9.4l-0.8-9.4l-0.8-9.4l-0.7-9.4l-0.4-7l-0.2-4.7l-0.2-4.7l-0.2-4.6l-0.1-4.6l0-4.6l0-4.6l0.1-4.6l0.2-4.6
	l0.3-4.5l0.3-4.5l0.4-4.5l0.3-2.2c0.1-1-0.9-1.7-2.2-1.6C220.1,0.1,218.9,1,218.8,2L218.8,2"/>
<path d="M115.3,36.9l2.1-0.3l4.1-0.4l4.1-0.4l4.1-0.4L134,35l4.2-0.3l4.2-0.1l4.2-0.1l6.3,0l8.5,0.1l6.4,0.1l4.3-0.1l4.3-0.3
	l4.3-0.4l2.2-0.3l0,0c0.6,0,1.2-0.4,1.3-0.9c0.1-0.5-0.4-0.9-1-0.8l0,0l-2.1-0.1l-4.1-0.2l-4.2-0.2l-4.2-0.1l-6.4,0l-8.5,0l-6.4,0
	l-4.3,0l-4.3,0l-4.3,0l-4.3,0.1l-4.3,0.2l-4.3,0.4l-4.3,0.6l-2.1,0.4c-1.4,0.2-2.6,1.3-2.6,2.3C112.7,36.4,113.8,37.1,115.3,36.9
	L115.3,36.9"/>
<path d="M140.8,60.6l10.2,0.5l20.6,0.4l10.3,0.2l0,0c0.4,0,0.9-0.2,1-0.6s-0.2-0.6-0.6-0.7l-10.2-0.7l-20.4-1.3L141.6,58l0,0
	c-0.9,0-1.8,0.5-2,1.2C139.3,59.9,139.9,60.5,140.8,60.6L140.8,60.6"/>
<path d="M145.8,89.5l2.7,0.4l5.7,0.2l5.7-0.2l5.8-0.3l5.8-0.3l4.3-0.1l2.9,0l2.8,0.1l2.8,0.1l2.8,0.1l2.8,0.1l1.4,0.1l0,0
	c0.7,0.1,1.5-0.3,1.7-0.9c0.2-0.6-0.2-1.1-0.9-1.1l0,0l-1.4-0.2l-2.9-0.3l-2.9-0.2l-2.9-0.1l-2.9-0.1l-2.9-0.1l-4.3,0l-5.8,0l-5.7,0
	l-5.7,0.2l-5.7,0.4l-2.9,0.5c-0.6,0-1.2,0.4-1.3,0.9C144.8,89.1,145.2,89.5,145.8,89.5L145.8,89.5"/>
<path d="M135.1,120.9l4.1-0.1l8.2-0.2l8.2-0.2l6.1-0.1l4.1,0l4.1,0l4.1-0.1l4.1-0.2l4.1-0.3l4.1-0.5l4.1-0.6l4.1-0.8l4.1-1l2-0.5
	l0,0c0.8-0.1,1.4-0.7,1.4-1.3c0-0.6-0.7-0.9-1.5-0.8l-2,0.2l-4,0.4l-4,0.3l-4,0.4l-4,0.4l-4,0.4l-4,0.4l-4.1,0.4l-4.1,0.4l-4.1,0.3
	l-6.1,0.2l-8.1,0l-8.1-0.1l-4,0c-1.1,0-2.2,0.7-2.4,1.6C133.2,120.2,134,120.9,135.1,120.9L135.1,120.9"/>
<path d="M4.1,119.8l-0.2,0.8l-0.3,1.6l-0.3,1.6L3,125.4L2.7,127l-0.3,1.5L2.1,130l-0.2,1.5l-0.2,1.4l-0.2,1.4l-0.2,1.4L1,137.1
	l-0.2,1.3l-0.2,1.3l-0.1,1.3l-0.1,1.3l-0.1,1.2l-0.1,1.2L0.1,146l-0.1,1.2l0,1.1l0,1.1l0,1.1l0,1.1l0,1l0.1,1l0.1,1l0.1,1l0.1,0.9
	l0.1,0.9l0.2,0.9l0.2,0.9l0.2,0.8l0.2,0.8l0.3,0.8l0.3,0.8l0.3,0.7l0.4,0.7l0.4,0.7l0.4,0.6l0.4,0.6l0.5,0.6l0.5,0.5l0.5,0.5
	l0.6,0.5l0.6,0.4l0.6,0.4l0.6,0.4l0.7,0.3l0.7,0.3l0.7,0.3l0.7,0.2l0.8,0.2l0.8,0.2l0.8,0.1l0.9,0.1l0.9,0.1l0.9,0l0.9,0l1,0l1,0
	l1-0.1l1.1-0.1l1.1-0.1l0.6-0.1l0,0c0,0,0,0,0,0l0,0l0.2,0l0.4-0.1l0.4-0.1l0.5-0.2l0.5-0.2l0.5-0.2l0.5-0.2l0.6-0.3l0.6-0.3
	l0.6-0.3l0.6-0.3l0.7-0.4l0.7-0.4l0.7-0.4l0.7-0.4l0.7-0.5l1.2-0.7l1.6-1l1.6-1.1l1.7-1.2l1.7-1.2l1.7-1.3l1.7-1.3l1.7-1.3l1.7-1.3
	l1.7-1.4l1.6-1.4l1.6-1.4l1.5-1.4l1.5-1.4l1.4-1.4l1.3-1.3l0.9-1l0.6-0.7l0.5-0.6l0.5-0.6l0.5-0.6l0.4-0.6l0.4-0.6l0.4-0.6l0.3-0.6
	l0.3-0.6l0.2-0.6l0.2-0.6l0.2-0.6l0.1-0.6l0-0.6l0-0.6l0-0.4l0,0c0,0,0-0.1,0-0.1l0,0l-0.1-0.6l-0.3-1.2l-0.3-1.2l-0.4-1.1l-0.4-1
	l-0.5-0.9l-0.5-0.8l-0.6-0.7l-0.6-0.6l-0.7-0.5l-0.7-0.4L56,126l-0.7-0.3l-0.8-0.2l-0.8-0.1l-0.8,0l-0.8,0l-0.8,0.1l-0.8,0.1
	l-0.8,0.2l-0.9,0.2l-0.9,0.3l-0.9,0.3l-0.9,0.4l-1.3,0.6l-1.8,0.9l-1.8,1l-1.8,1l-1.8,1.1l-1.8,1.1l-1.7,1.1l-1.7,1.1l-1.6,1
	l-1.2,0.7l-0.7,0.5l-0.7,0.4l-0.7,0.4l-0.7,0.4l-0.6,0.3l-0.6,0.3l-0.6,0.2l-0.5,0.2l-0.5,0.2l-0.4,0.1l-0.4,0.1l-0.3,0l-0.3,0
	l-0.2-0.1l-0.1-0.1l-0.1-0.1l0-0.1l0-0.1l0-0.2l0-0.3l0-0.4l0-0.2l0,0l0-0.3l0-0.6l0-0.5l0-0.5l0-0.6l0-0.7l0-0.6l0-0.5l0-0.7l0-0.6
	l0-0.5l0-0.5l0-0.6l0-0.5l0-0.4l0-0.4l0-0.5l0-0.5l0-0.6l0-0.6l0-0.7l0-0.4l0,0c0-0.7-0.4-1.4-0.9-1.5c-0.5-0.1-1,0.4-1,1.1l0,0.4
	l0,0.7l0,0.6l0,0.6l0,0.5l0,0.5l0,0.4l0,0.4l0,0.5l0,0.6l0,0.5l0,0.5l0,0.6l0,0.7l0,0.5l0,0.6l0,0.7l0,0.6l0,0.5l0,0.5l0,0.6l0,0.3
	l0,0c0,0,0,0,0,0l0,0l0,0.5l0,0.8l0.1,0.8l0.2,0.7l0.3,0.7l0.4,0.5l0.5,0.4l0.5,0.3l0.5,0.1l0.5,0.1l0.5,0l0.5-0.1l0.6-0.1l0.6-0.2
	l0.6-0.2l0.6-0.3l0.7-0.3l0.7-0.3l0.7-0.4l0.7-0.4l0.7-0.4l0.8-0.5l1.2-0.7l1.6-1l1.7-1.1l1.7-1.1l1.7-1.1l1.8-1.1l1.8-1l1.8-1
	l1.7-0.9l1.3-0.6l0.8-0.3l0.8-0.3l0.8-0.3l0.8-0.2l0.8-0.2l0.7-0.1l0.7-0.1l0.7,0l0.7,0l0.6,0.1l0.6,0.1l0.6,0.2l0.5,0.2l0.5,0.3
	l0.5,0.4l0.4,0.4l0.4,0.5l0.4,0.6l0.4,0.7l0.4,0.8l0.3,0.9l0.3,1l0.3,1.1l0.1,0.6l0-0.1l0,0l0,0.2l0,0.3l0,0.3l-0.1,0.4l-0.1,0.4
	l-0.2,0.5l-0.2,0.5l-0.3,0.5l-0.3,0.5l-0.3,0.6l-0.4,0.6l-0.4,0.6l-0.5,0.6l-0.5,0.6l-0.5,0.6l-0.8,1l-1.2,1.3l-1.3,1.4l-1.4,1.4
	l-1.5,1.4l-1.6,1.4l-1.6,1.4l-1.7,1.4l-1.7,1.3l-1.7,1.3l-1.7,1.3l-1.7,1.2l-1.7,1.2l-1.7,1.1l-1.6,1.1l-1.6,1l-1.1,0.7l-0.7,0.4
	l-0.7,0.4l-0.7,0.4l-0.7,0.4L27,166l-0.6,0.3l-0.6,0.3l-0.6,0.3l-0.5,0.2l-0.5,0.2l-0.5,0.2l-0.4,0.2l-0.4,0.1l-0.3,0.1l-0.3,0.1
	l-0.2,0l0,0l-0.5,0.1l-1.1,0.1l-1,0.1l-1,0.1l-1,0h-0.9l-0.9,0l-0.9-0.1l-0.8-0.1l-0.8-0.1l-0.8-0.1l-0.7-0.2l-0.7-0.2l-0.7-0.2
	l-0.6-0.2L9,166.9l-0.6-0.3l-0.5-0.3L7.4,166L7,165.6l-0.4-0.4l-0.4-0.4l-0.4-0.4l-0.4-0.5L5,163.5L4.7,163l-0.3-0.5l-0.3-0.6
	l-0.3-0.6l-0.2-0.6L3.4,160l-0.2-0.7L3,158.6l-0.2-0.7l-0.1-0.8l-0.1-0.8l-0.1-0.8l-0.1-0.9l-0.1-0.9l0-0.9l0-1l0-1l0-1l0-1l0.1-1.1
	l0.1-1.1l0.1-1.1l0.1-1.2l0.1-1.2l0.1-1.2l0.2-1.2l0.2-1.3l0.2-1.3l0.2-1.3l0.2-1.4L4,134l0.3-1.4l0.3-1.4l0.3-1.5l0.3-1.5l0.3-1.5
	l0.3-1.6l0.3-1.6l0.3-1.6l0.2-0.8c0.2-0.9-0.2-2-0.9-2.3C5,118.4,4.2,118.9,4.1,119.8L4.1,119.8"/>
<path d="M25.9,100.2l-0.5,0l-0.9,0.1l-0.9,0.2l-0.9,0.2l-0.9,0.3l-0.9,0.3l-0.9,0.3l-0.9,0.4l-0.9,0.4l-0.9,0.5l-0.9,0.5l-0.8,0.5
	l-0.8,0.6l-0.8,0.6l-0.8,0.6l-0.8,0.6l-0.7,0.7l-0.7,0.7l-0.7,0.7l-0.7,0.7l-0.6,0.8l-0.6,0.8l-0.6,0.8l-0.5,0.8l-0.5,0.8l-0.5,0.8
	l-0.4,0.9l-0.4,0.9L5,116.6l-0.3,0.9l-0.3,0.9l-0.2,0.9l-0.1,0.5l0,0c-0.2,0.9,0.2,1.9,0.9,2.3c0.7,0.4,1.4-0.1,1.6-1l0,0l0.1-0.3
	l0.2-0.7l0.2-0.8l0.3-0.8l0.3-0.8L8,117l0.4-0.7l0.4-0.7l0.5-0.7l0.5-0.7l0.5-0.7l0.5-0.7l0.6-0.7l0.6-0.7l0.6-0.7l0.7-0.6l0.7-0.6
	l0.7-0.6l0.7-0.6l0.7-0.6l0.8-0.5l0.8-0.5l0.8-0.5l0.8-0.5l0.8-0.4l0.8-0.4l0.8-0.4l0.8-0.3l0.8-0.3l0.9-0.3l0.9-0.2l0.9-0.2
	l0.4-0.1l0,0c0.6-0.1,0.9-0.8,0.8-1.6C27,100.6,26.5,100.1,25.9,100.2L25.9,100.2"/>
<path d="M19.2,170.6l0,0.7l0,1.3l-0.1,2l-0.2,2.7l-0.3,2.8l-0.1,1.5l0,0c0,1.1,0.6,2.1,1.5,2.3c0.8,0.2,1.5-0.6,1.5-1.7l0,0l0-1.4
	l-0.1-2.9l0.1-2.9l0-2.2l-0.1-1.5l-0.1-0.7c0-0.8-0.6-1.5-1.2-1.6C19.7,169.2,19.2,169.8,19.2,170.6L19.2,170.6"/>
</svg>
