<?xml version="1.0" encoding="UTF-8"?>
<svg width="506px" height="624px" viewBox="0 0 506 624" version="1.1" xmlns="http://www.w3.org/2000/svg" xmlns:xlink="http://www.w3.org/1999/xlink">
    <!-- Generator: Sketch 49 (51002) - http://www.bohemiancoding.com/sketch -->
    <title>Group 16</title>
    <desc>Created with Sketch.</desc>
    <defs>
        <linearGradient x1="50%" y1="0%" x2="50%" y2="100%" id="linearGradient-1">
            <stop stop-color="#000000" stop-opacity="0" offset="0%"></stop>
            <stop stop-color="#000000" stop-opacity="0.0299999993" offset="100%"></stop>
        </linearGradient>
        <filter x="-2.7%" y="-1.6%" width="105.4%" height="104.4%" filterUnits="objectBoundingBox" id="filter-2">
            <feOffset dx="0" dy="2" in="SourceAlpha" result="shadowOffsetOuter1"></feOffset>
            <feGaussianBlur stdDeviation="2" in="shadowOffsetOuter1" result="shadowBlurOuter1"></feGaussianBlur>
            <feColorMatrix values="0 0 0 0 0   0 0 0 0 0   0 0 0 0 0  0 0 0 0.5 0" type="matrix" in="shadowBlurOuter1" result="shadowMatrixOuter1"></feColorMatrix>
            <feMerge>
                <feMergeNode in="shadowMatrixOuter1"></feMergeNode>
                <feMergeNode in="SourceGraphic"></feMergeNode>
            </feMerge>
        </filter>
        <rect id="path-3" x="0.951804693" y="0.955226576" width="168.415627" height="233.910498"></rect>
    </defs>
    <g id="visuals" stroke="none" stroke-width="1" fill="none" fill-rule="evenodd">
        <g id="Home" transform="translate(-966.000000, -89.000000)">
            <g id="Group-16" transform="translate(966.000000, 87.000000)">
                <path d="M0,0 L506,0 L506,452.838577 C506,492.400998 482.675947,528.244043 446.504081,544.268438 L273.252041,621.020329 C260.355124,626.733755 245.644876,626.733755 232.747959,621.020329 L44.6219391,537.679158 C17.4930395,525.660862 -3.69309715e-14,498.778579 -1.42108547e-14,469.106763 L0,0 Z" id="Rectangle-7" fill="url(#linearGradient-1)"></path>
                <g id="Macbook__ipad__iphone" filter="url(#filter-2)" transform="translate(105.000000, 97.000000)">
                    <g id="IPAD" transform="translate(97.000000, 0.000000)">
                        <path d="M187.836277,293.177713 L11.1941486,293.177713 C5.05434731,293.177713 0.0768053509,288.20479 0.0768053509,282.070255 L0.0768053509,11.1842211 C0.0768053509,5.04968553 5.05342195,0.0767626189 11.1941486,0.0767626189 L187.836277,0.0767626189 C193.977003,0.0767626189 198.95362,5.04968553 198.95362,11.1842211 L198.95362,282.070255 C198.95362,288.20479 193.977003,293.177713 187.836277,293.177713 Z" id="bezel-2" stroke="#B5B5B5" stroke-width="0.2" fill="#0D0D0D" fill-rule="nonzero"></path>
                        <rect id="screen" stroke="#B5B5B5" stroke-width="0.1" fill="#F0F0F0" fill-rule="nonzero" x="15.688914" y="29.6" width="168.415627" height="233.910498"></rect>
                        <g id="64interactive.com-(iPad)" transform="translate(14.779412, 28.640000)">
                            <mask id="mask-4" fill="white">
                                <use xlink:href="#path-3"></use>
                            </mask>
                            <g id="Mask" fill-rule="nonzero"></g>
                            <path d="M88.6764706,42.4 L159.617647,42.4" id="Line-Copy-8" stroke="#ADADAD" mask="url(#mask-4)"></path>
                            <path d="M88.6764706,24.64 L159.617647,24.64" id="Line-Copy-9" stroke="#ADADAD" mask="url(#mask-4)"></path>
                            <path d="M88.6764706,33.52 L159.617647,33.52" id="Line-Copy-10" stroke="#ADADAD" mask="url(#mask-4)"></path>
                            <path d="M88.6764706,15.76 L159.617647,15.76" id="Line-Copy-11" stroke="#ADADAD" mask="url(#mask-4)"></path>
                            <ellipse id="Oval-3" fill="#37B9F1" mask="url(#mask-4)" cx="45.8161765" cy="29.08" rx="22.1691176" ry="22.2"></ellipse>
                            <g id="Group-7" mask="url(#mask-4)">
                                <g transform="translate(11.823529, 63.120000)">
                                    <g id="Group-6" stroke-width="1" fill="none" transform="translate(0.000000, 2.184005)">
                                        <polygon id="Line" fill="#ADADAD" fill-rule="nonzero" points="0 30.08 70.9411765 30.08 70.9411765 27.12 0 27.12"></polygon>
                                        <polygon id="Line-Copy-2" fill="#ADADAD" fill-rule="nonzero" points="0 12.32 70.9411765 12.32 70.9411765 9.36 0 9.36"></polygon>
                                        <polygon id="Line-Copy" fill="#ADADAD" fill-rule="nonzero" points="0 21.2 70.9411765 21.2 70.9411765 18.24 0 18.24"></polygon>
                                        <polygon id="Line-Copy-3" fill="#ADADAD" fill-rule="nonzero" points="0 3.44 70.9411765 3.44 70.9411765 0.48 0 0.48"></polygon>
                                    </g>
                                    <rect id="Rectangle-2" fill="#AAD9ED" x="76.8529412" y="0" width="70.9411765" height="35.52"></rect>
                                </g>
                            </g>
                            <g id="Group-7-Copy" mask="url(#mask-4)">
                                <g transform="translate(11.823529, 169.680000)">
                                    <g id="Group-6" stroke-width="1" fill="none" transform="translate(0.000000, 2.184005)">
                                        <polygon id="Line" fill="#ADADAD" fill-rule="nonzero" points="0 30.08 70.9411765 30.08 70.9411765 27.12 0 27.12"></polygon>
                                        <polygon id="Line-Copy-2" fill="#ADADAD" fill-rule="nonzero" points="0 12.32 70.9411765 12.32 70.9411765 9.36 0 9.36"></polygon>
                                        <polygon id="Line-Copy" fill="#ADADAD" fill-rule="nonzero" points="0 21.2 70.9411765 21.2 70.9411765 18.24 0 18.24"></polygon>
                                        <polygon id="Line-Copy-3" fill="#ADADAD" fill-rule="nonzero" points="0 3.44 70.9411765 3.44 70.9411765 0.48 0 0.48"></polygon>
                                    </g>
                                    <rect id="Rectangle-2" fill="#81D42C" x="76.8529412" y="0" width="70.9411765" height="35.52"></rect>
                                </g>
                            </g>
                            <rect id="Rectangle-2-Copy-2" fill="#0083BB" mask="url(#mask-4)" x="11.8235294" y="110.48" width="147.794118" height="48.84"></rect>
                            <rect id="Rectangle-2-Copy-3" fill="#0087C1" mask="url(#mask-4)" x="11.8235294" y="217.04" width="147.794118" height="17.6711994"></rect>
                        </g>
                        <ellipse id="lock" stroke="#B5B5B5" stroke-width="0.25" cx="99.9589255" cy="277.474671" rx="7.42235807" ry="7.41822851"></ellipse>
                        <ellipse id="camera" stroke="#B5B5B5" stroke-width="0.25" cx="99.0048735" cy="15.7132156" rx="2.76684337" ry="2.76530398"></ellipse>
                    </g>
                    <g id="iphone" transform="translate(0.000000, 112.000000)">
                        <path d="M104.45824,254.654985 L14.7265417,254.654985 C6.59361813,254.654985 0.000916798961,248.000358 0.000916798961,239.789669 L0.000916798961,14.9406094 C0.000916798961,6.72992048 6.59361813,0.0752933092 14.7265417,0.0752933092 L104.45824,0.0752933092 C112.591164,0.0752933092 119.183865,6.72992048 119.183865,14.9406094 L119.183865,239.789669 C119.183865,248.000358 112.591164,254.654985 104.45824,254.654985 Z" id="bezel" stroke="#B5B5B5" stroke-width="0.2" fill="#000000" fill-rule="nonzero"></path>
                        <rect id="screen" stroke="#B5B5B5" stroke-width="0.25" fill="#F0F0F0" fill-rule="nonzero" x="8.25119065" y="33.463693" width="102.617308" height="185.05794"></rect>
                        <g id="Group-5" transform="translate(20.658537, 41.511628)">
                            <g id="Group-3" transform="translate(0.000000, 97.848837)" stroke="#ADADAD">
                                <path d="M0,32.346723 L77.4399993,32.346723" id="Line-Copy-4"></path>
                                <path d="M0,12.9386892 L77.4399993,12.9386892" id="Line-Copy-5"></path>
                                <path d="M0,22.6427061 L77.4399993,22.6427061" id="Line-Copy-6"></path>
                                <path d="M0,3.2346723 L77.4399993,3.2346723" id="Line-Copy-7"></path>
                            </g>
                            <ellipse id="Oval-3" fill="#37B9F1" cx="39.8414634" cy="22.2383721" rx="22.1341463" ry="22.2383721"></ellipse>
                            <rect id="Rectangle-2" fill="#8ED841" x="0" y="53.372093" width="77.4399993" height="35.5813953"></rect>
                            <rect id="Rectangle-2-Copy" fill="#AAD9ED" x="0" y="142.325581" width="77.4399993" height="34.2470936"></rect>
                        </g>
                        <path d="M70.59352,23.9321178 C70.59352,24.5223801 70.1910452,24.9983082 69.695057,24.9983082 L51.2655643,24.9983082 C50.7686593,24.9983082 50.3671013,24.5214506 50.3671013,23.9321178 L50.3671013,21.5338864 C50.3671013,20.9436241 50.7695761,20.467696 51.2655643,20.467696 L69.695057,20.467696 C70.1910452,20.467696 70.59352,20.9445536 70.59352,21.5338864 L70.59352,23.9321178 Z" id="speaker" stroke="#B5B5B5" stroke-width="0.25"></path>
                        <ellipse id="camera" stroke="#B5B5B5" stroke-width="0.25" cx="60.5087314" cy="11.1545643" rx="2.75039688" ry="2.78864108"></ellipse>
                        <ellipse id="lock" stroke="#B5B5B5" stroke-width="0.25" cx="59.6286044" cy="236.105875" rx="9.20466157" ry="9.29639982"></ellipse>
                    </g>
                </g>
            </g>
        </g>
    </g>
</svg>