<?xml version="1.0" encoding="UTF-8"?>
<svg width="320px" height="334px" viewBox="0 0 320 334" version="1.1" xmlns="http://www.w3.org/2000/svg" xmlns:xlink="http://www.w3.org/1999/xlink">
    <!-- Generator: Sketch 49 (51002) - http://www.bohemiancoding.com/sketch -->
    <title>noun_1321203_cc</title>
    <desc>Created with Sketch.</desc>
    <defs></defs>
    <g id="visuals" stroke="none" stroke-width="1" fill="none" fill-rule="evenodd">
        <g id="Home" transform="translate(-388.000000, -1908.000000)">
            <g id="Group-15" transform="translate(388.000000, 1908.000000)">
                <g id="noun_1321203_cc">
                    <path d="M262.346801,39.2188552 C267.175084,33.8316498 272.558923,33.2693603 278.511785,37.5353535 C282.43771,40.5656566 286.646465,44.996633 291.138047,50.8350168 C297.309764,59.1414141 301.013468,64.023569 302.249158,65.4814815 C303.03367,66.2659933 304.043771,67.7811448 305.276094,70.026936 C308.868687,74.7407407 310.552189,77.7710438 310.326599,79.1178451 C310.215488,80.6902357 307.801347,83.3838384 303.090909,87.1986532 L297.367003,92.2491582 C295.461279,93.8181818 295.010101,95.1683502 296.020202,96.2895623 C298.488215,99.3198653 300.006734,103.52862 300.569024,108.915825 L302.252525,122.215488 C303.037037,126.255892 303.824916,128.555556 304.609428,129.117845 C305.390572,129.902357 307.750842,130.353535 311.680135,130.464646 C315.158249,130.801347 317.350168,131.531987 318.245791,132.653199 C319.478114,133.6633 320.040404,135.962963 319.929293,139.555556 C319.929293,141.127946 319.760943,148.141414 319.424242,160.599327 C319.20202,169.127946 319.255892,176.198653 319.592593,181.811448 C319.93266,187.983165 317.178451,191.127946 311.346801,191.239057 L302.424242,192.417508 C301.077441,192.52862 300.06734,192.86532 299.393939,193.427609 C298.835017,193.875421 298.215488,194.83165 297.542088,196.289562 C296.979798,198.535354 295.636364,201.003367 293.501684,203.69697 C292.26936,205.494949 290.417508,207.905724 287.949495,210.936027 C286.040404,213.06734 283.289562,216.377104 279.700337,220.868687 C275.097643,225.582492 274.649832,230.185185 278.353535,234.673401 C281.720539,238.488215 280.939394,241.686869 276,244.26936 C270.047138,247.188552 261.747475,252.62963 251.084175,260.599327 C248.053872,262.282828 243.676768,265.030303 237.952862,268.848485 C233.353535,271.767677 230.040404,270.979798 228.023569,266.491582 C226.676768,263.79798 225.777778,262.114478 225.326599,261.441077 C224.094276,259.757576 222.632997,258.858586 220.949495,258.747475 C215.787879,258.410774 210.737374,259.084175 205.79798,260.767677 C200.747475,262.340067 198.841751,265.818182 200.074074,271.205387 L201.420875,276.760943 C201.757576,281.700337 199.515152,284.393939 194.686869,284.841751 L138.626263,290.060606 C136.383838,290.282828 134.757576,289.892256 133.747475,288.882155 C132.511785,287.760943 132.003367,286.188552 132.232323,284.16835 C133.242424,279.117845 132.289562,275.245791 129.367003,272.552189 C127.346801,270.757576 123.700337,269.242424 118.424242,268.006734 C113.936027,266.771044 110.232323,266.212121 107.313131,266.323232 C103.383838,266.659933 99.7946128,268.232323 96.5387205,271.037037 C93.2828283,273.73064 90.8181818,275.023569 89.1346801,274.909091 C88.5723906,274.909091 85.9360269,273.73064 81.2188552,271.373737 C75.8316498,268.905724 69.4343434,264.582492 62.026936,258.410774 C53.0505051,251.340067 46.8754209,246.740741 43.5084175,244.606061 C38.6835017,241.686869 36.2154882,239.498316 36.1043771,238.040404 C35.993266,236.693603 37.7878788,234 41.4915825,229.959596 C43.6228956,227.602694 44.969697,225.808081 45.5319865,224.572391 C46.5420875,222.552189 46.3164983,220.474747 44.8585859,218.343434 C44.5218855,217.895623 42.7811448,216.043771 39.6397306,212.787879 C36.8350168,211.552189 35.3198653,210.037037 35.0909091,208.242424 C34.8686869,206.670034 34.8114478,205.774411 34.9225589,205.548822 C34.9225589,204.649832 35.5420875,204.144781 36.7744108,204.03367 C40.3670034,203.811448 43.9023569,202.461279 47.3804714,199.993266 C51.4208754,196.848485 54.5084175,194.491582 56.6397306,192.922559 C58.2121212,191.686869 59.7272727,191.575758 61.1851852,192.585859 C60.0639731,195.616162 57.4814815,198.252525 53.4410774,200.498316 C48.5016835,203.30303 45.4747475,205.323232 44.3501684,206.558923 C44.2390572,207.794613 45.2525253,209.646465 47.3804714,212.114478 C51.7575758,217.053872 54.7878788,219.579125 56.4713805,219.690236 C58.043771,219.915825 61.5218855,217.838384 66.9090909,213.461279 C67.8080808,212.89899 71.0606061,210.821549 76.6734007,207.232323 C67.3569024,192.080808 63.037037,177.434343 63.7070707,163.292929 C64.9427609,137.478114 71.0606061,115.592593 82.0572391,97.6363636 C88.4545455,86.8619529 97.7710438,77.7710438 110.003367,70.3636364 C122.912458,62.3939394 137.670034,56.7811448 154.279461,53.5286195 C167.410774,51.2828283 179.868687,50.9461279 191.653199,52.5185185 C193.3367,52.5185185 194.350168,52.7441077 194.683502,53.1919192 C196.255892,56.6700337 199.003367,59.026936 202.93266,60.2626263 C207.757576,61.3838384 211.239057,62.3400673 213.37037,63.1245791 C221.003367,66.043771 227.511785,71.4309764 232.89899,79.2861953 C244.346801,95.6734007 251.478114,110.205387 254.282828,122.888889 C259.555556,148.030303 257.929293,168.905724 249.400673,185.515152 C242.888889,198.309764 235.76431,208.636364 228.020202,216.491582 C218.818182,225.919192 207.929293,232.59596 195.360269,236.525253 C180.545455,241.127946 166.121212,244.043771 152.090909,245.279461 C146.929293,245.616162 140.417508,244.774411 132.56229,242.754209 C129.757576,242.306397 127.569024,242.191919 125.996633,242.417508 C124.20202,242.86532 122.572391,244.215488 121.117845,246.457912 C120.215488,248.141414 118.087542,250.161616 114.720539,252.518519 C113.037037,254.20202 112.306397,255.774411 112.531987,257.232323 C112.872054,258.801347 114.215488,259.979798 116.572391,260.767677 C120.279461,262.003367 122.969697,262.619529 124.653199,262.619529 C127.794613,262.734007 130.434343,261.498316 132.565657,258.915825 C134.811448,256.447811 139.579125,253.13468 146.875421,248.983165 C146.427609,252.013468 144.575758,254.707071 141.323232,257.063973 C137.616162,259.646465 135.488215,261.835017 134.925926,263.62963 C138.740741,267.107744 139.69697,271.037037 137.787879,275.414141 C142.16835,273.282828 147.552189,269.185185 153.952862,263.124579 C159.902357,257.511785 164.895623,253.86532 168.93266,252.181818 C157.93266,264.86532 147.83165,274.23569 138.62963,280.296296 C144.131313,281.531987 147.949495,282.037037 150.077441,281.811448 C153.666667,281.700337 156.868687,280.407407 159.673401,277.939394 C160.575758,277.040404 167.531987,271.316498 180.548822,260.767677 C181,263.572391 180.326599,265.818182 178.52862,267.501684 C177.518519,268.400673 175.892256,269.579125 173.646465,271.037037 C172.074074,272.498316 168.484848,275.360269 162.872054,279.622896 C168.59596,280.070707 172.525253,280.127946 174.656566,279.791246 C178.474747,279.117845 181.447811,277.323232 183.579125,274.40404 L185.936027,272.215488 C189.639731,272.326599 191.767677,271.316498 192.329966,269.185185 C192.555556,268.175084 192.498316,265.707071 192.161616,261.777778 C191.824916,258.636364 192.104377,256.447811 193.003367,255.212121 C194.124579,253.86532 195.976431,253.30303 198.558923,253.52862 C206.191919,254.313131 213.037037,253.080808 219.097643,249.824916 C221.228956,248.589226 223.417508,249.151515 225.6633,251.508418 C227.121212,253.191919 228.299663,255.043771 229.198653,257.063973 C230.882155,260.656566 233.969697,261.498316 238.457912,259.589226 C242.387205,257.905724 247.097643,255.043771 252.599327,251.003367 C259.555556,246.063973 264.104377,242.979798 266.23569,241.744108 C268.141414,240.734007 269.040404,239.276094 268.929293,237.367003 C268.929293,235.572391 268.030303,233.888889 266.23569,232.316498 C262.306397,228.276094 262.925926,224.62963 268.087542,221.373737 C278.861953,214.417508 286.383838,203.69697 290.646465,189.218855 C291.094276,187.757576 291.767677,186.915825 292.666667,186.693603 C293.006734,186.468013 293.959596,186.299663 295.531987,186.188552 C302.154882,185.515152 306.080808,184.505051 307.316498,183.158249 C308.548822,181.922559 309.56229,177.828283 310.343434,170.868687 C311.016835,163.013468 311.636364,157.121212 312.198653,153.191919 C312.868687,148.589226 312.367003,145.222222 310.683502,143.090909 C308.774411,140.959596 305.521886,139.612795 300.919192,139.050505 C297.441077,138.602694 295.252525,137.929293 294.353535,137.030303 C293.232323,135.909091 292.952862,133.83165 293.511785,130.801347 C294.973064,118.905724 292.841751,109.141414 287.117845,101.508418 C283.750842,96.5690236 284.535354,92.5858586 289.474747,89.5555556 C294.861953,86.1885522 297.83165,82.989899 298.393939,79.959596 C298.956229,76.7070707 296.936027,72.1043771 292.333333,66.1548822 L280.885522,51.003367 C277.858586,47.2996633 274.936027,45.3905724 272.131313,45.2794613 C269.43771,45.2794613 266.239057,46.962963 262.535354,50.3299663 C260.06734,52.6868687 258.154882,53.8653199 256.811448,53.8653199 C255.239057,53.979798 253.555556,52.9124579 251.760943,50.6666667 C241.882155,40.003367 232.289562,32.5420875 222.973064,28.2760943 L221.959596,27.9393939 C220.276094,26.9292929 219.154882,26.0875421 218.592593,25.4141414 C217.360269,24.2929293 217.360269,22.9461279 218.592593,21.3737374 C220.164983,18.9057239 222.801347,18.9057239 226.508418,21.3737374 C229.090909,23.0572391 233.185185,25.4713805 238.794613,28.6127946 C243.508418,31.4175084 247.212121,34.5050505 249.909091,37.8720539 C251.141414,39.4444444 253.777778,41.2390572 257.821549,43.2592593 C258.700337,42.6969697 260.215488,41.3501684 262.346801,39.2188552 Z M212.013468,19.3501684 C211.451178,22.1548822 209.936027,23.5589226 207.464646,23.5589226 C204.993266,23.5589226 203.875421,21.989899 204.097643,18.8451178 C204.659933,13.7946128 203.818182,10.5387205 201.572391,9.08080808 C199.888889,7.84511785 196.521886,7.3973064 191.47138,7.73400673 L155.949495,7.73400673 C149.777778,8.07070707 146.912458,11.1582492 147.363636,16.993266 C147.474747,20.6969697 146.632997,23.5016835 144.838384,25.4107744 C143.154882,26.8686869 140.518519,27.993266 136.922559,28.7777778 C125.478114,31.4713805 114.420875,36.4107744 103.757576,43.5925926 C100.053872,46.0606061 97.976431,47.6329966 97.5286195,48.3063973 C95.1717172,51.2255892 93.2087542,52.962963 91.6363636,53.5252525 C89.5016835,54.5353535 86.976431,53.8619529 84.0606061,51.5050505 C81.2525253,49.4848485 77.4949495,50.2693603 72.7777778,53.8619529 C67.0538721,58.3501684 62.1750842,64.1885522 58.1313131,71.3703704 C59.3636364,72.3804714 61.047138,72.6599327 63.1818182,72.2121212 C65.5387205,71.6498316 67.3333333,71.7070707 68.5690236,72.3804714 C67.4478114,74.0639731 65.2020202,75.4680135 61.8350168,76.5892256 C58.2457912,77.5993266 55.8855219,78.8922559 54.7643098,80.4612795 C56.3367003,83.1548822 57.8518519,84.7811448 59.3097643,85.3434343 C61.1043771,86.1279461 63.2390572,85.5690236 65.7070707,83.6599327 C67.8383838,81.8653199 69.4646465,81.7542088 70.5892256,83.3232323 C71.2592593,84.3333333 71.2592593,85.3434343 70.5892256,86.3535354 C70.1380471,86.9158249 69.4646465,87.3636364 68.5656566,87.7003367 C64.976431,88.7104377 62.1111111,90.7878788 59.979798,93.9292929 C58.969697,95.2760943 57.3434343,98.5319865 55.0976431,103.693603 C55.996633,104.255892 57.006734,104.424242 58.1279461,104.198653 C59.026936,103.525253 59.8114478,103.131313 60.4848485,103.020202 C61.9427609,101.784512 63.0673401,100.942761 63.8518519,100.494949 C65.4242424,99.7104377 66.6565657,100.158249 67.5555556,101.841751 C68.2289562,103.077441 67.8350168,104.087542 66.3771044,104.872054 C65.5925926,105.319865 64.3535354,105.936027 62.6700337,106.723906 L50.8855219,112.447811 C49.3131313,113.794613 50.1548822,115.983165 53.4107744,119.013468 C54.3097643,119.575758 54.3097643,120.922559 53.4107744,123.053872 C52.5117845,125.410774 51.2255892,126.983165 49.5420875,127.767677 C49.3164983,127.767677 46.6228956,129.451178 41.4612795,132.818182 C37.983165,135.063973 34.7845118,136.242424 31.8653199,136.353535 C28.2727273,136.690236 25.973064,139.104377 24.959596,143.592593 C23.8383838,147.858586 24.6228956,151.56229 27.3164983,154.703704 C27.4276094,154.814815 27.9360269,154.703704 28.8316498,154.367003 C26.5858586,159.080808 25.5757576,165.252525 25.8013468,172.885522 C26.2525253,182.986532 26.2525253,189.272727 25.8013468,191.740741 L28.3265993,192.414141 L54.4208754,175.747475 C53.2996633,178.777778 50.8316498,181.639731 47.016835,184.333333 C42.1885522,187.700337 39.2154882,190.057239 38.0942761,191.40404 C38.3164983,191.62963 39.7205387,192.13468 42.3030303,192.919192 C43.8754209,193.481481 44.6599327,194.602694 44.6599327,196.286195 C41.96633,197.855219 38.7104377,198.811448 34.8956229,199.148148 C34.3333333,199.259259 30.8552189,199.427609 24.4579125,199.653199 C20.4175084,199.653199 18.5656566,197.801347 18.9023569,194.097643 C19.2424242,189.720539 18.6801347,180.350168 17.2188552,165.983165 C16.3198653,154.420875 16.7171717,145.107744 18.4006734,138.037037 C19.5218855,133.212121 20.3636364,130.461279 20.9259259,129.787879 C21.9360269,128.777778 24.4040404,128.161616 28.3299663,127.936027 C33.4915825,127.824916 36.7474747,125.525253 38.0942761,121.03367 C38.8787879,118.228956 40.4511785,114.525253 42.8080808,109.922559 C45.2727273,104.983165 46.9057239,101.3367 47.6868687,98.979798 C49.9326599,92.2457912 49.5420875,87.0808081 46.5084175,83.4915825 C44.8249158,81.4713805 44.040404,79.4511785 44.1515152,77.4309764 C44.4915825,75.6363636 45.6666667,73.5016835 47.6868687,71.03367 C57.2289562,61.1582492 64.020202,53.4141414 68.0606061,47.8013468 C69.2929293,45.7811448 70.9225589,44.3232323 72.9393939,43.4242424 C74.962963,42.5252525 76.8114478,42.3569024 78.4949495,42.9191919 C82.983165,44.4915825 87.4747475,44.4343434 91.962963,42.7508418 C93.6464646,41.96633 97.3501684,39.7205387 103.074074,36.016835 C111.83165,30.2929293 119.407407,26.6464646 125.801347,25.0740741 C133.545455,23.0538721 137.52862,18.9023569 137.754209,12.6161616 C137.979798,9.92255892 139.609428,6.61279461 142.636364,2.68350168 C144.545455,0.663299663 146.397306,-0.178451178 148.191919,0.158249158 C151.333333,0.831649832 155.542088,1.11111111 160.818182,1 C166.878788,0.663299663 171.030303,0.663299663 173.276094,1 C178.215488,1.67340067 186.744108,1.67340067 198.86532,1 C205.151515,0.663299663 209.30303,2.34680135 211.323232,6.05050505 C212.683502,8.85858586 212.909091,13.2929293 212.013468,19.3501684 Z M203.76431,68.1717172 C199.498316,66.9360269 196.299663,65.030303 194.164983,62.4478114 C190.575758,57.959596 184.96633,56.2760943 177.329966,57.3973064 C160.946128,59.1919192 147.252525,61.9427609 136.255892,65.6464646 C110.218855,74.5117845 92.6531987,89.8350168 83.5622896,111.606061 C77.7272727,125.973064 73.8552189,140.56229 71.9461279,155.377104 C69.030303,179.73064 77.5589226,200.6633 97.5387205,218.171717 C112.239057,230.96633 131.097643,237.195286 154.104377,236.858586 C177.111111,235.848485 196.582492,229.845118 212.521886,218.845118 C233.734007,204.478114 245.461279,184.447811 247.707071,158.744108 C249.952862,137.420875 245.855219,117.892256 235.417508,100.158249 C230.707071,91.6296296 226.498316,85.2861953 222.791246,81.1346801 C217.175084,74.962963 210.83165,70.6430976 203.76431,68.1717172 Z M192.144781,117.329966 C195.063973,119.461279 196.690236,121.316498 197.026936,122.885522 C197.474747,124.569024 196.858586,127.037037 195.175084,130.292929 C185.410774,148.585859 176.037037,163.569024 167.057239,175.242424 C158.52862,186.016835 149.720539,185.175084 140.626263,172.717172 C137.481481,177.319865 133.835017,179.956229 129.683502,180.62963 C126.316498,181.077441 121.996633,180.23569 116.717172,178.104377 C104.484848,173.276094 94.8316498,166.767677 87.7609428,158.575758 C85.2929293,155.434343 84.2255892,152.794613 84.5622896,150.6633 C84.7878788,148.417508 86.6397306,146.175084 90.1178451,143.929293 C106.612795,133.717172 117.053872,127.319865 121.430976,124.737374 C126.703704,121.818182 130.296296,119.350168 132.205387,117.329966 C134,115.646465 135.572391,114.804714 136.915825,114.804714 L140.114478,114.804714 C141.350168,114.915825 142.138047,115.589226 142.47138,116.824916 C142.919192,118.282828 141.909091,119.686869 139.441077,121.03367 L104.760943,142.414141 C98.2525253,146.680135 95,150.212121 95,153.020202 C95.1111111,155.824916 98.4242424,159.474747 104.929293,163.962963 C107.515152,165.757576 110.993266,167.441077 115.37037,169.013468 C120.195286,170.585859 123.845118,171.760943 126.313131,172.548822 C129.569024,173.784512 131.643098,172.828283 132.542088,169.686869 C132.882155,168.451178 132.542088,167.552189 131.531987,166.993266 C130.185185,166.319865 129.175084,165.757576 128.501684,165.309764 C124.013468,162.727273 116.828283,160.037037 106.956229,157.228956 C103.589226,156.444444 101.737374,154.872054 101.400673,152.515152 C101.289562,150.942761 101.794613,149.821549 102.915825,149.148148 C103.363636,148.922559 104.599327,148.417508 106.619529,147.632997 C108.86532,146.848485 113.693603,144.491582 121.10101,140.56229 C127.272727,137.420875 132.491582,135.454545 136.754209,134.670034 C142.478114,133.323232 144.387205,130.40404 142.478114,125.915825 C141.915825,123.895623 142.700337,122.885522 144.835017,122.885522 C145.845118,122.885522 146.740741,123.333333 147.52862,124.232323 C150.222222,127.151515 151.175084,130.181818 150.390572,133.323232 C149.491582,136.468013 147.084175,138.542088 143.154882,139.552189 C130.808081,142.919192 121.942761,146.848485 116.555556,151.3367 L142.989899,165.478114 C144.333333,164.579125 145.121212,163.962963 145.343434,163.626263 L174.468013,119.350168 L175.141414,117.329966 C176.599327,114.973064 178.565657,114.410774 181.03367,115.646465 C183.279461,116.767677 183.558923,118.619529 181.875421,121.20202 C178.956229,125.242424 174.690236,131.30303 169.080808,139.383838 C166.612795,142.750842 163.919192,146.959596 161,152.010101 C159.316498,155.040404 156.959596,159.417508 153.929293,165.141414 C152.020202,168.282828 151.626263,171.427609 152.747475,174.569024 C156.565657,174.905724 159.93266,172.996633 162.848485,168.845118 C173.848485,153.915825 181.030303,141.909091 184.397306,132.818182 C185.518519,130.23569 186.30303,128.215488 186.754209,126.757576 C187.424242,124.511785 187.255892,122.380471 186.249158,120.360269 C185.464646,118.676768 185.801347,117.387205 187.259259,116.488215 C188.498316,115.367003 190.127946,115.646465 192.144781,117.329966 Z M215.040404,144.265993 C215.939394,145.050505 217.343434,146.117845 219.249158,147.464646 C224.299663,151.952862 227.218855,155.882155 228.006734,159.249158 C233.727273,154.646465 234.740741,150.720539 231.03367,147.464646 C224.750842,141.740741 218.632997,138.821549 212.683502,138.710438 C212.683502,140.845118 213.468013,142.69697 215.040404,144.265993 Z M208.306397,134 C208.757576,131.643098 209.488215,129.959596 210.494949,128.949495 C214.424242,130.296296 218.969697,132.316498 224.131313,135.010101 C227.050505,136.47138 231.37037,138.824916 237.094276,142.080808 C240.124579,143.76431 241.976431,146.232323 242.649832,149.488215 C243.323232,152.62963 242.538721,155.602694 240.292929,158.410774 C235.020202,165.144781 231.090909,169.915825 228.508418,172.720539 C223.683502,177.771044 218.912458,181.811448 214.198653,184.841751 C210.720539,186.747475 207.858586,188.936027 205.612795,191.407407 C202.919192,194.43771 200.16835,195.616162 197.363636,194.942761 C194.670034,194.158249 192.592593,191.855219 191.13468,188.040404 L189.952862,185.010101 C187.37037,180.632997 186.249158,177.828283 186.585859,176.592593 C186.811448,175.582492 189.053872,173.89899 193.319865,171.542088 L214.363636,159.589226 C216.387205,158.353535 217.282828,157.121212 217.060606,155.885522 C217.060606,154.538721 215.936027,153.360269 213.693603,152.350168 C211.670034,150.892256 210.215488,149.882155 209.313131,149.319865 C206.959596,148.084175 205.555556,146.515152 205.104377,144.606061 C204.434343,142.811448 204.882155,140.959596 206.451178,139.050505 C207.242424,138.151515 207.858586,136.468013 208.306397,134 Z M223.79798,167.670034 C226.939394,165.20202 228.343434,162.56229 228.006734,159.757576 C226.434343,160.656566 220.821549,163.740741 211.171717,169.016835 C204.212121,172.83165 198.656566,176.592593 194.505051,180.296296 C198.656566,183.548822 202.86532,183.720539 207.131313,180.801347 C211.171717,177.882155 216.723906,173.505051 223.79798,167.670034 Z M55.7811448,140.734007 L35.4107744,153.69697 C33.0538721,155.154882 31.03367,155.323232 29.3501684,154.20202 C30.4713805,153.417508 34.6228956,150.329966 41.8047138,144.942761 C46.96633,141.239057 51.4579125,138.771044 55.2727273,137.535354 C56.7373737,138.545455 56.9023569,139.609428 55.7811448,140.734007 Z M53.7643098,159.589226 C46.1279461,167.892256 37.7710438,174.178451 28.6801347,178.444444 C33.1683502,173.508418 36.9292929,169.804714 39.959596,167.333333 C44.4444444,163.626263 49.047138,161.047138 53.7643098,159.589226 Z M85.4107744,225.074074 C83.3905724,227.542088 78.9023569,230.855219 71.9427609,235.006734 C65.7710438,238.710438 61.6195286,242.525253 59.4848485,246.454545 C64.8754209,251.505051 68.5218855,254.141414 70.4276094,254.367003 C72.2222222,254.478114 76.1515152,252.569024 82.2121212,248.643098 C85.8047138,245.949495 88.6094276,243.872054 90.6296296,242.414141 C94.1077441,239.83165 97.7037037,237.983165 101.40404,236.858586 C98.4882155,240.787879 94.1077441,244.713805 88.2760943,248.643098 C81.7643098,253.131313 77.5016835,256.555556 75.4781145,258.912458 C80.3063973,262.501684 84.2356902,264.353535 87.2626263,264.468013 C90.5185185,264.579125 94.1683502,263.121212 98.2053872,260.090909 L105.444444,255.040404 C110.158249,251.3367 112.683502,249.316498 113.020202,248.979798 C115.939394,246.511785 118.239057,244.040404 119.922559,241.572391 C108.249158,234.952862 100.56229,230.292929 96.8585859,227.599327 C88.6632997,222.10101 82.0976431,215.983165 77.1582492,209.249158 L50.7272727,232.818182 C49.1548822,234.164983 48.2020202,235.286195 47.8653199,236.185185 C47.4141414,237.417508 47.976431,238.767677 49.5488215,240.225589 C51.3434343,241.686869 52.5757576,242.582492 53.2525253,242.919192 C54.8249158,243.367003 56.3400673,242.804714 57.7979798,241.23569 C60.1548822,238.989899 63.7508418,236.296296 68.5723906,233.154882 C73.8484848,229.902357 77.4410774,227.430976 79.3468013,225.747475 C80.5824916,224.848485 81.5353535,224.343434 82.2087542,224.232323 C83.3367003,223.895623 84.4006734,224.178451 85.4107744,225.074074 Z" id="Shape" fill="#292929" fill-rule="nonzero"></path>
                    <text id="Created-by-Saeful-Mu" fill="#000000" font-family="Helvetica-Bold, Helvetica" font-size="5" font-weight="bold">
                        <tspan x="0" y="332.326599">Created by Saeful Muslim from the Noun Project</tspan>
                    </text>
                </g>
            </g>
        </g>
    </g>
</svg>