<?xml version="1.0" encoding="UTF-8"?>
<svg width="140px" height="40px" viewBox="0 0 140 40" version="1.1" xmlns="http://www.w3.org/2000/svg" xmlns:xlink="http://www.w3.org/1999/xlink">
    <!-- Generator: Sketch 49 (51002) - http://www.bohemiancoding.com/sketch -->
    <title>expedia</title>
    <desc>Created with Sketch.</desc>
    <defs></defs>
    <g id="visuals" stroke="none" stroke-width="1" fill="none" fill-rule="evenodd">
        <g id="Home" transform="translate(-844.000000, -3858.000000)" fill-rule="nonzero">
            <g id="Stacked-Group-4" transform="translate(640.000000, 3858.000000)">
                <g id="expedia" transform="translate(204.000000, 0.000000)">
                    <g id="g5075" transform="translate(0.208628, 1.610541)" fill="#F7B916">
                        <path d="M20.6525833,27.333124 L30.9971516,9.51844561 C30.8143854,9.03696781 30.6316191,8.55549002 30.4122997,8.07401223 L12.0625708,0.22222052 L0.328979203,17.2591271 C0.365532448,17.5183843 0.402085693,17.8146784 0.475192182,18.0739356 L20.6525833,27.333124 Z" id="path5077"></path>
                    </g>
                    <g id="g5007" transform="translate(51.049001, 17.432308)" fill="#1F3562">
                        <path d="M15.1695966,13.6295252 L10.892867,13.6295252 C10.892867,13.6295252 10.8563137,13.6295252 10.8563137,13.5924885 L7.20098923,9.07400457 L3.5091115,13.6295252 C3.5091115,13.6295252 3.47255826,13.666562 3.47255826,13.666562 L0.0731064896,13.666562 C0.0365532448,13.666562 0.0365532448,13.666562 0.0365532448,13.6295252 C0.0365532448,13.6295252 0.0365532448,13.5924885 0.0365532448,13.5554517 L5.44643348,6.81476261 L0.109659734,0.148147013 C0.109659734,0.11111026 0.109659734,0.11111026 0.109659734,0.0740735067 C0.109659734,0.0740735067 0.146212979,0.0370367533 0.146212979,0.0370367533 L4.38638938,0.0370367533 C4.38638938,0.0370367533 4.42294262,0.0370367533 4.42294262,0.0740735067 L7.63962816,4.11107962 L10.9294202,0.0740735067 C10.9294202,0.0740735067 10.9659734,0.0370367533 10.9659734,0.0370367533 L14.4385317,0.0370367533 C14.4750849,0.0370367533 14.4750849,0.0370367533 14.4750849,0.0740735067 C14.4750849,0.11111026 14.4750849,0.11111026 14.4750849,0.148147013 L9.39418391,6.33328482 L15.2061498,13.5554517 C15.2061498,13.5554517 15.2061498,13.5924885 15.2061498,13.6295252 C15.2061498,13.6295252 15.1695966,13.6295252 15.1695966,13.6295252" id="path5009"></path>
                    </g>
                    <g id="g5011" transform="translate(81.883638, 16.997163)" fill="#1F3562">
                        <path d="M7.4203087,2.88886676 C5.51953997,2.88886676 4.2401764,4.03700611 3.87464395,6.07402755 L10.308015,6.07402755 L10.308015,5.92588053 C10.2714618,4.33330014 9.10175796,2.88886676 7.4203087,2.88886676 M13.5978071,8.14808573 C13.5978071,8.14808573 13.5612538,8.18512249 13.5612538,8.18512249 L3.80153746,8.18512249 C4.02085693,10.4814012 5.48298672,11.8147243 7.85894763,11.8147243 C9.32107743,11.8147243 10.892867,11.2962098 13.0860616,10.1110337 C13.1226149,10.0739969 13.1591681,10.1110337 13.1591681,10.1851072 L13.1591681,13.2221209 C13.1591681,13.2591577 13.1591681,13.2591577 13.1226149,13.2591577 C11.0756332,14.1480398 8.99209822,14.7406278 7.38375545,14.7406278 C3.1801323,14.7406278 0.146212979,11.6295405 0.146212979,7.37031391 C0.146212979,3.11108728 3.1801323,7.10537293e-15 7.38375545,7.10537293e-15 C11.2218462,7.10537293e-15 13.6709136,2.62960949 13.6709136,6.22217456 C13.7074668,6.74068911 13.5978071,8.11104898 13.5978071,8.14808573" id="path5013"></path>
                    </g>
                    <g id="g5015" transform="translate(113.111990, 10.194882)" fill="#1F3562">
                        <path d="M2.19319469,4.48144715 C0.98693761,4.48144715 0.0365532448,3.51849157 0.0365532448,2.33331546 C0.0365532448,1.1111026 1.02349085,0.11111026 2.19319469,0.11111026 C3.39945177,0.11111026 4.34983613,1.1111026 4.34983613,2.33331546 C4.34983613,3.51849157 3.39945177,4.48144715 2.19319469,4.48144715 Z M0.438638938,20.8887289 C0.402085693,20.8887289 0.402085693,20.8516921 0.402085693,20.8146554 L0.402085693,7.37031391 C0.402085693,7.33327716 0.402085693,7.33327716 0.438638938,7.33327716 L3.94775044,7.33327716 C3.98430368,7.33327716 3.98430368,7.37031391 3.98430368,7.37031391 L3.98430368,20.8516921 C3.98430368,20.8887289 3.94775044,20.9257656 3.94775044,20.9257656 L0.438638938,20.9257656 L0.438638938,20.8887289 Z" id="path5017"></path>
                    </g>
                    <g id="g5019" transform="translate(66.975871, 16.846424)" fill="#1F3562">
                        <path d="M5.70230619,12.2221286 C5.04434778,12.2221286 4.42294262,12.1480551 3.65532448,11.9258346 L3.65532448,3.29627105 C4.53260236,2.99997702 5.3002205,2.88886676 6.03128539,2.88886676 C8.48035279,2.88886676 10.1252488,4.70366767 10.1252488,7.44438742 C10.1252488,10.3332542 8.37069306,12.2221286 5.70230619,12.2221286 M6.65269055,0.11111026 C5.66575294,0.11111026 4.64226209,0.296294027 3.61877124,0.66666156 L0.109659734,0.66666156 C0.0731064896,0.66666156 0.0731064896,0.703698313 0.0731064896,0.703698313 L0.0731064896,22.7776033 C1.13315059,22.6294563 2.41251416,22.2590888 3.69187773,21.3331699 L3.69187773,14.6295176 C4.5691556,14.7406278 5.26366725,14.8517381 5.9581789,14.8517381 C10.746654,14.8517381 13.890233,11.9258346 13.890233,7.40735067 C13.8171265,3.11108728 10.8563137,0.11111026 6.65269055,0.11111026" id="path5021"></path>
                    </g>
                    <g id="g5023" transform="translate(96.739570, 8.617524)" fill="#1F3562">
                        <path d="M10.3811215,19.3331852 C9.28452418,19.9257733 8.29758657,20.1850306 7.38375545,20.1850306 C5.19056076,20.1850306 3.91119719,18.6294869 3.91119719,16.0369142 C3.91119719,13.0369372 5.59264646,11.0739892 8.15137359,11.0739892 C8.84588524,11.0739892 9.54039689,11.259173 10.3811215,11.6295405 L10.3811215,19.3331852 Z M10.3811215,1.74072741 L10.3811215,8.77771054 C9.35763067,8.48141651 8.44379955,8.3332695 7.52996843,8.3332695 C3.36289852,8.3332695 0.182766224,11.5184303 0.182766224,15.7776569 C0.182766224,19.9998468 2.96081283,23.0368606 6.79890353,23.0368606 C8.11482035,23.0368606 9.35763067,22.7035298 10.8197605,21.925758 L10.8197605,23.1479708 C11.7701448,22.9627871 12.9032954,22.5553828 13.9998928,21.777611 L13.9998928,0.296294027 C12.9398487,0.44444104 11.6604851,0.814808573 10.3811215,1.74072741 Z" id="path5025"></path>
                    </g>
                    <g id="g5027" transform="translate(118.934628, 16.772906)" fill="#1F3562">
                        <path d="M10.3811215,11.1480628 C9.32107743,11.7776876 8.4072463,12.0739816 7.60307492,12.0739816 C5.26366725,12.0739816 3.87464395,10.5184379 3.87464395,7.88882846 C3.87464395,4.92588819 5.51953997,2.92590351 7.96860737,2.92590351 C8.62656577,2.92590351 9.43073716,3.18516079 10.3811215,3.70367533 L10.3811215,11.1480628 Z M13.9998928,0.5555513 C13.9998928,0.481477793 13.9267863,0.407404287 13.8536798,0.407404287 L11.0025267,0.407404287 C10.9294202,0.407404287 10.8563137,0.481477793 10.8563137,0.5555513 L10.8563137,1.03702909 L10.7832072,1.03702909 C9.4672904,0.44444104 8.33413982,0.185183767 7.23754247,0.185183767 C3.28979203,0.185183767 0.219319469,3.48145481 0.219319469,7.74068145 C0.219319469,12.0369448 2.99736607,14.8887748 7.09132949,14.8887748 C8.18792684,14.8887748 9.61350338,14.8147013 10.9294202,13.2591577 L10.9294202,14.9998851 C11.8798046,14.8147013 12.9764019,14.407297 13.9998928,13.6295252 L13.9998928,0.5555513 Z" id="path5029"></path>
                    </g>
                    <g id="g5031" transform="translate(37.301838, 9.057669)" fill="#1F3562">
                        <path d="M4.05741017,18.5924502 L12.9032954,18.5924502 C12.7570824,19.5924425 12.4281032,20.7776186 11.6604851,21.9627947 L4.09396342,21.9627947 L2.55872714,21.9627947 L2.4490674,21.9627947 C1.31591681,21.9627947 0.402085693,21.0739126 0.292425958,19.96281 C0.292425958,19.96281 0.292425958,19.9257733 0.292425958,19.9257733 L0.292425958,10.7406585 L0.292425958,2.29627871 C0.292425958,2.29627871 0.292425958,2.25924195 0.292425958,2.25924195 C0.402085693,1.14813935 1.31591681,0.259257273 2.4490674,0.259257273 C2.48562065,0.259257273 2.52217389,0.259257273 2.55872714,0.259257273 L12.8667422,0.259257273 C12.7205292,1.25924961 12.39155,2.44442572 11.6239318,3.62960183 L4.05741017,3.62960183 L4.05741017,8.44437976 L11.5508254,8.44437976 C11.5873786,8.44437976 11.6239318,8.48141651 11.6239318,8.48141651 L11.6239318,11.8147243 C11.6239318,11.8517611 11.5873786,11.8517611 11.5508254,11.8517611 L4.05741017,11.8517611 L4.05741017,18.5924502 Z" id="path5033"></path>
                    </g>
                    <g id="g5035" transform="translate(51.049294, 17.432604)" fill="#1F3562">
                        <path d="M15.1695966,13.6295252 L10.892867,13.6295252 C10.892867,13.6295252 10.8563137,13.6295252 10.8563137,13.6295252 L7.20098923,9.07400457 L3.5091115,13.6295252 C3.5091115,13.6295252 3.47255826,13.6295252 3.47255826,13.6295252 L0.0731064896,13.6295252 C0.0365532448,13.6295252 0.0365532448,13.6295252 0.0365532448,13.5924885 C0.0365532448,13.5924885 0.0365532448,13.5554517 0.0365532448,13.518415 L5.44643348,6.77772586 L0.109659734,0.11111026 C0.109659734,0.0740735067 0.109659734,0.0740735067 0.109659734,0.0370367533 C0.109659734,0.0370367533 0.146212979,-3.55268647e-15 0.146212979,-3.55268647e-15 L4.38638938,-3.55268647e-15 C4.38638938,-3.55268647e-15 4.42294262,-3.55268647e-15 4.42294262,0.0370367533 L7.63962816,4.07404287 L10.9294202,0.0370367533 C10.9294202,0.0370367533 10.9659734,-2.23687666e-15 10.9659734,-2.23687666e-15 L14.4385317,-2.23687666e-15 C14.4750849,-2.23687666e-15 14.4750849,-2.23687666e-15 14.4750849,0.0370367533 C14.4750849,0.0740735067 14.4750849,0.0740735067 14.4750849,0.11111026 L9.39418391,6.33328482 L15.2061498,13.5554517 C15.2061498,13.5554517 15.2427031,13.5924885 15.2061498,13.6295252 C15.2061498,13.6295252 15.1695966,13.6295252 15.1695966,13.6295252" id="path5037"></path>
                    </g>
                    <g id="g5039" transform="translate(81.883638, 16.997460)" fill="#1F3562">
                        <path d="M7.4203087,2.88886676 C5.51953997,2.88886676 4.2401764,4.03700611 3.87464395,6.07402755 L10.308015,6.07402755 L10.308015,5.92588053 C10.2714618,4.33330014 9.10175796,2.88886676 7.4203087,2.88886676 M13.5978071,8.14808573 C13.5978071,8.14808573 13.5612538,8.18512249 13.5612538,8.18512249 L3.80153746,8.18512249 C3.98430368,10.4814012 5.48298672,11.8147243 7.85894763,11.8147243 C9.32107743,11.8147243 10.892867,11.2962098 13.0860616,10.1110337 C13.1226149,10.0739969 13.1591681,10.1110337 13.1591681,10.1851072 L13.1591681,13.2221209 C13.1591681,13.2591577 13.1591681,13.2591577 13.1226149,13.2591577 C11.0756332,14.1480398 8.99209822,14.7406278 7.38375545,14.7406278 C3.1801323,14.7406278 0.146212979,11.6295405 0.146212979,7.37031391 C0.146212979,3.11108728 3.1801323,7.10537293e-15 7.38375545,7.10537293e-15 C11.2218462,7.10537293e-15 13.6709136,2.62960949 13.6709136,6.22217456 C13.7074668,6.74068911 13.5978071,8.11104898 13.5978071,8.14808573" id="path5041"></path>
                    </g>
                    <g id="g5043" transform="translate(113.112282, 10.194882)" fill="#1F3562">
                        <path d="M2.19319469,4.48144715 C0.98693761,4.48144715 0.0365532448,3.51849157 0.0365532448,2.33331546 C0.0365532448,1.1111026 1.02349085,0.11111026 2.19319469,0.11111026 C3.39945177,0.11111026 4.34983613,1.1111026 4.34983613,2.33331546 C4.34983613,3.51849157 3.39945177,4.48144715 2.19319469,4.48144715 Z M0.438638938,20.8887289 C0.402085693,20.8887289 0.402085693,20.8516921 0.402085693,20.8516921 L0.402085693,7.37031391 C0.402085693,7.33327716 0.402085693,7.33327716 0.438638938,7.33327716 L3.94775044,7.33327716 C3.98430368,7.33327716 3.98430368,7.37031391 3.98430368,7.37031391 L3.98430368,20.8516921 C3.98430368,20.8887289 3.94775044,20.8887289 3.94775044,20.8887289 L0.438638938,20.8887289 Z" id="path5045"></path>
                    </g>
                    <g id="g5047" transform="translate(66.975871, 16.846720)" fill="#1F3562">
                        <path d="M5.70230619,12.2221286 C5.08090103,12.2221286 4.42294262,12.1480551 3.65532448,11.9258346 L3.65532448,3.29627105 C4.53260236,2.99997702 5.3002205,2.88886676 6.03128539,2.88886676 C8.48035279,2.88886676 10.1252488,4.70366767 10.1252488,7.44438742 C10.1252488,10.3332542 8.37069306,12.2221286 5.70230619,12.2221286 M6.65269055,0.11111026 C5.66575294,0.11111026 4.64226209,0.296294027 3.61877124,0.66666156 L0.109659734,0.66666156 C0.0731064896,0.66666156 0.0731064896,0.703698313 0.0731064896,0.740735067 L0.0731064896,22.8146401 C1.13315059,22.666493 2.41251416,22.2961255 3.69187773,21.3702067 L3.69187773,14.6665543 C4.5691556,14.7776646 5.26366725,14.8887748 5.9581789,14.8887748 C10.746654,14.8887748 13.890233,11.9628713 13.890233,7.44438742 C13.8171265,3.11108728 10.8563137,0.11111026 6.65269055,0.11111026" id="path5049"></path>
                    </g>
                    <g id="g5051" transform="translate(96.739570, 8.617524)" fill="#1F3562">
                        <path d="M10.3811215,19.3331852 C9.28452418,19.9257733 8.29758657,20.1850306 7.38375545,20.1850306 C5.19056076,20.1850306 3.91119719,18.6294869 3.91119719,15.9998774 C3.91119719,12.9999004 5.59264646,11.0369525 8.15137359,11.0369525 C8.84588524,11.0369525 9.54039689,11.2221363 10.3811215,11.5925038 L10.3811215,19.3331852 Z M10.3811215,1.74072741 L10.3811215,8.77771054 C9.35763067,8.48141651 8.44379955,8.3332695 7.52996843,8.3332695 C3.36289852,8.3332695 0.182766224,11.5184303 0.182766224,15.7776569 C0.182766224,19.9998468 2.96081283,23.0368606 6.79890353,23.0368606 C8.11482035,23.0368606 9.35763067,22.7035298 10.8197605,21.925758 L10.8197605,23.1479708 C11.7701448,22.9627871 12.9032954,22.5553828 13.9998928,21.777611 L13.9998928,0.296294027 C12.9398487,0.44444104 11.6604851,0.814808573 10.3811215,1.74072741 Z" id="path5053"></path>
                    </g>
                    <g id="g5055" transform="translate(118.934628, 16.773239)" fill="#1F3562">
                        <path d="M10.3811215,11.1480628 C9.32107743,11.7776876 8.4072463,12.0739816 7.60307492,12.0739816 C5.26366725,12.0739816 3.87464395,10.5184379 3.87464395,7.88882846 C3.87464395,4.92588819 5.51953997,2.92590351 7.96860737,2.92590351 C8.62656577,2.92590351 9.43073716,3.18516079 10.3811215,3.70367533 L10.3811215,11.1480628 Z M13.9998928,0.5555513 C13.9998928,0.481477793 13.9267863,0.407404287 13.8536798,0.407404287 L11.0025267,0.407404287 C10.9294202,0.407404287 10.8563137,0.481477793 10.8563137,0.5555513 L10.8563137,1.03702909 L10.7832072,1.03702909 C9.4672904,0.44444104 8.33413982,0.185183767 7.23754247,0.185183767 C3.28979203,0.185183767 0.219319469,3.48145481 0.219319469,7.74068145 C0.219319469,12.0369448 2.99736607,14.8887748 7.09132949,14.8887748 C8.18792684,14.8887748 9.61350338,14.8147013 10.9294202,13.2591577 L10.9294202,14.9998851 C11.8798046,14.8147013 12.9764019,14.407297 13.9998928,13.6295252 L13.9998928,0.5555513 Z" id="path5057"></path>
                    </g>
                    <g id="g5059" transform="translate(37.302167, 9.058002)" fill="#1F3562">
                        <path d="M4.05741017,18.5924502 L12.9032954,18.5924502 C12.7570824,19.5924425 12.4281032,20.7776186 11.6604851,21.9627947 L4.09396342,21.9627947 L2.55872714,21.9627947 L2.4490674,21.9627947 C1.31591681,21.9627947 0.402085693,21.0739126 0.292425958,19.96281 C0.292425958,19.96281 0.292425958,19.9257733 0.292425958,19.9257733 L0.292425958,10.7406585 L0.292425958,2.29627871 C0.292425958,2.29627871 0.292425958,2.25924195 0.292425958,2.25924195 C0.402085693,1.14813935 1.31591681,0.259257273 2.4490674,0.259257273 C2.48562065,0.259257273 2.52217389,0.259257273 2.55872714,0.259257273 L12.8667422,0.259257273 C12.7205292,1.25924961 12.39155,2.44442572 11.6239318,3.62960183 L4.05741017,3.62960183 L4.05741017,8.44437976 L11.5508254,8.44437976 C11.5873786,8.44437976 11.6239318,8.48141651 11.6239318,8.48141651 L11.6239318,11.8147243 C11.6239318,11.8517611 11.5873786,11.8517611 11.5508254,11.8517611 L4.05741017,11.8517611 L4.05741017,18.5924502 Z" id="path5061"></path>
                    </g>
                    <g id="g5063" transform="translate(134.372306, 14.418776)" fill="#1F3562">
                        <path d="M2.33940767,2.55553598 L2.74149336,2.55553598 C3.21668554,2.55553598 3.39945177,2.40738897 3.39945177,2.11109494 C3.39945177,1.77776416 3.1801323,1.62961715 2.70494012,1.62961715 L2.33940767,1.62961715 L2.33940767,2.55553598 Z M2.81459985,1.22221286 C3.61877124,1.22221286 4.05741017,1.51850689 4.05741017,2.03702143 C4.05741017,2.48146247 3.8380907,2.74071975 3.39945177,2.85183001 L4.05741017,4.18515313 L3.36289852,4.18515313 L2.77804661,2.96294027 L2.33940767,2.96294027 L2.33940767,4.18515313 L1.71800251,4.18515313 L1.71800251,1.25924961 L2.81459985,1.25924961 L2.81459985,1.22221286 Z M1.24281032,1.14813935 C0.804171386,1.59258039 0.584851917,2.14813169 0.584851917,2.74071975 C0.584851917,3.3333078 0.804171386,3.8888591 1.20625708,4.29626339 C1.64489602,4.74070443 2.19319469,4.96292495 2.74149336,4.96292495 C3.36289852,4.96292495 3.91119719,4.74070443 4.34983613,4.29626339 C4.75192182,3.8888591 5.00779454,3.3333078 5.00779454,2.74071975 C5.00779454,2.11109494 4.78847507,1.55554364 4.38638938,1.14813935 C3.94775044,0.703698313 3.43600501,0.481477793 2.81459985,0.481477793 C2.15664144,0.518514547 1.64489602,0.740735067 1.24281032,1.14813935 Z M4.60570885,0.925918833 C5.08090103,1.40739663 5.33677374,2.07405819 5.33677374,2.7777565 C5.33677374,3.51849157 5.08090103,4.14811637 4.5691556,4.62959417 C4.05741017,5.14810871 3.39945177,5.40736599 2.74149336,5.40736599 C2.04698171,5.40736599 1.3890233,5.11107196 0.91383112,4.62959417 C0.438638938,4.11107962 0.146212979,3.48145481 0.146212979,2.7777565 C0.146212979,2.07405819 0.438638938,1.40739663 0.91383112,0.88888208 C1.3890233,0.407404287 2.01042846,0.148147013 2.70494012,0.148147013 C3.47255826,0.148147013 4.13051666,0.407404287 4.60570885,0.925918833 Z" id="path5065"></path>
                    </g>
                    <g id="g5067" transform="translate(0.058358, 0.333810)" fill="#1F3561">
                        <path d="M18.8614743,12.4073124 L18.2400692,10.5925115 L12.8301889,3.25923429 L13.8171265,2.99997702 L23.138204,11.1480628 L28.6577439,9.55548236 C29.3157023,9.37029859 30.0467672,9.33326184 30.5950659,9.37029859 C28.8405102,5.59254975 25.6969311,2.48146247 21.5298612,0.962955587 C13.2688279,-1.99998468 4.16706991,2.37035221 1.24281032,10.7406585 C0.328979203,13.3332312 0.109659734,15.9998774 0.511745427,18.5554134 L13.7074668,13.9258193 L18.8614743,12.4073124 Z" id="path5069"></path>
                    </g>
                    <g id="g5071" transform="translate(0.681700, 11.113727)" fill="#1F3561">
                        <path d="M30.5585127,0.0370367533 C30.0833205,0.33333078 29.3522556,0.77777182 28.6577439,0.99999234 L23.138204,2.59257273 L19.4463262,14.5554441 L18.4959419,14.8887748 L19.26356,5.74069677 L18.8249211,3.85182235 L13.6709136,5.33329248 L0,8.59252677 C1.09659734,13.9258193 4.78847507,18.5554134 10.2349085,20.5183613 C18.4959419,23.5183384 27.5611466,19.1109647 30.5219594,10.7406585 C31.801323,7.14809339 31.6916632,3.37034455 30.5585127,0.0370367533" id="path5073"></path>
                    </g>
                    <g id="g5079" transform="translate(28.594709, 28.100338)" fill="#1F3561">
                        <path d="M1.71800251,3.25923429 C0.84072463,3.25923429 0.292425958,2.55553598 0.292425958,1.74072741 C0.292425958,0.851845327 0.91383112,0.185183767 1.71800251,0.185183767 C2.52217389,0.185183767 3.10702581,0.814808573 3.10702581,1.74072741 C3.14357905,2.62960949 2.52217389,3.25923429 1.71800251,3.25923429 M1.71800251,0 C0.84072463,0 0.0731064896,0.66666156 0.0731064896,1.70369065 C0.0731064896,2.66664624 0.767618141,3.40738131 1.71800251,3.40738131 C2.59528038,3.40738131 3.36289852,2.74071975 3.36289852,1.70369065 C3.36289852,0.703698313 2.59528038,0 1.71800251,0" id="path5081"></path>
                    </g>
                    <g id="g5083" transform="translate(29.588555, 28.534594)" fill="#1F3561">
                        <path d="M0.328979203,1.14813935 L0.328979203,0.518514547 L0.731064896,0.518514547 C0.950384365,0.518514547 1.20625708,0.5555513 1.20625708,0.814808573 C1.20625708,1.1111026 0.98693761,1.14813935 0.731064896,1.14813935 L0.328979203,1.14813935 Z M1.53523628,0.851845327 C1.53523628,0.44444104 1.27936357,0.259257273 0.804171386,0.259257273 L0.0365532448,0.259257273 L0.0365532448,2.29627871 L0.365532448,2.29627871 L0.365532448,1.44443338 L0.657958406,1.44443338 L1.16970383,2.29627871 L1.53523628,2.29627871 L0.98693761,1.40739663 C1.31591681,1.37035987 1.53523628,1.22221286 1.53523628,0.851845327 Z" id="path5085"></path>
                    </g>
                </g>
            </g>
        </g>
    </g>
</svg>