<?xml version="1.0" encoding="utf-8"?>
<!-- Generator: Adobe Illustrator 22.1.0, SVG Export Plug-In . SVG Version: 6.00 Build 0)  -->
<svg version="1.1" id="Layer_1" xmlns="http://www.w3.org/2000/svg" xmlns:xlink="http://www.w3.org/1999/xlink" x="0px" y="0px"
	 viewBox="0 0 205.3 205.9" style="enable-background:new 0 0 205.3 205.9;" xml:space="preserve">
<style type="text/css">
	.st0{fill-opacity:0;stroke:#000000;stroke-width:2.5;stroke-linecap:round;stroke-linejoin:round;}
</style>
<path d="M62.5,33.3l-0.3,0.1l-0.7,0.3L60.8,34l-0.7,0.3l-0.6,0.4l-0.6,0.4L58,35.7l-1.1,0.9l-1.1,1l-1,1.1l-1,1.2l-0.9,1.2l-0.8,1.3
	l-0.8,1.4l-0.7,1.4l-0.7,1.5l-0.6,1.5l-0.6,1.5l-0.5,1.6l-0.5,1.6l-0.4,1.6l-0.3,1.6l-0.3,1.7l-0.2,1.7l-0.2,1.7l-0.1,1.7l-0.1,1.7
	l0,1.6l0,1.6l0.1,1.6l0.1,1.6l0.2,1.5l0.3,1.5l0.3,1.4l0.4,1.4l0.2,0.7l0,0c0,0,0,0,0,0l0,0l0.2,0.7l0.5,1.3l0.6,1.3l0.6,1.3
	l0.7,1.3l0.8,1.3l0.8,1.2l0.9,1.2l0.9,1.2l1,1.2l1,1.2l1.1,1.1l1.1,1.1l1.2,1.1l1.2,1l1.2,1l1.3,1l1.3,0.9l1.3,0.9l1.4,0.9l1.4,0.8
	l1.4,0.8l1.4,0.7l1.5,0.7l1.5,0.7l1.5,0.6l1.5,0.6l1.5,0.5l1.5,0.5l1.5,0.4l1.6,0.4l1.6,0.3l1.6,0.3l1.6,0.2l1.6,0.2l1.6,0.1
	l1.6,0.1l1.6,0l1.5-0.1l1.5-0.1l1.5-0.2l1.5-0.2l1.5-0.3l1.5-0.4l1.5-0.5l1.4-0.5l1.4-0.6l1.4-0.7l1.3-0.8l1.3-0.9l1.2-0.9l1.1-1
	l1.1-1.1l1-1.2l0.9-1.2l0.9-1.3l0.8-1.4l0.7-1.4l0.7-1.5l0.6-1.6l0.5-1.7l0.3-1.3l0.2-0.9l0.2-0.9l0.2-0.9l0.1-0.9l0.1-1l0.1-0.5
	l0,0c0,0,0,0,0,0l0,0l0.1-0.7l0.1-1.4l0.1-1.5l0.1-1.5l0.1-1.5l0-1.5l0-2.3l-0.1-3.1l-0.2-3.1l-0.4-3.1l-0.5-3.1l-0.4-2.3l-0.3-1.5
	l-0.4-1.5l-0.4-1.5l-0.4-1.5l-0.5-1.5l-0.5-1.5l-0.5-1.4l-0.6-1.4l-0.6-1.4l-0.6-1.4l-0.7-1.3l-0.7-1.3l-0.8-1.3l-0.8-1.2l-0.8-1.2
	l-0.9-1.2l-0.9-1.1l-1-1.1l-1-1l-1-1l-1.1-0.9l-1.1-0.9l-1.2-0.8l-1.2-0.8l-1.3-0.7l-1.3-0.6l-1.4-0.6l-1.4-0.5l-1.5-0.4l-1.5-0.3
	l-1.6-0.3l-1.6-0.2l-1.7-0.1l-1.7,0l-1.8,0.1l-1.8,0.2l-1.8,0.3l-1.9,0.4l-1.9,0.5L77,25.2l-2,0.7l-2,0.8l-2,0.8l-2.1,1l-2.1,1.1
	l-2.1,1.2l-1.6,0.9l-1.1,0.7l-0.6,0.3l0,0c-1.2,0.7-1.6,2-0.8,2.8c0.8,0.8,2.4,0.8,3.6,0.1l0.5-0.3l1-0.6l1.5-0.8l1.9-1l1.9-0.9
	l1.8-0.8l1.8-0.7l1.7-0.6l1.7-0.5l1.6-0.4l1.5-0.4l1.5-0.3l1.4-0.2l1.4-0.1l1.4-0.1l1.3,0l1.3,0.1l1.3,0.1l1.2,0.2l1.2,0.3l1.2,0.3
	l1.1,0.4l1.1,0.5l1.1,0.5l1.1,0.6l1,0.6l1,0.7l1,0.8l0.9,0.8l0.9,0.9l0.9,0.9l0.9,1l0.8,1l0.8,1l0.8,1.1l0.7,1.1l0.7,1.2l0.7,1.2
	l0.6,1.2l0.6,1.3l0.6,1.3l0.6,1.3l0.5,1.4l0.5,1.4l0.5,1.4l0.4,1.4l0.4,1.4l0.4,1.4l0.3,1.5l0.5,2.2l0.5,3l0.4,3l0.3,3l0.2,3
	l0.1,2.2l0,1.4l0,1.4l0,1.4l-0.1,1.4l-0.1,1.4l-0.1,0.7l0,0l0,0.4l-0.1,0.9l-0.1,0.9l-0.1,0.8l-0.2,0.8l-0.2,0.8l-0.3,1.1l-0.4,1.5
	l-0.5,1.4l-0.6,1.3l-0.6,1.2l-0.7,1.1l-0.7,1.1l-0.7,1l-0.8,0.9l-0.8,0.8l-0.8,0.8l-0.9,0.7l-0.9,0.6l-0.9,0.6l-1,0.5l-1,0.5l-1,0.4
	l-1.1,0.4l-1.1,0.3l-1.2,0.3l-1.2,0.2l-1.2,0.2l-1.2,0.1l-1.3,0.1h-1.3l-1.3-0.1l-1.3-0.1l-1.4-0.2l-1.4-0.2L87,103l-1.4-0.3
	l-1.4-0.3l-1.4-0.4l-1.4-0.4L80,101l-1.4-0.5l-1.4-0.6l-1.4-0.6l-1.4-0.6L73.1,98l-1.3-0.7l-1.3-0.8l-1.3-0.8l-1.3-0.8l-1.2-0.9
	l-1.2-0.9l-1.2-0.9L63,91.3l-1.1-1l-1.1-1l-1-1l-1-1.1l-1-1.1l-0.9-1.1l-0.9-1.1l-0.8-1.1l-0.7-1.2l-0.7-1.2l-0.6-1.2L52.6,78
	l-0.5-1.2l-0.2-0.7l0,0l-0.2-0.6l-0.4-1.3L51,72.9l-0.3-1.4l-0.2-1.4l-0.2-1.5l-0.1-1.5l-0.1-1.5l0-1.6l0-1.6l0.1-1.6l0.1-1.6
	l0.2-1.6l0.2-1.6l0.3-1.6l0.3-1.6l0.4-1.5l0.4-1.5l0.5-1.5l0.5-1.4l0.6-1.4l0.6-1.3l0.7-1.2l0.7-1.2l0.8-1.1l0.8-1l0.8-0.9l0.9-0.9
	l0.9-0.8l0.7-0.5l0.5-0.3l0.5-0.3l0.5-0.3l0.5-0.2l0.5-0.2l0.3-0.1c0.8-0.3,1.2-0.9,1-1.5C64,33.3,63.2,33.1,62.5,33.3L62.5,33.3"/>
<path d="M49.9,57.9l-0.1-0.6l-0.5-1l-0.6-0.9L48,54.6l-0.7-0.7l-0.7-0.6l-0.7-0.6l-0.7-0.5l-0.7-0.4l-0.8-0.3l-0.8-0.3L42,51
	L41.1,51l-0.9,0l-0.9,0.1l-0.9,0.2l-0.9,0.3l-0.8,0.4l-0.8,0.5L35.2,53l-0.6,0.6L34,54.2l-0.5,0.6l-0.5,0.7l-0.5,0.7L32,56.9
	l-0.4,0.7l-0.4,0.8l-0.3,0.8L30.6,60l-0.3,0.8L30,61.7l-0.2,0.9l-0.2,0.9l-0.3,1.4L29,66.7l-0.2,1.9l-0.1,1.9l0,1.9l0.1,1.9l0.2,1.4
	l0.2,0.9l0.2,0.9l0.2,0.9l0.2,0.9l0.3,0.9l0.3,0.8l0.3,0.8l0.4,0.8l0.4,0.8l0.5,0.7l0.5,0.7l0.6,0.6l0.6,0.6l0.7,0.5l0.7,0.5
	l0.7,0.5l0.8,0.4l0.4,0.2l0,0c0,0,0,0,0.1,0l0,0l0.3,0.1l0.7,0.3l0.8,0.2l0.8,0.2l0.8,0.1l0.8,0l0.8,0l0.8-0.1l0.8-0.1l0.8-0.2
	l0.7-0.2l0.7-0.3l0.7-0.3l0.7-0.4l0.6-0.4l0.6-0.5L49,86l0.5-0.5L50,85l0.4-0.6l0.4-0.6l0.3-0.6l0.3-0.6l0.2-0.6l0.2-0.6l0.1-0.7
	L52,80l0-0.7l0-0.7L51.9,78l-0.2-0.7l-0.2-0.7l-0.1-0.3l0,0c-0.2-0.6-1-0.9-1.9-0.7c-0.9,0.2-1.5,0.9-1.3,1.6l0,0.3l0,0.6l0,0.6
	l0,0.5l-0.1,0.5L48,80.2l-0.1,0.5l-0.1,0.5l-0.2,0.5l-0.2,0.4l-0.2,0.4L47,82.9l-0.2,0.4l-0.3,0.4L46.2,84l-0.3,0.3l-0.3,0.3
	l-0.3,0.2L45.1,85l-0.3,0.2l-0.3,0.2l-0.3,0.1l-0.3,0.1l-0.3,0.1l-0.3,0.1l-0.3,0l-0.4,0l-0.4,0l-0.4-0.1l-0.4-0.1l-0.4-0.1
	l-0.5-0.2L40,85.2l0.1,0l-0.2-0.1l-0.5-0.3L39,84.4l-0.4-0.4l-0.4-0.5l-0.3-0.5l-0.4-0.5l-0.4-0.6l-0.3-0.6l-0.3-0.6l-0.3-0.7
	l-0.3-0.7l-0.3-0.7l-0.2-0.8l-0.2-0.8L35,76.1l-0.2-0.8l-0.1-0.8l-0.2-1.3l-0.1-1.7l0-1.7l0.1-1.7l0.1-1.7l0.2-1.7l0.2-1.2l0.2-0.8
	l0.2-0.8l0.2-0.7l0.2-0.7l0.2-0.7l0.3-0.7l0.3-0.6l0.3-0.6l0.3-0.5l0.3-0.5l0.3-0.4L38,56l0.3-0.3l0.3-0.3l0.2-0.2l0.2-0.2l0.2-0.1
	l0.1-0.1l0.1-0.1l0.2-0.1l0.2,0l0.3,0l0.3,0l0.4,0.1l0.4,0.2l0.5,0.2l0.5,0.3l0.6,0.4l0.6,0.5l0.6,0.6l0.7,0.6l0.8,0.7l0.9,0.8
	l0.6,0.4c0.4,0.5,1.4,0.7,2.2,0.2S50.3,58.4,49.9,57.9L49.9,57.9"/>
<path d="M121.6,60.5l0.3-0.3l0.6-0.6l0.5-0.6l0.5-0.5l0.5-0.5l0.5-0.5l0.5-0.4l0.4-0.4l0.4-0.3l0.4-0.3l0.4-0.3l0.4-0.2l0.3-0.2
	l0.3-0.2l0.4-0.2l0.5-0.2l0.3,0l0.2,0l0.1,0.1l0.1,0.1l0.1,0.1l0.2,0.1l0.2,0.2l0.3,0.2l0.3,0.3l0.3,0.4l0.4,0.5l0.4,0.6l0.4,0.6
	l0.3,0.7l0.3,0.8l0.3,0.8L133,61l0.3,0.9l0.2,0.9l0.2,1l0.2,1l0.2,1l0.1,1l0.2,1.6l0.1,1.6l0,1l0,1l0,1l-0.1,1l-0.1,1l-0.1,1L134,77
	l-0.2,0.9l-0.2,0.8l-0.3,0.8l-0.3,0.7l-0.3,0.7l-0.4,0.6l-0.4,0.5l-0.4,0.5l-0.4,0.4l-0.4,0.3l-0.4,0.2l-0.4,0.1l-0.4,0.1l-0.4,0
	l-0.4-0.1l-0.5-0.1l-0.6-0.2l-0.5-0.2l-0.3-0.2l-0.4-0.2l-0.4-0.3l-0.4-0.3l-0.4-0.3l-0.4-0.4l-0.4-0.4l-0.4-0.4l-0.4-0.5l-0.2-0.2
	l0,0c-0.8-0.7-2.4-0.7-3.6,0.1c-1.2,0.8-1.4,2-0.6,2.7l0,0l0.3,0.2l0.6,0.4l0.6,0.4l0.6,0.4l0.6,0.3l0.6,0.3l0.6,0.3l0.6,0.3
	l0.6,0.2l0.6,0.2l0.8,0.3l1.1,0.3l1.1,0.1l1.1,0l1.1-0.1l1-0.3l1-0.4L133,85l0.8-0.6l0.7-0.6l0.6-0.7l0.6-0.7l0.5-0.8l0.5-0.8
	l0.5-0.9l0.4-0.9l0.4-1l0.4-1l0.3-1l0.3-1.1l0.3-1.1l0.2-1.1l0.2-1.1l0.2-1.1l0.1-1.2l0.1-1.7l0-1.7l0-1.2l-0.1-1.1l-0.1-1.1
	l-0.1-1.1l-0.2-1.1l-0.2-1.1l-0.3-1l-0.3-1l-0.4-0.9l-0.4-0.9l-0.4-0.9l-0.5-0.8l-0.6-0.8l-0.6-0.7l-0.7-0.6l-0.8-0.6l-0.9-0.5
	l-1.1-0.4l-1.2-0.2l-1.3,0l-1.3,0.1l-1.3,0.3l-1.2,0.5l-1.1,0.6l-0.8,0.5l-0.5,0.4l-0.5,0.4l-0.5,0.4l-0.5,0.5l-0.5,0.5l-0.5,0.5
	l-0.5,0.5l-0.5,0.6l-0.5,0.6l-0.4,0.6l-0.4,0.7l-0.4,0.7L118,59l-0.2,0.4l0,0c-0.6,0.9-0.3,1.9,0.8,2.2
	C119.7,61.8,121,61.4,121.6,60.5L121.6,60.5"/>
<path d="M39.4,52l0-0.8l0-1.5l0-1.5l0.1-1.5l0.1-1.4l0.1-1.4l0.2-1.4l0.2-1.4l0.2-1.3l0.2-1.3l0.3-1.3l0.3-1.3l0.3-1.2l0.4-1.2
	l0.4-1.2l0.4-1.2l0.4-1.1l0.5-1.1l0.5-1.1l0.5-1.1l0.5-1.1l0.5-1l0.6-1l0.6-1l0.6-1l0.6-0.9l0.6-0.9l0.7-0.9l0.7-0.9l0.7-0.8
	l0.7-0.8l0.7-0.8l0.7-0.8l0.8-0.7l0.8-0.7l0.8-0.7l0.8-0.7l0.8-0.6l1.3-0.9l1.7-1.2l1.8-1l1.8-1L65,6.5l1.9-0.8l1.9-0.7l1.9-0.6
	L72.6,4l2-0.4l2-0.3l2-0.2l2-0.1l2,0l2,0.1l2,0.2l2,0.3l2,0.4l2,0.5l1.9,0.6l1.9,0.6l1.9,0.7l1.9,0.8l1.8,0.9l1.8,1l1.3,0.8l0.9,0.6
	l0.9,0.6l0.8,0.6l0.8,0.7l0.8,0.7l0.8,0.7l0.8,0.7l0.8,0.8l0.8,0.8l0.7,0.8l0.7,0.8l0.7,0.9l0.7,0.9l0.7,0.9l0.7,0.9l0.6,1l0.6,1
	l0.6,1l0.6,1l0.6,1.1l0.5,1.1l0.5,1.1l0.5,1.2l0.5,1.2l0.4,1.2l0.4,1.2l0.4,1.3L123,36l0.3,1.3l0.3,1.3L124,40l0.3,1.4l0.2,1.4
	l0.2,1.4l0.2,1.5l0.1,1.5l0.1,1.5l0.1,1.5l0.1,1.6l0,0.8l0,0c0,1.1,1.2,1.7,2.6,1.5c1.4-0.2,2.6-1.3,2.5-2.3l0-0.8l-0.1-1.6
	l-0.1-1.6l-0.1-1.6l-0.2-1.5l-0.2-1.5l-0.2-1.5l-0.3-1.5l-0.3-1.4l-0.3-1.4l-0.3-1.4l-0.4-1.4l-0.4-1.3l-0.4-1.3l-0.5-1.3l-0.5-1.3
	l-0.5-1.2l-0.5-1.2l-0.6-1.2l-0.6-1.2l-0.6-1.1l-0.6-1.1l-0.6-1.1l-0.7-1l-0.7-1l-0.7-1l-0.7-1l-0.8-0.9l-0.8-0.9l-0.8-0.9l-0.8-0.9
	l-0.8-0.8l-0.8-0.8l-0.9-0.8l-0.9-0.8l-0.9-0.7l-0.9-0.7L110,8.4l-0.9-0.7l-1-0.6l-1.5-0.9l-2-1.1l-2-1l-2.1-0.9l-2.1-0.8l-2.1-0.7
	l-2.2-0.6L92,0.8l-2.2-0.4l-2.2-0.3L85.4,0l-2.2,0l-2.2,0.1l-2.2,0.2l-2.2,0.3l-2.2,0.4L72,1.3l-2.2,0.6l-2.1,0.7l-2.1,0.8l-2.1,0.9
	l-2,1l-2,1.1l-1.9,1.2l-1.9,1.3l-1.4,1l-0.9,0.7l-0.9,0.7L51.7,12l-0.8,0.8l-0.8,0.8l-0.8,0.8l-0.8,0.9l-0.8,0.9l-0.8,0.9L46.2,18
	l-0.7,1l-0.7,1l-0.7,1l-0.6,1l-0.6,1l-0.6,1.1l-0.6,1.1l-0.6,1.1l-0.5,1.1l-0.5,1.2l-0.5,1.2l-0.5,1.2l-0.4,1.2l-0.4,1.2l-0.4,1.3
	L37.6,36l-0.3,1.3L37,38.7L36.7,40l-0.2,1.4l-0.2,1.4l-0.2,1.4L36,45.7l-0.1,1.5l-0.1,1.5l0,1.5l0,1.5l0,0.8c0,0.8,0.8,1.2,1.9,1.1
	C38.6,53.5,39.4,52.7,39.4,52L39.4,52"/>
<path d="M130,85.3l0.1,0.4l0,0.8l-0.1,0.8l-0.1,0.7l-0.1,0.7l-0.2,0.7l-0.2,0.6l-0.2,0.6l-0.3,0.5l-0.3,0.5l-0.3,0.5l-0.3,0.4
	l-0.4,0.4l-0.4,0.4l-0.4,0.4l-0.4,0.3l-0.4,0.3l-0.5,0.3l-0.5,0.2l-0.5,0.2l-0.5,0.2l-0.5,0.2l-0.5,0.1l-0.6,0.1l-0.9,0.2l-1.2,0.1
	l-1.2,0.1l-1.3,0l-1.3,0l-1.4-0.1l-1.4-0.1l-1.4-0.2l-1.4-0.3l-1.4-0.3l-1.4-0.4l-1.4-0.4l-1.3-0.4l-1.3-0.5l-1.2-0.5l-1.2-0.5
	l-1.1-0.5l-1-0.5l-0.9-0.6l-0.9-0.6L97.6,90l0,0c-0.8-0.6-2.2-0.4-3.1,0.3c-0.9,0.7-1,1.7-0.2,2.3l0.5,0.3l1,0.7l1.1,0.6l1.2,0.6
	l1.2,0.6l1.3,0.5l1.4,0.5l1.4,0.5l1.5,0.4l1.5,0.4l1.5,0.3l1.6,0.3l1.6,0.2l1.6,0.2l1.6,0.1l1.6,0l1.6-0.1l1.6-0.2l1.5-0.3L122,98
	l1-0.3l0.7-0.3l0.7-0.3l0.6-0.3l0.6-0.3l0.6-0.4l0.6-0.4l0.5-0.4l0.5-0.4l0.5-0.4l0.5-0.5l0.4-0.5l0.4-0.5l0.4-0.5l0.3-0.6l0.3-0.6
	l0.2-0.6L131,90l0.2-0.7l0.1-0.7l0.1-0.7l0.1-0.8l0-0.8l0-0.8l0-0.4c0-0.3-0.4-0.5-0.8-0.4C130.3,84.7,130,85,130,85.3L130,85.3"/>
<path d="M84.3,80.6l-0.4,0.2l-0.8,0.5l-0.7,0.5l-0.7,0.5l-0.6,0.5l-0.5,0.5l-0.5,0.6l-0.4,0.6L79.3,85l-0.3,0.6l-0.2,0.6l-0.1,0.6
	l0,0.6l0.1,0.5l0.1,0.5l0.2,0.5l0.2,0.5l0.3,0.4l0.3,0.4l0.4,0.4l0.4,0.3l0.4,0.3l0.7,0.4l1,0.5l1.1,0.4l1.1,0.3l1.2,0.2l1.2,0.2
	l1.2,0.1l1.2,0l1.2-0.1l1.1-0.2l0.9-0.2l0.6-0.2l0.5-0.2l0.5-0.2l0.5-0.3l0.5-0.3l0.4-0.4l0.4-0.4l0.3-0.4l0.2-0.5l0.2-0.5l0.1-0.5
	l0-0.5l0-0.5l-0.1-0.5L97.2,87L97,86.4l-0.3-0.6l-0.3-0.6L96,84.7l-0.4-0.6l-0.5-0.7l-0.3-0.3l0,0c0,0,0,0,0,0l0,0l-0.2-0.3
	l-0.4-0.5l-0.5-0.5l-0.5-0.4L92.7,81l-0.5-0.3l-0.5-0.3L91,80.2L90.4,80l-0.6-0.1l-0.6-0.1l-0.6,0l-0.6,0l-0.6,0.1l-0.6,0.1L86.1,80
	l-0.4,0.1l0,0c-1.1,0.4-1.8,1.4-1.4,2.2c0.3,0.8,1.6,1.1,2.7,0.7l0,0l0.2-0.1l0.2-0.1l0.2-0.1l0.3-0.1l0.3-0.1l0.3,0l0.3,0l0.4,0
	l0.4,0.1l0.4,0.1l0.4,0.2l0.4,0.2l0.4,0.3l0.4,0.3l0.4,0.4l0.2,0.2l0,0l0.3,0.3l0.5,0.6l0.4,0.6l0.3,0.5l0.2,0.5l0.2,0.5l0.1,0.4
	l0.1,0.4l0,0.3l0,0.3l0,0.3l-0.1,0.2l-0.1,0.2l-0.1,0.1l-0.1,0.1L94,89.7l-0.1,0.1l-0.1,0.1L93.5,90l-0.2,0.1l-0.2,0.1l-0.2,0
	l-0.4,0.1l-0.7,0l-0.8,0l-0.8-0.1L89.3,90l-0.8-0.2l-0.8-0.3l-0.8-0.3l-0.7-0.3l-0.6-0.4l-0.4-0.3L85,88l-0.2-0.2l-0.2-0.2l-0.2-0.2
	l-0.1-0.2l-0.1-0.2l-0.1-0.2l0-0.2l0-0.2l0-0.2l0-0.2l0-0.2l0.1-0.2l0.1-0.2l0.1-0.2l0.2-0.3l0.2-0.3l0.3-0.3l0.4-0.3L86,84l0.6-0.4
	l0.4-0.2c1.2-0.7,1.5-1.9,0.8-2.7C87,79.9,85.4,79.9,84.3,80.6L84.3,80.6"/>
<path d="M63.4,116.5l0.6,0.8l1.2,1.6l1.3,1.4l1.4,1.3l1.5,1.2l1.5,1.1l1.4,1l1.4,0.9l1.4,0.8l1.4,0.7l1.3,0.7l1.3,0.6l1.3,0.5
	l1.3,0.5l1.2,0.4l1.2,0.3l1.2,0.3l1.2,0.2l1.2,0.2l1.1,0.1l1.1,0.1l1.1,0l1.1-0.1l1-0.1l1-0.2l1-0.2l1-0.2l0.9-0.3l0.9-0.3l0.9-0.4
	l0.9-0.4l0.8-0.4l0.8-0.5l0.8-0.5l0.7-0.5l0.7-0.5l0.7-0.5l0.6-0.6l0.9-0.9l1.1-1.2l1-1.2l0.9-1.2l0.8-1.2l0.7-1.2l0.6-1.1l0.4-0.8
	l0.2-0.5l0.2-0.5l0.2-0.5l0.1-0.5l0.1-0.5l0.1-0.4l0.1-0.4l0.1-0.4l0-0.4l0-0.3l0-0.3l0-0.2l0,0c-0.2-0.7-1.1-1-2-0.8
	c-1,0.3-1.6,1-1.4,1.7l0,0l0,0.1l0,0.2l0,0.2l0,0.3l-0.1,0.3l-0.1,0.3l-0.1,0.4l-0.1,0.4l-0.1,0.4l-0.2,0.4l-0.2,0.5l-0.3,0.7
	l-0.5,1l-0.6,1.1l-0.7,1.1l-0.8,1.1l-0.9,1l-1,1l-0.8,0.7l-0.5,0.5l-0.5,0.4l-0.6,0.4l-0.6,0.4l-0.6,0.4l-0.6,0.3l-0.6,0.3l-0.6,0.3
	l-0.7,0.3l-0.7,0.2l-0.7,0.2l-0.7,0.2l-0.7,0.1l-0.8,0.1l-0.8,0.1l-0.8,0l-0.8,0l-0.9-0.1l-0.9-0.1l-0.9-0.2l-0.9-0.2l-1-0.3l-1-0.3
	l-1-0.4l-1-0.5l-1.1-0.5l-1.1-0.6l-1.1-0.7l-1.1-0.8l-1.2-0.8l-1.2-0.9l-1.2-1l-1.2-1.1l-1.3-1.2l-1.4-1.2l-1.5-1.2l-1.7-1.2
	l-0.9-0.6c-0.7-0.7-2.1-0.7-3.1-0.1C63,114.8,62.7,115.8,63.4,116.5L63.4,116.5"/>
<path d="M111.3,115.4l0.3,0l0.6,0l0.7,0l0.7-0.1l1.1-0.1l1.5-0.2l1.6-0.2l1.6-0.3l1.6-0.3l1.6-0.2l1.6-0.2l1.6-0.2l1.6-0.1l1.1,0
	l0.7,0l0.7,0l0.7,0l0.6,0.1l0.6,0.1l0.6,0.1l0.5,0.1l0.5,0.2l0.5,0.2l0.2,0.1l-0.1,0l0.4,0.2l0.7,0.4l0.7,0.4l0.7,0.5l0.7,0.5
	l0.6,0.6l0.6,0.6l0.6,0.6l0.6,0.7l0.6,0.7l0.5,0.7l0.5,0.8l0.5,0.8l0.5,0.8l0.5,0.9l0.5,0.9l0.4,0.9l0.4,1l0.4,1l0.4,1l0.5,1.5
	l0.6,2.1l0.6,2.2l0.5,2.3l0.5,2.3l0.4,2.4l0.3,2.4l0.3,2.4l0.2,2.4l0.2,2.4l0.2,2.4l0.1,2.4l0.1,2.4l0.1,2.4l0,2.3l0,2.3l0,2.2
	l0,2.2l0,2.1l0,2v1.9l0,1.8l0,0.9l0,0c0,0.5,0.6,0.8,1.2,0.7c0.7-0.1,1.2-0.6,1.2-1.1l0-0.9l0-1.8l0-1.9l0-2l0-2.1l0-2.2l0-2.2
	l0-2.3l0-2.3l-0.1-2.4l-0.1-2.4l-0.1-2.4l-0.1-2.5l-0.2-2.5l-0.2-2.5l-0.2-2.5l-0.3-2.4l-0.3-2.4l-0.4-2.4l-0.4-2.3l-0.5-2.3
	l-0.6-2.2l-0.5-1.6l-0.3-1.1l-0.4-1l-0.4-1l-0.4-1l-0.4-1l-0.4-0.9l-0.5-0.9l-0.5-0.9l-0.5-0.9l-0.5-0.8L143,117l-0.6-0.8l-0.6-0.8
	l-0.7-0.7l-0.7-0.7l-0.7-0.7l-0.8-0.6l-0.8-0.6l-0.8-0.5l-0.4-0.2l0,0c0,0,0,0-0.1,0l0,0l-0.4-0.2l-0.7-0.3l-0.7-0.3l-0.8-0.2
	l-0.8-0.2l-0.8-0.2l-0.8-0.1l-0.8-0.1l-0.9-0.1l-0.9-0.1l-1.3,0h-1.8l-1.8,0.1l-1.8,0.1l-1.8,0.2l-1.7,0.2l-1.6,0.2l-1.6,0.2
	l-1.4,0.2l-1,0.2l-0.6,0.1l-0.6,0.1l-0.5,0.1l-0.3,0.1c-1.5,0.2-2.7,1.2-2.8,2.3C108.7,114.8,109.8,115.6,111.3,115.4L111.3,115.4"
	/>
<path d="M65.7,113.9l-0.8,0l-1.6,0l-1.5,0l-1.5,0.1l-1.5,0.1l-1.4,0.2l-1.4,0.3l-1.3,0.4l-1.3,0.4l-1.3,0.5l-1.2,0.6l-1.2,0.6
	l-1.1,0.7l-1.1,0.7l-1,0.8l-0.9,0.8l-0.9,0.9l-0.8,0.9l-0.8,1l-0.7,1l-0.7,1l-0.6,1.1l-0.6,1.1l-0.5,1.1l-0.5,1.1l-0.4,1.2l-0.4,1.2
	l-0.4,1.2l-0.4,1.2l-0.3,1.2l-0.3,1.3l-0.3,1.3l-0.3,1.3l-0.2,1.3l-0.3,2l-0.4,2.7l-0.3,2.7l-0.2,2.8l-0.2,2.8l-0.2,4.2l-0.1,5.6
	l-0.1,4.1l-0.1,2.7l-0.1,2.6l-0.2,2.6l-0.2,2.5l-0.3,2.4l-0.1,1.1l0,0c-0.1,1.5,1.4,2.6,3.5,2.4c2.1-0.2,3.8-1.6,4-3.2l0,0l0.1-1.2
	l0.1-2.4l0-2.5l0-2.6l0-2.6l0-2.7l0-4.1l0-5.5l0.1-4.1l0.1-2.7l0.1-2.7l0.2-2.6l0.2-2.6l0.2-1.9l0.2-1.2l0.2-1.2l0.2-1.2l0.2-1.2
	l0.3-1.1l0.3-1.1l0.3-1.1l0.4-1.1l0.4-1l0.4-1l0.5-1l0.5-0.9l0.5-0.9l0.5-0.8l0.5-0.8l0.6-0.8l0.6-0.7l0.6-0.7l0.6-0.6l0.7-0.6
	l0.7-0.6l0.7-0.5l0.8-0.5l0.8-0.5l0.9-0.4l0.9-0.4l1-0.4l1.1-0.3l1.1-0.3l1.2-0.2l1.3-0.2l1.4-0.1l1.5-0.1l0.8,0l0,0
	c0.9,0,1.7-0.5,1.9-1.2C67.1,114.4,66.5,113.9,65.7,113.9L65.7,113.9"/>
<path d="M3.4,205.4l0.4-0.3l0.9-0.6l0.9-0.6l0.9-0.6l0.9-0.6l1-0.5l1.5-0.8l2.1-1.1l2.3-1l2.4-1l2.5-1l2.6-0.9l2.7-0.9l2.8-0.9
	l2.9-0.9l2.9-0.8l3-0.8l3.1-0.8l3.2-0.7l3.2-0.7l3.3-0.7l3.4-0.6l3.4-0.6l3.5-0.6l3.5-0.6l3.6-0.5l3.6-0.5l3.6-0.5l3.7-0.4l3.7-0.4
	l3.7-0.4l3.7-0.3l3.7-0.3l5.6-0.4l7.5-0.4l5.6-0.2l3.7-0.1l3.7-0.1l3.7-0.1l3.7,0l3.7,0l3.6,0l3.6,0.1l3.6,0.1l3.5,0.1l3.5,0.2
	l3.4,0.2l3.4,0.2l3.3,0.3l3.2,0.3l3.2,0.3l3.1,0.4l3,0.4l2.9,0.4l2.8,0.4l2.8,0.5l2.7,0.5l2.6,0.5l2.5,0.6l2.4,0.6l2.2,0.6l2.1,0.6
	l1.5,0.5l1,0.3l0.9,0.3l0.9,0.4l0.9,0.4l0.8,0.4l0.4,0.2l0,0c1.7,0.8,4.2,0.2,5.5-1.3c1.3-1.5,1.1-3.2-0.6-4l-0.5-0.2l-1-0.4l-1-0.4
	l-1-0.4l-1.1-0.4l-1.1-0.4l-1.7-0.5l-2.3-0.7l-2.4-0.6l-2.5-0.6l-2.6-0.6l-2.7-0.5l-2.8-0.5l-2.9-0.5l-3-0.4l-3.1-0.4l-3.1-0.4
	l-3.2-0.3l-3.3-0.3l-3.3-0.3l-3.4-0.2l-3.5-0.2l-3.5-0.2l-3.6-0.1l-3.6-0.1l-3.6-0.1l-3.7,0l-3.7,0l-3.7,0l-3.8,0.1l-3.8,0.1
	l-3.8,0.1l-3.8,0.2l-5.8,0.3l-7.7,0.5l-5.7,0.5l-3.8,0.4l-3.8,0.4l-3.8,0.4l-3.8,0.5l-3.7,0.5l-3.7,0.5l-3.7,0.6l-3.6,0.6l-3.6,0.6
	l-3.5,0.6l-3.5,0.7l-3.4,0.7l-3.4,0.7l-3.3,0.8l-3.3,0.8l-3.2,0.8l-3.1,0.9l-3,0.9l-3,0.9l-2.9,1l-2.8,1l-2.7,1l-2.6,1.1l-2.5,1.1
	l-2.4,1.1l-2.3,1.2l-1.6,0.9l-1.1,0.6l-1,0.6l-1,0.6l-1,0.6l-0.9,0.6l-0.4,0.3c-0.9,0.7-1.1,1.7-0.4,2.3
	C1.2,206.1,2.5,206.1,3.4,205.4L3.4,205.4"/>
<path d="M131.9,178.4l-0.2-3.1l-0.5-6.4l-0.2-3.2l0,0c0-0.9-0.5-1.7-1.2-1.8c-0.7-0.1-1.2,0.5-1.2,1.4l-0.2,3.1l-0.5,6.2l-0.2,3.1
	l0,0c0,1.6,0.9,3,2.1,3.1C130.9,181.1,131.9,180,131.9,178.4L131.9,178.4"/>
<path d="M57.6,171.6l-0.5,5.8l-0.5,5.8l0,0c0,1.4,0.8,2.6,1.9,2.8c1,0.2,1.9-0.8,1.9-2.2l0,0l-0.5-5.9l-0.5-5.9
	c0-0.7-0.4-1.3-0.9-1.4C58,170.5,57.6,170.9,57.6,171.6L57.6,171.6"/>
</svg>
