<?xml version="1.0" encoding="UTF-8"?>
<svg width="300px" height="416px" viewBox="0 0 300 416" version="1.1" xmlns="http://www.w3.org/2000/svg" xmlns:xlink="http://www.w3.org/1999/xlink">
    <!-- Generator: Sketch 49 (51002) - http://www.bohemiancoding.com/sketch -->
    <title>noun_1321215_cc</title>
    <desc>Created with Sketch.</desc>
    <defs></defs>
    <g id="visuals" stroke="none" stroke-width="1" fill="none" fill-rule="evenodd">
        <g id="Home" transform="translate(-1013.000000, -1396.000000)">
            <g id="Group-10" transform="translate(348.000000, 1396.000000)">
                <g id="noun_1321215_cc" transform="translate(665.000000, 0.000000)">
                    <path d="M256.924496,75.3739977 C257.618855,76.8952174 259.215463,78.2127764 261.706006,79.3225186 C264.200707,80.286789 266.138258,82.0906396 267.526975,84.7257577 C268.354384,86.1098182 269.327317,88.6036208 270.433301,92.2071657 C272.237801,98.5788315 273.135894,105.785921 273.135894,113.820122 C273.135894,118.666412 272.72011,125.940003 271.888543,135.640895 C271.614126,139.934392 270.225409,142.777327 267.730709,144.161388 C264.957433,145.682607 262.878515,148.043407 261.493957,151.227162 C260.66239,152.748381 259.689456,155.591317 258.583472,159.747654 C255.672988,170.275658 250.962161,177.137771 244.446834,180.321526 C242.646492,181.152794 241.257775,183.018989 240.289,185.932582 C235.021023,204.083309 221.790793,215.791713 200.581679,221.053636 C177.850797,226.456875 157.061624,225.55495 138.214159,218.352017 C116.593419,210.317816 103.637606,195.076525 99.3384051,172.632301 C98.7812552,168.895754 98.2282632,166.052819 97.6752712,164.111809 C96.9850707,161.896481 96.2907123,160.441763 95.5963539,159.747654 C94.6275784,158.916387 92.827236,158.779228 90.1911688,159.33202 C74.6699721,162.519932 65.6599444,155.728476 63.1652436,138.965965 C61.7806847,130.65329 61.0156431,124.763759 60.8784345,121.30153 C60.741226,114.792705 61.7806847,108.903174 63.9968105,103.637095 C65.518578,100.03355 67.2523951,97.2654287 69.1941038,95.324419 C72.5203716,92.5521417 74.5286057,90.4739728 75.2229641,89.0899124 C75.7759561,87.9801702 75.9131646,85.0042323 75.6387476,80.1537862 C75.3643305,63.2541168 78.6864404,49.4010431 85.6175507,38.5904086 C92.9644446,26.3998699 101.970314,17.8087198 112.643476,12.8252708 C133.569858,2.85006018 155.049232,-1.30627758 177.089913,0.356257522 L184.154074,0.356257522 C196.768945,1.4659997 206.261281,2.85006018 212.639399,4.51259528 C225.665895,7.83766549 237.31199,15.9425241 247.561053,28.8271712 C256.155297,40.1864423 259.273673,53.5573808 256.916181,68.9358306 C256.371504,71.6997952 256.371504,73.8486218 256.924496,75.3739977 Z M174.59937,30.9011837 C172.383244,30.9011837 170.578744,30.5562077 169.194185,29.8620993 C167.252476,29.1679909 166.350226,27.9917473 166.491593,26.3292122 C166.491593,25.0781545 167.256634,24.321701 168.782559,24.0390701 C178.482788,21.9609012 186.798457,21.3416069 193.729567,22.1728744 C202.182445,23.1371448 209.874439,26.5370291 216.80555,32.3517456 C227.894495,41.3585295 235.029339,53.9647019 238.21424,70.1785755 C238.634182,72.9466965 239.395065,74.8877062 240.505207,75.9932921 C241.473983,77.1030343 243.274325,77.5893258 245.910392,77.4521666 C248.405093,77.3150075 249.860335,76.3424244 250.276119,74.5427302 L250.899794,69.347308 C251.452786,56.4626609 247.644209,44.6835997 239.465749,34.018437 C231.565863,23.3532743 221.37501,16.4911607 208.901506,13.4445651 C186.727774,7.6298486 162.683016,7.69635001 136.763075,13.652382 C113.337834,18.918462 97.7459544,30.6975232 89.9874349,48.981253 C84.8608248,60.2033649 82.5033326,72.5352191 82.919116,85.972659 C82.919116,86.6667674 82.7112243,87.6351941 82.2954408,88.8820955 C82.0210237,89.713363 82.7153821,90.1954982 84.3743582,90.3368137 C87.2848424,90.7566038 89.0893427,90.1996545 89.783701,88.6784349 C91.5840434,84.102307 92.9727602,80.2909453 93.9415357,77.2485061 C100.594071,51.196581 117.499827,34.2969117 144.662961,26.5411854 C149.240737,25.1529686 153.398571,24.8079926 157.136465,25.502101 C159.635323,26.192053 160.878516,27.6509276 160.878516,29.8662556 C160.878516,32.3600583 159.493957,33.6069596 156.720681,33.6069596 C151.041079,33.0500103 145.423844,33.8147765 139.881451,35.8929454 C124.497463,41.5705027 112.992734,51.9613471 105.371423,67.0654786 C97.7459544,82.1654536 96.0162952,97.8182216 100.17413,114.032095 C100.448547,113.894936 102.253047,112.091086 105.579315,108.628856 C107.932649,106.130897 110.6394,105.374444 113.687092,106.34287 C105.508632,116.039606 100.793647,123.450357 99.5504546,128.579277 C98.5816792,133.566883 100.382022,138.695804 104.95564,143.957727 C107.728915,139.24444 109.807833,135.715709 111.192392,133.359066 C113.965667,128.782938 117.778402,126.010661 122.626437,125.04639 C120.54752,127.95167 117.91561,132.108008 114.730709,137.515404 C111.957433,141.671741 109.184158,144.926154 106.41504,147.282797 C103.778972,149.498125 103.084614,151.92127 104.336122,154.556388 C104.610539,155.250497 105.026323,156.979533 105.583473,159.751811 C106.136465,162.245613 106.968032,164.045308 108.078174,165.15505 C115.978059,158.089275 121.316719,151.646952 124.089995,145.832235 C125.611762,143.197117 127.208371,142.503009 128.867347,143.754067 C130.256064,144.581178 130.256064,146.385028 128.867347,149.157306 C126.651221,153.313643 121.940394,158.371906 114.734867,164.323782 C110.851449,168.758595 108.913898,172.017163 108.913898,174.095332 C108.77669,176.173501 110.510507,180.122022 114.111192,185.940895 C116.0529,184.556834 118.061135,182.204347 120.140052,178.875121 C122.771961,175.138573 124.572304,172.711272 125.545237,171.60153 C132.339139,164.539912 137.253699,160.100943 140.30555,158.305405 C140.30555,162.041953 139.266091,164.747729 137.187174,166.406107 C134.555265,168.484276 131.64478,171.738689 128.455721,176.177657 C124.297886,181.443737 121.595294,184.764651 120.347944,186.148712 C116.884467,190.030731 116.955151,193.422303 120.555835,196.331739 C121.250194,197.025848 122.289652,197.994274 123.674211,199.241176 C124.921562,200.209602 126.239595,200.625236 127.624154,200.488077 C132.613556,193.979252 136.355607,189.752257 138.850308,187.811247 C141.345009,185.733078 144.600593,184.486177 148.621219,184.070543 C146.542302,186.568502 143.286717,189.889416 138.850308,194.045753 C135.386832,197.786457 133.166548,201.734978 132.193615,205.891316 L138.430366,208.592936 C145.224268,212.192324 149.939253,210.945423 152.567004,204.852232 C153.261363,203.331012 154.022246,202.429087 154.853813,202.154768 C157.352672,200.350918 158.666548,198.414064 158.803756,196.335896 C158.803756,194.951835 158.109398,192.736507 156.724839,189.685755 C154.645922,185.250943 154.371505,180.196836 155.893272,174.515122 C157.419197,168.837565 160.188315,164.544068 164.208941,161.630475 C167.535209,159.132516 170.237802,158.928856 172.316719,161.007025 C173.426861,162.253926 173.630595,163.359512 172.940394,164.332095 C172.661819,165.300522 171.763727,166.339606 170.237802,167.449348 C164.275467,172.574113 162.753699,179.016436 165.664183,186.776319 C166.911534,190.238548 168.919768,192.595192 171.688886,193.842093 C174.324953,194.81052 178.137687,195.155496 183.122931,194.881177 C187.422132,194.461387 190.956292,192.873666 193.729567,190.101389 C196.498685,187.329112 198.095294,183.93754 198.506919,179.918361 C199.338486,170.084466 194.769026,164.261437 184.786065,162.465899 C183.81729,162.187425 182.432731,161.979608 180.62823,161.842448 C178.82373,161.285499 177.439171,160.246415 176.470396,158.725195 C183.401506,154.984491 189.430366,154.223881 194.556976,156.439209 C199.683587,158.517378 203.496321,163.363668 205.991022,170.986392 C207.932731,176.801108 212.157091,179.644043 218.676575,179.506884 C228.792587,179.506884 234.056406,176.115312 234.476347,169.323856 C236.829681,157.129161 237.731932,147.7109 237.174782,141.06076 C236.62179,135.379046 236.276689,131.085549 236.135323,128.176113 C235.71954,122.905876 235.515806,118.545878 235.515806,115.083649 C235.515806,94.8547528 231.632388,74.6965147 223.873869,54.6089343 C222.210735,50.5897557 219.366776,46.6412348 215.34615,42.7592153 C211.051107,38.0500847 205.575238,34.7250145 198.926861,32.7881611 C194.769026,31.8197344 188.461591,31.125626 180.004555,30.7099922 L174.59937,30.9011837 Z M241.540508,93.0384332 C242.509284,97.0576118 243.132959,102.253034 243.407376,108.6247 C243.407376,112.224088 243.482217,117.768643 243.619425,125.250051 C243.893842,129.269229 244.380309,133.354909 245.074667,137.511247 C245.769026,140.973477 247.428002,143.122303 250.064069,143.953571 C252.55877,144.784838 255.261362,144.227889 258.171847,142.291036 C260.250764,141.181293 261.772531,138.899464 262.745465,135.437235 C266.487516,121.164371 266.487516,107.726931 262.745465,95.1207584 C261.776689,91.7956882 259.901506,89.2312278 257.132388,87.4273772 C254.359112,85.4863675 251.240736,84.5885986 247.77726,84.729914 C242.925067,85.1413915 240.84615,87.9136688 241.540508,93.0384332 Z M243.619425,160.578922 C242.925067,163.347043 243.34085,165.637185 244.866776,167.432723 C247.77726,165.633029 249.926861,161.547349 251.311419,155.175683 C251.727203,152.819039 250.617061,151.293663 247.985152,150.599555 C246.043443,150.462396 245.074667,151.50148 245.074667,153.716808 C244.937459,155.3835 244.450992,157.669485 243.619425,160.578922 Z M208.277831,182.399695 C205.504555,192.927699 199.475695,199.926971 190.187092,203.389201 C186.998033,204.636102 183.879657,207.753355 180.831964,212.740961 C192.195326,213.293754 202.452704,211.007768 211.599941,205.883003 C220.884385,200.899554 226.634671,194.178756 228.850797,185.724765 C225.661738,187.3873 222.198261,187.665775 218.45621,186.556033 C216.385608,185.861924 212.988657,184.477864 208.277831,182.399695 Z M233.016947,235.600818 C232.463955,235.737978 231.49518,236.432086 230.110621,237.678987 C224.701278,242.250959 220.406235,245.434714 217.217175,247.238564 C196.012219,257.903727 173.90917,261.44077 150.899713,257.837225 C138.704784,255.896216 128.863189,250.563634 121.379087,241.835325 C120.410311,240.17279 119.64527,238.925889 119.092278,238.094621 C118.260711,236.710561 117.01336,235.945794 115.350226,235.808635 C100.660596,241.905983 88.9479763,249.179574 80.2165235,257.629408 C69.8219369,267.604619 62.6870926,280.073632 58.8078329,295.036448 C62.9656675,291.848537 67.052819,287.970674 71.0734451,283.398703 C75.2312798,278.132623 78.3496557,274.184102 80.4285731,271.55314 C81.2559822,270.439241 81.8838152,269.682788 82.2954408,269.262998 C83.1270078,268.435887 84.0292579,268.361073 84.9980334,269.055181 C86.9397421,270.439241 86.7318504,272.51741 84.3743582,275.289688 C81.8796574,277.642175 78.2789726,281.453537 73.5639881,286.719616 C69.2689449,291.013113 65.4562105,294.479499 62.1299428,297.110461 C57.0033326,301.129639 54.0221652,306.462221 53.1905983,313.116518 C53.0533897,313.943629 52.9827065,320.111634 52.9827065,331.608064 C55.8931908,329.392736 59.1487753,326.412642 62.7577758,322.676094 C66.7784019,318.519757 69.8219369,315.473161 71.9008542,313.532151 C72.7324211,312.838043 75.2978051,309.58363 79.5970061,303.764758 C82.7860653,299.882738 85.9709667,297.251776 89.1600258,295.867716 C89.7171757,297.251776 89.3679176,298.984969 88.1205672,301.063138 C85.0728744,306.187903 80.8443565,311.246166 75.4391715,316.233771 C72.8031043,318.864733 67.8178606,323.228887 60.4668089,329.322079 C49.6564388,337.909072 46.8831631,348.299917 52.1511396,360.494612 C55.6187737,358.000809 58.529258,358.345785 60.8867502,361.533696 C62.4085177,363.886183 65.2524766,365.2744 69.4103112,365.690034 C84.0999411,367.21541 101.841422,367.768203 122.630595,367.352569 C125.403871,367.352569 127.208371,367.281911 128.03578,367.144752 C129.977489,366.587803 131.503414,365.482217 132.613556,363.815526 C134.418056,359.937662 137.948058,355.432192 143.216034,350.307428 C149.037003,344.62987 152.916262,340.265716 154.857971,337.21912 C156.79968,334.031209 159.153014,333.544918 161.92629,335.760246 C159.710164,339.50095 155.481646,344.422054 149.244894,350.519401 C142.733725,356.891067 138.226633,362.157147 135.731932,366.313485 C144.741959,366.587803 151.049395,366.176325 154.650079,365.066583 C160.471048,363.404048 164.836774,359.522029 167.747259,353.424681 C168.437459,352.040621 169.688967,350.378086 171.485152,348.441232 C173.426861,346.363063 174.81142,344.837687 175.642987,343.865104 C177.721904,341.786935 179.455721,341.3048 180.84028,342.410386 C181.534638,343.378813 181.605322,344.351396 181.048172,345.319823 L179.181304,347.605808 C177.792587,349.405503 175.505778,351.969963 172.320877,355.295033 C169.547601,358.341629 167.61005,361.255222 166.499908,364.027499 C173.156602,364.717451 177.314436,364.717451 178.973412,364.027499 C180.777912,363.47055 183.551188,360.910245 187.289081,356.334118 C192.141275,350.519401 194.91455,346.9117 195.604751,345.527639 C196.71905,343.449471 198.103609,342.963179 199.762585,344.068765 C201.704294,345.319823 201.77082,347.048859 199.974635,349.264187 C199.280277,350.232614 197.338568,352.452098 194.153667,355.918484 C191.658966,358.686605 189.995832,361.251065 189.164265,363.607709 C200.390418,366.105668 208.568879,362.705783 213.695489,353.424681 C216.048824,350.793719 217.716115,348.85271 218.684891,347.609965 C219.932241,346.221748 220.834491,345.394637 221.383326,345.112006 C222.352101,344.559213 223.462243,344.974847 224.709593,346.363063 C224.572385,348.578391 223.117143,351.209353 220.343867,354.255949 C217.296174,357.44386 215.425149,360.00832 214.73079,361.94933 C221.383326,362.776441 226.235519,362.776441 229.283211,361.94933 C233.85683,360.561113 236.904522,357.098884 238.430448,351.558486 C239.120648,348.51189 240.580048,347.539307 242.796174,348.649049 C245.0123,349.758791 245.428083,351.487828 244.043525,353.844471 C243.769107,354.397264 243.278483,355.29919 242.588282,356.541935 C242.168341,357.510361 242.517599,358.690761 243.627741,360.078978 C247.922784,358.969236 253.602386,357.86365 260.674863,356.753908 C271.485233,355.228532 277.376885,354.397264 278.34566,354.255949 C279.455802,353.98163 282.158395,353.009047 286.453438,351.346512 C290.748481,349.825293 292.827398,346.288249 292.69019,340.747851 C292.69019,323.569707 291.995832,310.751561 290.611273,302.301727 C287.837997,282.904098 280.561786,267.459147 268.782641,255.962717 C265.04059,252.222013 259.843296,248.410651 253.190761,244.532788 C245.706658,240.792084 240.160107,237.81199 236.559422,235.596662 C235.445122,234.90671 234.264297,234.90671 233.016947,235.600818 Z M244.866776,229.781946 C261.223697,235.3265 274.665977,245.788002 285.197772,261.166452 C295.592359,276.403586 300.511077,292.82112 299.958085,310.419054 C299.958085,311.528797 299.887402,317.692645 299.750193,328.914757 C299.750193,336.396165 299.400935,342.560014 298.710735,347.41046 C298.153585,350.87269 297.114126,353.503652 295.592359,355.303346 C294.203642,356.965881 291.850307,358.146281 288.52404,358.840389 C268.15065,362.996727 255.743671,365.419872 251.311419,366.11398 C237.316148,368.329308 224.771961,369.57621 213.683016,369.850528 C178.47863,370.544636 154.088772,371.446562 140.500968,372.552148 C131.910882,373.2421 110.08225,373.799049 75.0150724,374.210526 C67.1193444,374.210526 60.188234,371.787381 54.2258991,366.936935 C52.1469818,365.415716 51.386098,363.337547 51.93909,360.702429 C46.533905,357.377358 43.415529,352.115435 42.5839621,344.908345 C41.1994031,329.80837 41.7523951,318.378441 44.2470959,310.618559 C48.820714,295.934217 52.217665,285.680532 54.4337908,279.865816 C63.9968105,257.970228 81.0397748,242.109643 105.575157,232.275748 C113.333677,229.087837 119.99037,230.268237 125.532763,235.808635 C135.232992,245.646687 149.997462,250.775608 169.813702,251.187085 C177.160596,251.324244 185.334899,249.940184 194.340769,247.030747 C204.460939,243.148728 212.148775,240.309949 217.416751,238.510255 C220.190027,237.400513 222.061053,235.875137 223.033986,233.934127 C225.665895,229.777789 229.062846,227.628963 233.220681,227.491803 C235.993957,227.358801 239.877374,228.11941 244.866776,229.781946 Z M172.728345,203.597018 C170.790794,203.322699 169.335551,202.832251 168.362618,202.142299 C166.146492,200.479764 164.1341,200.271947 162.333758,201.518849 C161.36914,202.350116 159.980423,203.734177 158.175923,205.675187 C155.681222,208.310305 154.849656,210.388474 155.681222,211.909693 C156.375581,213.293754 157.689457,214.05852 159.631165,214.195679 C161.847291,214.474154 163.514583,214.68197 164.620567,214.81913 C170.857319,215.371922 175.360254,212.046852 178.13353,204.843919 C176.744813,204.565444 174.948628,204.153967 172.728345,203.597018 Z M69.1982617,129.822022 C69.6140451,131.625873 70.3084035,134.39815 71.277179,138.134698 C73.0816792,146.173055 77.7883481,150.878029 85.409659,152.266246 C88.602876,152.956198 90.7483187,152.885541 91.8584605,152.058429 C92.9686024,150.944531 93.380228,148.729203 93.1058109,145.404133 C92.274244,137.511247 91.5798856,131.551059 91.0268936,127.53188 C90.3325352,120.603265 90.1953267,114.647233 90.6069523,109.659628 L90.6069523,105.918924 C89.6423347,101.762586 87.7671512,99.2022821 84.9938755,98.2296991 C82.2205998,97.1199569 79.3142734,97.9512245 76.2624228,100.723502 C70.3000879,105.848266 67.8095449,113.055356 68.7741625,122.336458 C68.5039033,124.281624 68.6411118,126.77127 69.1982617,129.822022 Z M82.919116,330.780953 C89.9874349,322.189803 97.8166376,315.813981 106.410882,311.657643 C104.331964,315.539663 100.727122,319.696 95.5963539,324.126656 C90.4655859,328.557312 87.2100014,331.886539 85.8254425,334.101867 C81.5303993,341.720434 75.1564387,348.299917 66.6952452,353.844471 C73.6346713,343.457783 79.0356985,335.768558 82.919116,330.780953 Z M126.57638,331.820038 C126.439171,332.235671 125.811338,332.92978 124.705354,333.898206 C113.894984,344.979003 105.579315,354.750553 99.7583464,363.200388 C99.3425629,360.290951 99.5504546,357.797149 100.382022,355.71898 C100.656439,355.024871 101.766581,353.565997 103.708289,351.350669 C109.807833,343.594942 115.558118,336.666327 120.963303,330.56898 C122.485071,328.075177 124.081679,327.522384 125.740655,328.910601 C126.850797,329.883184 127.13353,330.851611 126.57638,331.820038 Z" id="Shape" fill="#292929" fill-rule="nonzero"></path>
                    <text id="Created-by-Saeful-Mu" fill="#000000" font-family="Helvetica-Bold, Helvetica" font-size="5" font-weight="bold">
                        <tspan x="0" y="413.848684">Created by Saeful Muslim from the Noun Project</tspan>
                    </text>
                </g>
            </g>
        </g>
    </g>
</svg>