<?xml version="1.0" encoding="UTF-8"?>
<svg width="308px" height="329px" viewBox="0 0 308 329" version="1.1" xmlns="http://www.w3.org/2000/svg" xmlns:xlink="http://www.w3.org/1999/xlink">
    <!-- Generator: Sketch 49 (51002) - http://www.bohemiancoding.com/sketch -->
    <title>noun_1206737_cc</title>
    <desc>Created with Sketch.</desc>
    <defs></defs>
    <g id="visuals" stroke="none" stroke-width="1" fill="none" fill-rule="evenodd">
        <g id="Home" transform="translate(-264.000000, -882.000000)">
            <g id="Group-26" transform="translate(264.000000, 880.000000)">
                <g id="Group-24">
                    <g id="noun_1206737_cc" transform="translate(0.000000, 2.000000)">
                        <g id="Group">
                            <path d="M292.138,264.363356 C244.141333,274.353356 193.451378,276.4531 144.616267,279.184474 C119.247333,280.601374 93.8612889,281.680267 68.4752444,282.73526 C56.5624889,283.230321 44.6463111,283.749282 32.7198667,283.698069 C25.1293778,283.667341 14.8900889,284.916945 7.62128889,281.99096 C5.69457778,281.215933 4.2196,280.232638 3.11422222,279.085461 C-1.77271111,294.213859 37.8395111,290.52309 45.2246667,290.123626 C56.5077333,289.515895 67.7942222,288.908165 79.0772889,288.29702 C103.258711,286.989375 127.436711,285.623688 151.607867,284.118018 C175.7756,282.612348 199.933067,280.956452 224.076844,279.09229 C235.3428,278.221664 246.605333,277.327139 257.864444,276.371159 C264.298222,275.824884 270.732,275.258124 277.162356,274.674293 C280.427156,274.377256 308.937689,273.151552 300.454,261.191548 C298.462267,262.53675 295.758711,263.612228 292.138,264.363356 Z" id="Shape"></path>
                            <path d="M23.4867111,278.211422 C27.9527111,278.351405 32.4255556,278.354819 36.8915556,278.317262 C74.2553778,278.016811 111.769778,275.572232 149.065156,273.366647 C187.873156,271.072293 226.643511,267.890243 265.174311,262.652833 C269.890133,262.01096 274.599111,261.33836 279.308089,260.635031 C286.8096,259.508339 292.059289,260.351651 296.391822,253.540287 C300.474533,247.128387 298.085822,244.663322 295.656044,237.899757 C294.102356,233.573944 292.500756,229.265202 290.854667,224.97353 C284.311378,207.926343 276.915956,191.244477 268.949022,174.815263 C261.7384,177.270085 252.912489,176.713568 245.879822,177.246186 C214.118178,179.653209 182.356533,182.060232 150.598311,184.467256 C118.371244,186.911835 85.2133333,191.923906 52.9075556,191.701982 C50.7686667,191.688325 48.8043111,191.476644 46.9323556,191.159122 C37.5383556,207.564436 28.0451111,223.921951 19.3697778,240.723315 C16.4403556,246.397744 7.81293333,258.009498 7.68288889,264.438469 C9.22631111,268.832567 10.7697333,273.230079 12.3131556,277.624176 C16.0331111,277.931456 19.7564889,278.129481 23.4867111,278.211422 Z M175.895378,259.696121 C175.878267,260.566746 175.3444,261.423715 174.215067,261.498828 C156.751467,262.639176 139.164667,263.23325 121.670267,263.752211 C120.102889,263.80001 119.976267,261.457857 121.5368,261.331531 C138.432311,259.96243 155.413378,258.665027 172.349956,257.862686 C170.142622,251.146921 168.202222,248.388233 160.029956,247.917071 C155.933556,247.68149 151.299867,248.360919 147.200044,248.569187 C143.066,248.777454 138.456267,248.453103 134.370133,249.221302 C126.081511,250.778185 123.6928,253.02474 121.266444,260.710144 C120.777067,262.263612 118.453378,261.81635 118.754533,260.167283 C119.469778,256.264833 119.356844,249.088148 122.854356,246.452372 C125.506578,244.455055 131.211422,245.271053 134.140844,245.090099 C139.127022,244.78282 144.116622,244.496025 149.1028,244.202403 C154.434622,243.88488 167.322711,240.433107 172.000889,243.772211 C175.662667,246.384087 175.8064,254.045591 176.535333,258.122167 C176.655111,258.832324 176.357378,259.354699 175.895378,259.696121 Z M55.9772889,204.95256 C123.155511,196.949634 190.785467,191.838551 258.158756,185.720273 C261.016311,185.460793 261.249022,189.892447 258.405156,190.151928 C191.048978,196.266791 123.627778,203.426405 56.1244444,207.646377 C54.3722667,207.755632 54.2627556,205.157413 55.9772889,204.95256 Z M44.6976444,222.788431 C116.184444,214.717221 188.704756,209.787092 260.516667,205.505663 C262.737689,205.372509 262.901956,208.721856 260.708311,208.930123 C189.101733,215.744901 116.694356,222.030475 44.8242667,225.045229 C43.3527111,225.110099 43.2568889,222.9489 44.6976444,222.788431 Z M44.1192889,234.762092 C115.784044,229.64418 187.866311,227.786846 259.657689,224.27703 C260.126533,223.495174 260.992356,222.942071 262.145644,223.112782 C264.086044,223.396162 266.023022,223.682956 267.963422,223.966336 C270.862044,224.393113 270.345289,228.807697 267.566444,228.968165 C193.420578,233.201794 118.545778,237.82123 44.2596,237.274956 C42.6477333,237.261299 42.4903111,234.878175 44.1192889,234.762092 Z" id="Shape"></path>
                            <path d="M69.2794667,184.815506 L105.010889,182.108031 C130.420889,180.182413 155.827467,178.260208 181.237467,176.33459 C206.644044,174.408971 232.067733,172.619921 257.464044,170.561148 C266.967556,169.792949 275.1364,165.47055 276.898844,155.600048 C277.863911,150.188513 277.371111,144.456042 277.152089,139.003537 C276.683244,127.326914 276.163067,115.653705 275.666844,103.977081 C274.599111,78.7938141 274.876311,53.0608578 271.330889,28.0687867 C270.797022,24.2994908 270.382933,20.2843712 269.301511,16.6345728 C267.347422,10.0451333 260.917067,7.16694805 254.154756,6.11195489 C248.487556,5.22767259 241.629422,6.69920027 235.917733,6.99282297 C222.974889,7.66542379 210.035467,8.32778195 197.092622,8.99355434 C145.328089,11.642987 93.5669778,14.7601675 41.7613778,16.4843472 C41.1727556,16.5048325 40.7244444,16.2999795 40.3924889,15.9892857 C31.0943111,22.6606664 28.5208,34.1153657 27.0218667,45.1364593 C25.0438222,59.66054 23.9281778,74.4680007 23.0623556,89.0910936 C21.5155111,115.30204 19.4964,148.723814 31.3064889,172.978414 C38.9243556,188.61553 54.6631556,185.925126 69.2794667,184.815506 Z M49.8823111,168.28728 C35.4781778,123.68053 31.2483111,74.7069959 41.888,28.8028435 C41.6860889,28.7994293 41.4841778,28.7994293 41.2822667,28.796015 C40.0571111,28.7721155 39.9236444,26.9284381 41.1761778,26.8772249 C76.8083556,25.3783835 112.502133,25.1325598 148.151422,24.0604956 C183.735689,22.9918455 219.535556,20.2297437 255.130089,20.5062953 C256.827511,20.5199522 257.388756,22.3158305 256.676933,23.3776521 C261.095022,27.7854067 261.779467,33.6237184 262.429689,39.916121 C263.743822,52.6272522 264.452222,65.4203247 264.811556,78.1894976 C265.513111,103.089385 264.845778,128.17364 261.468044,152.875502 C261.2148,154.732837 258.045822,154.483599 258.158756,152.612608 C259.445511,131.88148 260.745956,111.201565 260.5988,90.41581 C260.523511,80.0297608 260.150489,69.6437116 259.500267,59.2747334 C258.877422,49.3222898 260.150489,32.4765414 252.440222,25.1393882 C252.1904,24.9038072 252.019289,24.6511552 251.909778,24.3916746 C217.595156,27.1845044 182.743244,26.8874675 148.349911,27.6249385 C113.675956,28.3692379 78.9232889,29.3730178 44.2356444,28.8233288 C37.4699111,75.8097881 39.1057333,121.550058 53.5783111,167.037676 C54.3380444,169.437871 50.6523111,170.666989 49.8823111,168.28728 Z M54.8719111,168.823312 C70.6791556,165.166685 87.7389333,165.200827 103.8884,163.944395 C120.143956,162.67772 136.402933,161.441774 152.661911,160.198999 C186.798578,157.590537 220.9284,154.671381 255.092444,152.458968 C258.2272,152.257529 258.470178,157.034019 255.3628,157.300328 C222.064578,160.147785 188.694489,162.312399 155.365467,164.77405 C138.292,166.033896 121.218533,167.303985 104.145067,168.539932 C88.0948444,169.70418 71.3704444,172.281914 55.3031111,171.045967 C54.1429778,170.960612 53.4927556,169.140834 54.8719111,168.823312 Z" id="Shape"></path>
                            <path d="M304.389556,257.76026 C304.266356,257.60662 304.132889,257.473465 303.992578,257.353968 C307.038356,251.529313 303.677733,243.161066 300.310267,233.915366 C292.671867,212.928172 283.746711,192.459938 273.825689,172.452625 C274.393778,172.077061 274.944756,171.670769 275.468356,171.226921 C281.6044,166.003168 282.901422,157.252529 283.171778,149.683209 C284.280578,118.426049 280.868622,86.1412098 279.249911,54.901121 C278.3704,37.9256323 281.214267,3.85174299 258.299067,0.789190021 C243.432933,-1.19788448 226.314978,2.03196514 211.356444,2.85137731 C191.9456,3.90978469 172.538178,4.97502051 153.127333,6.03684211 C118.398622,7.93856118 83.6596444,9.69005468 48.9617333,12.1107348 C48.3457333,12.6535954 47.5380889,13.0394019 46.4943111,13.1111005 C41.9153778,13.4320369 37.3912,14.2002358 32.8464889,14.7943096 C20.1329333,27.648838 20.4648889,50.660663 18.9488444,67.4073992 C16.2384444,97.3227717 14.7189778,127.675164 20.6017778,157.324228 C23.6646667,172.773561 29.3010667,186.075352 43.1679111,190.288496 C31.0053333,208.117539 20.3793333,226.899149 10.6704889,246.172406 C7.01213333,253.437861 -2.45373333,267.405424 1.19093333,276.16972 C-0.992444444,280.580889 -0.147155556,285.937796 3.51462222,289.891459 C11.2625333,298.256292 25.8069778,295.51809 35.7964444,295.050342 C72.8899111,293.312505 109.976533,291.482485 147.046044,289.348599 C184.112133,287.214713 221.161111,284.776962 258.155333,281.64271 C266.218089,280.956452 322.63,280.502362 304.389556,257.76026 Z M31.3133333,172.981828 C19.5032444,148.730643 21.5223556,115.305455 23.0692,89.0945079 C23.9316,74.4714149 25.0506667,59.6673684 27.0287111,45.1398735 C28.5310667,34.1153657 31.1011556,22.6640807 40.3993333,15.9926999 C40.7278667,16.2999795 41.1796,16.5082468 41.7682222,16.4877614 C93.5704,14.7635817 145.334933,11.6498154 197.099467,8.99696856 C210.042311,8.33461039 222.981733,7.668838 235.924578,6.99623718 C241.636267,6.69920027 248.4944,5.23108681 254.1616,6.1153691 C260.923911,7.17036227 267.354267,10.0485475 269.308356,16.637987 C270.389778,20.2877854 270.803867,24.302905 271.337733,28.072201 C274.883156,53.064272 274.605956,78.7938141 275.673689,103.980496 C276.169911,115.653705 276.686667,127.330328 277.158933,139.006951 C277.377956,144.459457 277.874178,150.191928 276.905689,155.603462 C275.143244,165.473964 266.9744,169.792949 257.470889,170.564563 C232.074578,172.623336 206.650889,174.412386 181.244311,176.338004 C155.834311,178.263623 130.427733,180.185827 105.017733,182.111446 L69.2863111,184.81892 C54.6631556,185.925126 38.9243556,188.61553 31.3133333,172.981828 Z M19.3697778,240.719901 C28.0451111,223.918537 37.5383556,207.561022 46.9323556,191.155707 C48.8008889,191.47323 50.7652444,191.684911 52.9075556,191.698568 C85.2133333,191.920492 118.371244,186.908421 150.591467,184.467256 C182.353111,182.060232 214.114756,179.653209 245.872978,177.246186 C252.905644,176.713568 261.731556,177.270085 268.942178,174.815263 C276.909111,191.241063 284.304533,207.926343 290.847822,224.97353 C292.493911,229.265202 294.095511,233.573944 295.6492,237.899757 C298.078978,244.659908 300.467689,247.128387 296.384978,253.540287 C292.049022,260.348237 286.802756,259.508339 279.301244,260.635031 C274.595689,261.341774 269.883289,262.014375 265.167467,262.652833 C226.640089,267.890243 187.866311,271.072293 149.058311,273.366647 C111.762933,275.572232 74.2519556,278.013397 36.8847111,278.317262 C32.4187111,278.354819 27.9458667,278.351405 23.4798667,278.211422 C19.7496444,278.129481 16.0262667,277.931456 12.3063111,277.620762 C10.7628889,273.226664 9.21946667,268.829152 7.67604444,264.435055 C7.81293333,258.009498 16.4403556,246.397744 19.3697778,240.719901 Z M277.162356,274.681121 C270.732,275.268366 264.298222,275.831712 257.864444,276.377987 C246.605333,277.333968 235.3428,278.228493 224.076844,279.099118 C199.933067,280.963281 175.7756,282.615762 151.607867,284.124846 C127.436711,285.63393 103.258711,286.996203 79.0772889,288.303848 C67.7908,288.914993 56.5077333,289.51931 45.2246667,290.130455 C37.8395111,290.529918 -1.77271111,294.220687 3.11422222,279.09229 C4.2196,280.236053 5.69457778,281.222761 7.62128889,281.997789 C14.8900889,284.923773 25.1293778,283.67417 32.7198667,283.704897 C44.6463111,283.752697 56.5624889,283.23715 68.4752444,282.742088 C93.8612889,281.687095 119.247333,280.608202 144.616267,279.191302 C193.451378,276.463342 244.137911,274.360185 292.138,264.370185 C295.762133,263.615643 298.462267,262.540164 300.457422,261.205205 C308.937689,273.15838 280.427156,274.384084 277.162356,274.681121 Z" id="Shape" fill="#000000" fill-rule="nonzero"></path>
                            <path d="M44.2356444,28.8301572 C78.9232889,29.3798462 113.672533,28.3760663 148.349911,27.6317669 C182.743244,26.894296 217.591733,27.1913329 251.909778,24.3985031 C252.019289,24.6579836 252.193822,24.9106357 252.440222,25.1462167 C260.150489,32.4833698 258.874,49.3291183 259.500267,59.2815619 C260.150489,69.6471258 260.523511,80.033175 260.5988,90.4226384 C260.745956,111.204979 259.445511,131.888308 258.158756,152.619436 C258.0424,154.487013 261.211378,154.739665 261.468044,152.882331 C264.8492,128.180468 265.516533,103.096213 264.811556,78.196326 C264.452222,65.4271531 263.747244,52.6306664 262.429689,39.9229494 C261.779467,33.6305468 261.0916,27.7922351 256.676933,23.3844805 C257.392178,22.3192447 256.830933,20.5267806 255.130089,20.5131237 C219.535556,20.2365721 183.735689,22.9952597 148.151422,24.067324 C112.502133,25.1393882 76.8083556,25.3852119 41.1761778,26.8840533 C39.9236444,26.9352666 40.0571111,28.778944 41.2822667,28.8028435 C41.4841778,28.8062577 41.6860889,28.8062577 41.888,28.8096719 C31.2517333,74.7172386 35.4781778,123.687358 49.8823111,168.294108 C50.6523111,170.673817 54.3380444,169.444699 53.5783111,167.054747 C39.1057333,121.560301 37.4699111,75.8200308 44.2356444,28.8301572 Z" id="Shape" fill="#000000" fill-rule="nonzero"></path>
                            <path d="M104.145067,168.539932 C121.218533,167.303985 138.292,166.033896 155.365467,164.77405 C188.694489,162.312399 222.064578,160.147785 255.3628,157.300328 C258.470178,157.034019 258.2272,152.254115 255.092444,152.458968 C220.9284,154.671381 186.798578,157.590537 152.661911,160.198999 C136.402933,161.441774 120.143956,162.67772 103.8884,163.944395 C87.7389333,165.200827 70.6791556,165.166685 54.8719111,168.823312 C53.4893333,169.144248 54.1395556,170.960612 55.2996889,171.049381 C71.3704444,172.281914 88.0914222,169.70418 104.145067,168.539932 Z" id="Shape" fill="#000000" fill-rule="nonzero"></path>
                            <path d="M171.997467,243.768797 C167.315867,240.433107 154.427778,243.88488 149.099378,244.198988 C144.1132,244.496025 139.1236,244.779405 134.137422,245.086685 C131.211422,245.267638 125.506578,244.45164 122.850933,246.448958 C119.35,249.084733 119.462933,256.261418 118.751111,260.163869 C118.449956,261.812936 120.770222,262.260198 121.263022,260.706729 C123.6928,253.017912 126.081511,250.771357 134.366711,249.217888 C138.452844,248.449689 143.062578,248.777454 147.196622,248.565772 C151.296444,248.357505 155.930133,247.68149 160.026533,247.913657 C168.1988,248.381405 170.1392,251.143506 172.346533,257.859272 C155.413378,258.661613 138.428889,259.955602 121.533378,261.328117 C119.972844,261.454443 120.102889,263.796596 121.666844,263.748797 C139.161244,263.229836 156.748044,262.635762 174.211644,261.495414 C175.340978,261.420301 175.874844,260.563332 175.891956,259.692707 C176.353956,259.351285 176.655111,258.82891 176.528489,258.111924 C175.802978,254.042177 175.659244,246.380673 171.997467,243.768797 Z" id="Shape" fill="#000000" fill-rule="nonzero"></path>
                            <path d="M44.2596,237.274956 C118.545778,237.82123 193.420578,233.201794 267.566444,228.968165 C270.345289,228.811111 270.865467,224.393113 267.963422,223.966336 C266.023022,223.682956 264.086044,223.396162 262.145644,223.112782 C260.988933,222.942071 260.123111,223.495174 259.657689,224.27703 C187.869733,227.786846 115.784044,229.64418 44.1192889,234.762092 C42.4903111,234.878175 42.6477333,237.261299 44.2596,237.274956 Z" id="Shape" fill="#000000" fill-rule="nonzero"></path>
                            <path d="M44.8242667,225.048643 C116.694356,222.033889 189.101733,215.748315 260.708311,208.933537 C262.901956,208.72527 262.737689,205.375923 260.516667,205.509077 C188.704756,209.787092 116.181022,214.720636 44.6976444,222.791846 C43.2568889,222.9489 43.3527111,225.110099 44.8242667,225.048643 Z" id="Shape" fill="#000000" fill-rule="nonzero"></path>
                            <path d="M56.1244444,207.646377 C123.624356,203.42299 191.048978,196.266791 258.401733,190.151928 C261.2456,189.892447 261.012889,185.460793 258.155333,185.720273 C190.782044,191.838551 123.152089,196.949634 55.9738667,204.95256 C54.2627556,205.157413 54.3722667,207.755632 56.1244444,207.646377 Z" id="Shape" fill="#000000" fill-rule="nonzero"></path>
                        </g>
                        <text id="Created-by-Valeriy-f" fill="#000000" font-family="Helvetica-Bold, Helvetica" font-size="5" font-weight="bold">
                            <tspan x="17" y="327">Created by Valeriy from the Noun Project</tspan>
                        </text>
                    </g>
                </g>
            </g>
        </g>
    </g>
</svg>