<?xml version="1.0" encoding="UTF-8"?>
<svg width="200px" height="22px" viewBox="0 0 200 22" version="1.1" xmlns="http://www.w3.org/2000/svg" xmlns:xlink="http://www.w3.org/1999/xlink">
    <!-- Generator: Sketch 49 (51002) - http://www.bohemiancoding.com/sketch -->
    <title>Group 13</title>
    <desc>Created with Sketch.</desc>
    <defs></defs>
    <g id="visuals" stroke="none" stroke-width="1" fill="none" fill-rule="evenodd">
        <g id="Home" transform="translate(-264.000000, -39.000000)">
            <g id="Group-13" transform="translate(264.000000, 39.000000)">
                <path d="M10.1241383,5.89826913 C10.1241383,7.88884294 9.57619485,9.42254074 8.48029151,10.4994085 C7.38438817,11.5762763 5.84389207,12.1147022 3.85875699,12.1147022 L0,12.1147022 L0,0.187635118 L4.12797259,0.187635118 C6.04240423,0.187635118 7.52035592,0.677113139 8.561872,1.65608386 C9.60338808,2.63505459 10.1241383,4.04910221 10.1241383,5.89826913 Z M6.77933838,6.01248181 C6.77933838,4.91929784 6.56315226,4.10893978 6.13077352,3.58138333 C5.69839478,3.05382689 5.04167844,2.79005262 4.16060478,2.79005262 L3.22242919,2.79005262 L3.22242919,9.47149442 L3.94033747,9.47149442 C4.9193082,9.47149442 5.63720929,9.18732523 6.0940623,8.61897834 C6.55091531,8.05063145 6.77933838,7.18180796 6.77933838,6.01248181 Z M20.6371436,12.1147022 L20.0497641,9.87939685 L16.174691,9.87939685 L15.5709954,12.1147022 L12.0304023,12.1147022 L15.9217915,0.138686826 L20.2210831,0.138686826 L24.1614206,12.1147022 L20.6371436,12.1147022 Z M19.3808041,7.2361891 L18.8668471,5.27825744 C18.7471951,4.84315934 18.6017113,4.28025962 18.4303915,3.58954138 C18.2590716,2.89882315 18.1462197,2.40390648 18.0918324,2.10477654 C18.0428839,2.38215158 17.946348,2.83899773 17.8022217,3.4753287 C17.6580955,4.11165967 17.3385751,5.36526727 16.843651,7.2361891 L19.3808041,7.2361891 Z M38.1987029,12.1147022 L33.9728337,12.1147022 L29.6164357,3.71191211 L29.5430133,3.71191211 C29.6463491,5.03352259 29.6980162,6.04239118 29.6980162,6.73854814 L29.6980162,12.1147022 L26.8426992,12.1147022 L26.8426992,0.187635118 L31.0522523,0.187635118 L35.3923342,8.47621249 L35.4412824,8.47621249 C35.3651403,7.27425399 35.3270698,6.30889456 35.3270698,5.58010524 L35.3270698,0.187635118 L38.1987029,0.187635118 L38.1987029,12.1147022 Z M60.7829007,12.1147022 L56.973092,12.1147022 L55.8309652,6.91802521 C55.776578,6.70047616 55.6909193,6.26810391 55.5739867,5.62089548 C55.4570541,4.97368706 55.3713954,4.43254191 55.3170082,3.99744381 C55.2734984,4.35096102 55.202796,4.79013158 55.1048989,5.31496866 C55.0070018,5.83980574 54.9104659,6.32248546 54.8152882,6.76302229 C54.7201105,7.20355911 54.3244491,8.98743457 53.6282921,12.1147022 L49.8184834,12.1147022 L46.8652698,0.187635118 L49.9734863,0.187635118 L51.2706161,6.16748474 C51.5643073,7.48909522 51.7655371,8.54147296 51.8743117,9.32464954 C51.9450151,8.76989947 52.0714636,8.01664718 52.2536609,7.06487008 C52.4358583,6.11309299 52.6058159,5.32448951 52.763539,4.69903599 L53.8159272,0.187635118 L56.801773,0.187635118 L57.8215291,4.69903599 C57.9955683,5.42238658 58.1723243,6.25721854 58.3518022,7.20355691 C58.5312802,8.14989528 58.6509304,8.85691909 58.7107564,9.32464954 C58.7814598,8.72095093 58.9745317,7.67401183 59.2899778,6.18380083 L60.6115817,0.187635118 L63.7197982,0.187635118 L60.7829007,12.1147022 Z M66.6539764,12.1147022 L66.6539764,0.187635118 L69.8927217,0.187635118 L69.8927217,12.1147022 L66.6539764,12.1147022 Z M73.862972,12.1147022 L73.862972,0.187635118 L77.0854012,0.187635118 L77.0854012,9.51228466 L81.6783825,9.51228466 L81.6783825,12.1147022 L73.862972,12.1147022 Z M89.9071342,12.1147022 L86.684705,12.1147022 L86.684705,2.82268481 L83.7722817,2.82268481 L83.7722817,0.187635118 L92.8113995,0.187635118 L92.8113995,2.82268481 L89.9071342,2.82268481 L89.9071342,12.1147022 Z M106.952017,2.65952384 C106.185157,2.65952384 105.586906,2.97360557 105.157246,3.60177845 C104.727587,4.22995134 104.512761,5.0960555 104.512761,6.20011693 C104.512761,8.49525941 105.385663,9.64281344 107.131494,9.64281344 C107.659051,9.64281344 108.170283,9.56939174 108.665207,9.42254613 C109.160131,9.27570052 109.657767,9.09894457 110.15813,8.89227297 L110.15813,11.6170612 C109.162843,12.057598 108.037044,12.2778631 106.780698,12.2778631 C104.98048,12.2778631 103.600424,11.7557532 102.640488,10.7115178 C101.680553,9.66728236 101.200593,8.15805847 101.200593,6.18380083 C101.200593,4.94920997 101.433095,3.86420036 101.898106,2.92873945 C102.363117,1.99327853 103.03207,1.27401777 103.904986,0.770935592 C104.777901,0.267853413 105.804446,0.0163160972 106.984649,0.0163160972 C108.273627,0.0163160972 109.50548,0.296406298 110.680245,0.856595102 L109.693121,3.39374822 C109.252585,3.18707662 108.812054,3.01303999 108.371518,2.87163311 C107.930981,2.73022622 107.457819,2.65952384 106.952017,2.65952384 Z M124.701211,6.13485254 C124.701211,8.14174253 124.209014,9.66728236 123.224605,10.7115178 C122.240195,11.7557532 120.798954,12.2778631 118.900839,12.2778631 C117.029917,12.2778631 115.595475,11.7530339 114.597468,10.7033598 C113.599462,9.65368559 113.100466,8.12542643 113.100466,6.11853645 C113.100466,4.13340136 113.596743,2.61737916 114.58931,1.57042435 C115.581878,0.52346955 117.024478,0 118.917155,0 C120.81527,0 122.253792,0.519390567 123.232763,1.55818728 C124.211733,2.596984 124.701211,4.12252383 124.701211,6.13485254 Z M116.494215,6.13485254 C116.494215,8.44087248 117.296415,9.59386515 118.900839,9.59386515 C119.716648,9.59386515 120.321697,9.31377495 120.716005,8.75358614 C121.110312,8.19339734 121.307463,7.32049487 121.307463,6.13485254 C121.307463,4.94377149 121.107593,4.06407072 120.707847,3.49572382 C120.3081,2.92737693 119.711209,2.64320774 118.917155,2.64320774 C117.301853,2.64320774 116.494215,3.80707771 116.494215,6.13485254 Z M135.230533,12.1147022 L134.643153,9.87939685 L130.76808,9.87939685 L130.164385,12.1147022 L126.623792,12.1147022 L130.515181,0.138686826 L134.814472,0.138686826 L138.75481,12.1147022 L135.230533,12.1147022 Z M133.974193,7.2361891 L133.460236,5.27825744 C133.340584,4.84315934 133.195101,4.28025962 133.023781,3.58954138 C132.852461,2.89882315 132.739609,2.40390648 132.685222,2.10477654 C132.636273,2.38215158 132.539737,2.83899773 132.395611,3.4753287 C132.251485,4.11165967 131.931964,5.36526727 131.43704,7.2361891 L133.974193,7.2361891 Z M146.412498,2.65952384 C145.645638,2.65952384 145.047387,2.97360557 144.617727,3.60177845 C144.188068,4.22995134 143.973242,5.0960555 143.973242,6.20011693 C143.973242,8.49525941 144.846144,9.64281344 146.591975,9.64281344 C147.119532,9.64281344 147.630764,9.56939174 148.125688,9.42254613 C148.620612,9.27570052 149.118248,9.09894457 149.618611,8.89227297 L149.618611,11.6170612 C148.623324,12.057598 147.497525,12.2778631 146.241179,12.2778631 C144.440961,12.2778631 143.060905,11.7557532 142.100969,10.7115178 C141.141034,9.66728236 140.661074,8.15805847 140.661074,6.18380083 C140.661074,4.94920997 140.893576,3.86420036 141.358587,2.92873945 C141.823598,1.99327853 142.492551,1.27401777 143.365467,0.770935592 C144.238383,0.267853413 145.264927,0.0163160972 146.44513,0.0163160972 C147.734108,0.0163160972 148.965961,0.296406298 150.140726,0.856595102 L149.153602,3.39374822 C148.713066,3.18707662 148.272535,3.01303999 147.831999,2.87163311 C147.391462,2.73022622 146.9183,2.65952384 146.412498,2.65952384 Z M163.557997,12.1147022 L160.319252,12.1147022 L160.319252,7.2525052 L156.574707,7.2525052 L156.574707,12.1147022 L153.335962,12.1147022 L153.335962,0.187635118 L156.574707,0.187635118 L156.574707,4.60929746 L160.319252,4.60929746 L160.319252,0.187635118 L163.557997,0.187635118 L163.557997,12.1147022 Z M167.528247,12.1147022 L167.528247,0.187635118 L170.766993,0.187635118 L170.766993,12.1147022 L167.528247,12.1147022 Z M186.093246,12.1147022 L181.867377,12.1147022 L177.510979,3.71191211 L177.437557,3.71191211 C177.540893,5.03352259 177.59256,6.04239118 177.59256,6.73854814 L177.59256,12.1147022 L174.737243,12.1147022 L174.737243,0.187635118 L178.946796,0.187635118 L183.286878,8.47621249 L183.335826,8.47621249 C183.259684,7.27425399 183.221613,6.30889456 183.221613,5.58010524 L183.221613,0.187635118 L186.093246,0.187635118 L186.093246,12.1147022 Z M194.852271,5.13141257 L200,5.13141257 L200,11.5599549 C198.602247,12.0385628 197.06583,12.2778631 195.390703,12.2778631 C193.552413,12.2778631 192.131567,11.744876 191.128122,10.6788856 C190.124677,9.61289526 189.622962,8.09279408 189.622962,6.11853645 C189.622962,4.19322735 190.172265,2.69488074 191.270888,1.62345167 C192.369511,0.552022598 193.908647,0.0163160972 195.888344,0.0163160972 C196.638888,0.0163160972 197.347271,0.087018478 198.013515,0.228425361 C198.679759,0.369832243 199.260334,0.549307518 199.755259,0.766856568 L198.735502,3.29585163 C197.876184,2.87163098 196.932579,2.65952384 195.90466,2.65952384 C194.96376,2.65952384 194.236341,2.9654476 193.722382,3.57730431 C193.208422,4.18916101 192.951446,5.06342314 192.951446,6.20011693 C192.951446,7.31505581 193.183948,8.16484405 193.648959,8.74950712 C194.11397,9.33417019 194.784283,9.62649734 195.659918,9.62649734 C196.138526,9.62649734 196.579056,9.58026886 196.981522,9.48781052 L196.981522,7.61961739 L194.852271,7.61961739 L194.852271,5.13141257 Z" id="Dan-Wilt-Coaching" fill="#FFFFFF"></path>
                <rect id="Rectangle-19" fill="#37B9F1" x="30" y="20" width="140" height="2"></rect>
            </g>
        </g>
    </g>
</svg>