<?xml version="1.0" encoding="UTF-8"?>
<svg width="140px" height="40px" viewBox="0 0 140 40" version="1.1" xmlns="http://www.w3.org/2000/svg" xmlns:xlink="http://www.w3.org/1999/xlink">
    <!-- Generator: Sketch 49 (51002) - http://www.bohemiancoding.com/sketch -->
    <title>walmart</title>
    <desc>Created with Sketch.</desc>
    <defs></defs>
    <g id="visuals" stroke="none" stroke-width="1" fill="none" fill-rule="evenodd">
        <g id="Home" transform="translate(-640.000000, -3858.000000)" fill-rule="nonzero">
            <g id="Stacked-Group-4" transform="translate(640.000000, 3858.000000)">
                <g id="walmart">
                    <g id="Group">
                        <g transform="translate(2.389078, 30.975610)" fill="#007DC3" id="Shape">
                            <g transform="translate(0.000000, 0.243902)">
                                <path d="M0.38225256,5.19512195 C0.764505119,5.3902439 1.33788396,5.58536585 1.93515358,5.58536585 C2.58020478,5.58536585 2.91467577,5.31707317 2.91467577,4.90243902 C2.91467577,4.51219512 2.62798635,4.26829268 1.86348123,4 C0.836177474,3.63414634 0.14334471,3.04878049 0.14334471,2.12195122 C0.14334471,1.02439024 1.02730375,0.195121951 2.50853242,0.195121951 C3.20136519,0.195121951 3.72696246,0.341463415 4.10921502,0.512195122 L3.79863481,1.68292683 C3.55972696,1.56097561 3.10580205,1.3902439 2.48464164,1.3902439 C1.86348123,1.3902439 1.57679181,1.68292683 1.57679181,2 C1.57679181,2.41463415 1.93515358,2.58536585 2.72354949,2.90243902 C3.8225256,3.31707317 4.34812287,3.90243902 4.34812287,4.80487805 C4.34812287,5.87804878 3.53583618,6.7804878 1.83959044,6.7804878 C1.12286689,6.7804878 0.43003413,6.58536585 0.0716723549,6.3902439 L0.38225256,5.19512195 Z"></path>
                                <path d="M9.12627986,5.53658537 C9.12627986,5.97560976 9.15017065,6.41463415 9.19795222,6.65853659 L7.93174061,6.65853659 L7.86006826,6.19512195 L7.83617747,6.19512195 C7.54948805,6.56097561 7.07167235,6.75609756 6.54607509,6.75609756 C5.63822526,6.75609756 5.0887372,6.07317073 5.0887372,5.34146341 C5.0887372,4.14634146 6.13993174,3.56097561 7.74061433,3.58536585 L7.74061433,3.51219512 C7.74061433,3.26829268 7.62116041,2.92682927 6.92832765,2.92682927 C6.47440273,2.92682927 5.97269625,3.09756098 5.68600683,3.26829268 L5.42320819,2.34146341 C5.7337884,2.17073171 6.35494881,1.92682927 7.19112628,1.92682927 C8.69624573,1.92682927 9.17406143,2.82926829 9.17406143,3.92682927 L9.17406143,5.53658537 L9.12627986,5.53658537 Z M7.76450512,4.48780488 C7.02389078,4.48780488 6.45051195,4.65853659 6.45051195,5.2195122 C6.45051195,5.58536585 6.6894198,5.75609756 7,5.75609756 C7.35836177,5.75609756 7.64505119,5.51219512 7.74061433,5.2195122 C7.76450512,5.14634146 7.76450512,5.04878049 7.76450512,4.97560976 L7.76450512,4.48780488 Z"></path>
                                <path d="M11.1808874,2.04878049 L11.8020478,4.19512195 C11.9215017,4.58536585 11.9931741,4.95121951 12.0648464,5.31707317 L12.0887372,5.31707317 C12.1604096,4.92682927 12.2320819,4.58536585 12.3276451,4.19512195 L12.9010239,2.04878049 L14.3822526,2.04878049 L12.6860068,6.65853659 L11.2764505,6.65853659 L9.62798635,2.04878049 L11.1808874,2.04878049 Z"></path>
                                <path d="M15.9829352,4.82926829 C16.0307167,5.41463415 16.6040956,5.70731707 17.2491468,5.70731707 C17.7269625,5.70731707 18.109215,5.63414634 18.4914676,5.51219512 L18.6825939,6.48780488 C18.2286689,6.68292683 17.6552901,6.7804878 17.0341297,6.7804878 C15.5051195,6.7804878 14.6211604,5.85365854 14.6211604,4.41463415 C14.6211604,3.24390244 15.337884,1.95121951 16.9146758,1.95121951 C18.3720137,1.95121951 18.9215017,3.12195122 18.9215017,4.26829268 C18.9215017,4.51219512 18.8976109,4.73170732 18.8737201,4.82926829 L15.9829352,4.82926829 Z M17.6313993,3.82926829 C17.6313993,3.48780488 17.4880546,2.90243902 16.8430034,2.90243902 C16.2457338,2.90243902 16.0068259,3.43902439 15.9829352,3.82926829 L17.6313993,3.82926829 Z"></path>
                                <path d="M21.668942,3.53658537 C21.668942,2.95121951 21.6450512,2.46341463 21.6211604,2.07317073 L22.8156997,2.07317073 L22.887372,2.70731707 L22.9112628,2.70731707 C23.1023891,2.41463415 23.5085324,1.97560976 24.2730375,1.97560976 C24.8464164,1.97560976 25.3242321,2.26829268 25.5153584,2.75609756 L25.5392491,2.75609756 C25.7064846,2.51219512 25.8976109,2.34146341 26.112628,2.19512195 C26.3515358,2.04878049 26.6382253,1.97560976 26.9726962,1.97560976 C27.8327645,1.97560976 28.5017065,2.6097561 28.5017065,3.97560976 L28.5017065,6.70731707 L27.1399317,6.70731707 L27.1399317,4.19512195 C27.1399317,3.51219512 26.9249147,3.14634146 26.4709898,3.14634146 C26.1365188,3.14634146 25.9215017,3.36585366 25.8259386,3.65853659 C25.778157,3.75609756 25.778157,3.90243902 25.778157,4.02439024 L25.778157,6.73170732 L24.4163823,6.73170732 L24.4163823,4.14634146 C24.4163823,3.56097561 24.2013652,3.17073171 23.7713311,3.17073171 C23.4129693,3.17073171 23.1979522,3.46341463 23.1023891,3.68292683 C23.0546075,3.80487805 23.0546075,3.92682927 23.0546075,4.04878049 L23.0546075,6.73170732 L21.6928328,6.73170732 L21.6928328,3.53658537 L21.668942,3.53658537 Z"></path>
                                <path d="M34.0921502,4.31707317 C34.0921502,6 32.9215017,6.7804878 31.7030717,6.7804878 C30.3890785,6.7804878 29.3617747,5.90243902 29.3617747,4.3902439 C29.3617747,2.90243902 30.3174061,1.95121951 31.774744,1.95121951 C33.1604096,1.95121951 34.0921502,2.92682927 34.0921502,4.31707317 Z M30.8191126,4.36585366 C30.8191126,5.17073171 31.1535836,5.75609756 31.7508532,5.75609756 C32.3003413,5.75609756 32.6587031,5.19512195 32.6587031,4.36585366 C32.6587031,3.68292683 32.3959044,2.97560976 31.7508532,2.97560976 C31.0580205,2.97560976 30.8191126,3.68292683 30.8191126,4.36585366 Z"></path>
                                <path d="M34.9522184,3.53658537 C34.9522184,2.95121951 34.9283276,2.46341463 34.9044369,2.07317073 L36.1228669,2.07317073 L36.1945392,2.70731707 L36.21843,2.70731707 C36.4095563,2.41463415 36.8634812,1.97560976 37.6279863,1.97560976 C38.559727,1.97560976 39.2525597,2.6097561 39.2525597,3.95121951 L39.2525597,6.68292683 L37.8430034,6.68292683 L37.8430034,4.12195122 C37.8430034,3.53658537 37.6279863,3.12195122 37.1262799,3.12195122 C36.7440273,3.12195122 36.5051195,3.3902439 36.4095563,3.65853659 C36.3617747,3.75609756 36.3617747,3.87804878 36.3617747,4.02439024 L36.3617747,6.68292683 L34.9522184,6.68292683 L34.9522184,3.53658537 Z"></path>
                                <path d="M41.4744027,4.82926829 C41.5221843,5.41463415 42.0955631,5.70731707 42.7406143,5.70731707 C43.21843,5.70731707 43.6006826,5.63414634 43.9829352,5.51219512 L44.1740614,6.48780488 C43.7201365,6.68292683 43.1467577,6.7804878 42.5255973,6.7804878 C40.996587,6.7804878 40.112628,5.85365854 40.112628,4.41463415 C40.112628,3.24390244 40.8293515,1.95121951 42.4061433,1.95121951 C43.8634812,1.95121951 44.4129693,3.12195122 44.4129693,4.26829268 C44.4129693,4.51219512 44.3890785,4.73170732 44.3651877,4.82926829 L41.4744027,4.82926829 Z M43.1228669,3.82926829 C43.1228669,3.48780488 42.9795222,2.90243902 42.334471,2.90243902 C41.7372014,2.90243902 41.4982935,3.43902439 41.4744027,3.82926829 L43.1228669,3.82926829 Z"></path>
                                <path d="M46.2764505,2.04878049 L46.9453925,4.31707317 C47.0170648,4.58536585 47.112628,4.92682927 47.1604096,5.17073171 L47.1843003,5.17073171 C47.2559727,4.92682927 47.3276451,4.58536585 47.3993174,4.31707317 L47.9488055,2.04878049 L49.4539249,2.04878049 L48.4027304,5.09756098 C47.7576792,6.92682927 47.3276451,7.65853659 46.8020478,8.12195122 C46.3003413,8.56097561 45.7986348,8.70731707 45.440273,8.75609756 L45.1535836,7.53658537 C45.3208191,7.51219512 45.559727,7.41463415 45.774744,7.29268293 C45.9897611,7.17073171 46.2286689,6.95121951 46.3481229,6.70731707 C46.3959044,6.63414634 46.4197952,6.56097561 46.4197952,6.51219512 C46.4197952,6.46341463 46.4197952,6.3902439 46.3481229,6.26829268 L44.6996587,2.04878049 L46.2764505,2.04878049 Z"></path>
                                <path d="M50.7679181,6.7804878 C50.2901024,6.7804878 49.9556314,6.41463415 49.9556314,5.90243902 C49.9556314,5.3902439 50.2901024,5.02439024 50.7918089,5.02439024 C51.2935154,5.02439024 51.6040956,5.3902439 51.6040956,5.90243902 C51.6040956,6.41463415 51.2696246,6.7804878 50.7679181,6.7804878 Z"></path>
                            </g>
                            <g transform="translate(54.709898, 0.000000)">
                                <polygon points="0.04778157 0.536585366 1.45733788 0.536585366 1.45733788 5.70731707 3.94197952 5.70731707 3.94197952 6.92682927 0.04778157 6.92682927"></polygon>
                                <path d="M6.35494881,1 C6.35494881,1.3902439 6.06825939,1.70731707 5.59044369,1.70731707 C5.13651877,1.70731707 4.84982935,1.3902439 4.84982935,1 C4.84982935,0.585365854 5.13651877,0.268292683 5.59044369,0.268292683 C6.06825939,0.292682927 6.35494881,0.585365854 6.35494881,1 Z M4.89761092,6.92682927 L4.89761092,2.31707317 L6.30716724,2.31707317 L6.30716724,5.80487805 L6.30716724,6.92682927 L4.89761092,6.92682927 Z"></path>
                                <path d="M8.67235495,2.29268293 L9.29351536,4.43902439 C9.41296928,4.82926829 9.48464164,5.19512195 9.55631399,5.56097561 L9.58020478,5.56097561 C9.65187713,5.17073171 9.72354949,4.82926829 9.84300341,4.43902439 L10.4163823,2.29268293 L11.8976109,2.29268293 L10.2013652,6.90243902 L8.79180887,6.90243902 L7.14334471,2.29268293 L8.67235495,2.29268293 Z"></path>
                                <path d="M13.4744027,5.07317073 C13.5221843,5.65853659 14.0955631,5.95121951 14.7406143,5.95121951 C15.21843,5.95121951 15.6006826,5.87804878 15.9829352,5.75609756 L16.1740614,6.73170732 C15.7201365,6.92682927 15.1467577,7.02439024 14.5255973,7.02439024 C12.996587,7.02439024 12.112628,6.09756098 12.112628,4.65853659 C12.112628,3.48780488 12.8293515,2.19512195 14.4061433,2.19512195 C15.8634812,2.19512195 16.4129693,3.36585366 16.4129693,4.51219512 C16.4129693,4.75609756 16.3890785,4.97560976 16.3651877,5.07317073 L13.4744027,5.07317073 Z M15.1228669,4.07317073 C15.1228669,3.73170732 14.9795222,3.14634146 14.334471,3.14634146 C13.7372014,3.14634146 13.4982935,3.68292683 13.4744027,4.07317073 L15.1228669,4.07317073 Z"></path>
                                <path d="M19.1604096,0.219512195 L20.5699659,0.219512195 L20.5699659,2.85365854 L20.5938567,2.85365854 C20.8566553,2.46341463 21.334471,2.19512195 21.9556314,2.19512195 C23.0307167,2.19512195 23.8430034,3.12195122 23.8191126,4.53658537 C23.8191126,6.19512195 22.7918089,7.02439024 21.7406143,7.02439024 C21.2150171,7.02439024 20.7133106,6.82926829 20.3788396,6.26829268 L20.3549488,6.26829268 L20.3071672,6.90243902 L19.112628,6.90243902 C19.1365188,6.6097561 19.1604096,6.04878049 19.1604096,5.51219512 L19.1604096,0.219512195 Z M20.5460751,4.95121951 C20.5460751,5.04878049 20.5460751,5.12195122 20.5699659,5.2195122 C20.665529,5.6097561 20.9761092,5.90243902 21.4061433,5.90243902 C22.003413,5.90243902 22.3856655,5.43902439 22.3856655,4.6097561 C22.3856655,3.90243902 22.0750853,3.31707317 21.4061433,3.31707317 C21.0238908,3.31707317 20.665529,3.6097561 20.5699659,4.02439024 C20.5460751,4.09756098 20.5460751,4.19512195 20.5460751,4.29268293 L20.5460751,4.95121951 Z"></path>
                                <path d="M25.8020478,5.07317073 C25.8498294,5.65853659 26.4232082,5.95121951 27.0682594,5.95121951 C27.5460751,5.95121951 27.9283276,5.87804878 28.3105802,5.75609756 L28.5017065,6.73170732 C28.0477816,6.92682927 27.4744027,7.02439024 26.8532423,7.02439024 C25.3242321,7.02439024 24.440273,6.09756098 24.440273,4.65853659 C24.440273,3.48780488 25.1569966,2.19512195 26.7337884,2.19512195 C28.1911263,2.19512195 28.7406143,3.36585366 28.7406143,4.51219512 C28.7406143,4.75609756 28.7167235,4.97560976 28.6928328,5.07317073 L25.8020478,5.07317073 Z M27.4505119,4.07317073 C27.4505119,3.73170732 27.3071672,3.14634146 26.662116,3.14634146 C26.0648464,3.14634146 25.8259386,3.68292683 25.8020478,4.07317073 L27.4505119,4.07317073 Z"></path>
                                <path d="M31.3686007,1.04878049 L31.3686007,2.31707317 L32.3720137,2.31707317 L32.3720137,3.36585366 L31.3686007,3.36585366 L31.3686007,5.04878049 C31.3686007,5.6097561 31.4880546,5.85365854 31.9180887,5.85365854 C32.109215,5.85365854 32.2047782,5.85365854 32.3242321,5.80487805 L32.3242321,6.90243902 C32.1331058,6.97560976 31.7986348,7.02439024 31.4163823,7.02439024 C30.9624573,7.02439024 30.5802048,6.85365854 30.3651877,6.6097561 C30.1023891,6.34146341 29.9829352,5.90243902 29.9829352,5.24390244 L29.9829352,3.34146341 L29.3856655,3.34146341 L29.3856655,2.29268293 L29.9829352,2.29268293 L29.9829352,1.41463415 L31.3686007,1.04878049 Z"></path>
                                <path d="M34.9522184,1.04878049 L34.9522184,2.31707317 L35.9556314,2.31707317 L35.9556314,3.36585366 L34.9522184,3.36585366 L34.9522184,5.04878049 C34.9522184,5.6097561 35.0716724,5.85365854 35.5017065,5.85365854 C35.6928328,5.85365854 35.7883959,5.85365854 35.9078498,5.80487805 L35.9078498,6.90243902 C35.7167235,6.97560976 35.3822526,7.02439024 35,7.02439024 C34.5460751,7.02439024 34.1638225,6.85365854 33.9488055,6.6097561 C33.6860068,6.34146341 33.5665529,5.90243902 33.5665529,5.24390244 L33.5665529,3.34146341 L32.9692833,3.34146341 L32.9692833,2.29268293 L33.5665529,2.29268293 L33.5665529,1.41463415 L34.9522184,1.04878049 Z"></path>
                                <path d="M38.0341297,5.07317073 C38.0819113,5.65853659 38.6552901,5.95121951 39.3242321,5.95121951 C39.8020478,5.95121951 40.1843003,5.87804878 40.5665529,5.75609756 L40.7576792,6.73170732 C40.3037543,6.92682927 39.7303754,7.02439024 39.109215,7.02439024 C37.5802048,7.02439024 36.6962457,6.09756098 36.6962457,4.65853659 C36.6962457,3.48780488 37.4129693,2.19512195 38.9897611,2.19512195 C40.447099,2.19512195 40.996587,3.36585366 40.996587,4.51219512 C40.996587,4.75609756 40.9726962,4.97560976 40.9488055,5.07317073 L38.0341297,5.07317073 Z M39.6825939,4.07317073 C39.6825939,3.73170732 39.5392491,3.14634146 38.894198,3.14634146 C38.2969283,3.14634146 38.0580205,3.68292683 38.0341297,4.07317073 L39.6825939,4.07317073 Z"></path>
                                <path d="M42.0238908,3.80487805 C42.0238908,3.12195122 42,2.68292683 42,2.29268293 L43.21843,2.29268293 L43.2662116,3.14634146 L43.3139932,3.14634146 C43.552901,2.46341463 44.1023891,2.19512195 44.5324232,2.19512195 C44.6518771,2.19512195 44.7235495,2.19512195 44.8191126,2.2195122 L44.8191126,3.58536585 C44.7235495,3.56097561 44.6040956,3.53658537 44.4368601,3.53658537 C43.9112628,3.53658537 43.5767918,3.82926829 43.4812287,4.26829268 C43.4573379,4.36585366 43.4573379,4.48780488 43.4573379,4.58536585 L43.4573379,6.92682927 L42.0477816,6.92682927 L42.0477816,3.80487805 L42.0238908,3.80487805 Z"></path>
                                <path d="M46.2525597,7.02439024 C45.774744,7.02439024 45.440273,6.65853659 45.440273,6.14634146 C45.440273,5.63414634 45.774744,5.26829268 46.2764505,5.26829268 C46.778157,5.26829268 47.0887372,5.63414634 47.0887372,6.14634146 C47.0887372,6.65853659 46.7542662,7.02439024 46.2525597,7.02439024 Z"></path>
                            </g>
                        </g>
                        <g id="Shape">
                            <g transform="translate(108.225256, 0.000000)" fill="#FDBB30">
                                <g>
                                    <path d="M15.003413,11.4634146 C15.7918089,11.4634146 16.4368601,11.0487805 16.5085324,10.5121951 L17.2730375,1.6097561 C17.2730375,0.731707317 16.2696246,1.77635684e-15 15.003413,1.77635684e-15 C13.7372014,1.77635684e-15 12.7337884,0.731707317 12.7337884,1.6097561 L13.4982935,10.5121951 C13.5938567,11.0487805 14.2389078,11.4634146 15.003413,11.4634146 Z"></path>
                                    <path d="M10.2969283,14.2439024 C10.6791809,13.5609756 10.6552901,12.7804878 10.2491468,12.4390244 L3.08191126,7.29268293 C2.34129693,6.85365854 1.21843003,7.3902439 0.57337884,8.51219512 C-0.0716723549,9.63414634 0.04778157,10.8780488 0.788395904,11.3170732 L8.72013652,15.097561 C9.221843,15.2926829 9.91467577,14.9268293 10.2969283,14.2439024 Z"></path>
                                    <path d="M19.7337884,14.2439024 C20.116041,14.9268293 20.8088737,15.2926829 21.2866894,15.097561 L29.21843,11.3170732 C29.9590444,10.8780488 30.0784983,9.63414634 29.4334471,8.51219512 C28.7883959,7.3902439 27.665529,6.85365854 26.9249147,7.29268293 L19.7576792,12.4390244 C19.3754266,12.7804878 19.3276451,13.5609756 19.7337884,14.2439024 Z"></path>
                                </g>
                                <g transform="translate(0.000000, 18.780488)">
                                    <path d="M15.003413,3.80487805 C15.7918089,3.80487805 16.4368601,4.2195122 16.5085324,4.75609756 L17.2730375,13.6585366 C17.2730375,14.5365854 16.2696246,15.2682927 15.003413,15.2682927 C13.7372014,15.2682927 12.7337884,14.5365854 12.7337884,13.6585366 L13.4982935,4.75609756 C13.5938567,4.2195122 14.2389078,3.80487805 15.003413,3.80487805 Z"></path>
                                    <path d="M19.7337884,1.02439024 C20.116041,0.341463415 20.8088737,-0.0243902439 21.2866894,0.170731707 L29.21843,3.95121951 C29.9590444,4.3902439 30.0784983,5.65853659 29.4334471,6.7804878 C28.7883959,7.90243902 27.665529,8.43902439 26.9249147,8 L19.7576792,2.87804878 C19.3754266,2.48780488 19.3276451,1.70731707 19.7337884,1.02439024 Z"></path>
                                    <path d="M10.2969283,1.02439024 C10.6791809,1.70731707 10.6552901,2.48780488 10.2491468,2.82926829 L3.08191126,7.95121951 C2.34129693,8.3902439 1.21843003,7.85365854 0.57337884,6.73170732 C-0.0716723549,5.6097561 0.04778157,4.36585366 0.788395904,3.90243902 L8.72013652,0.12195122 C9.221843,-0.0243902439 9.91467577,0.341463415 10.2969283,1.02439024 Z"></path>
                                </g>
                            </g>
                            <g transform="translate(0.000000, 7.073171)" fill="#007DC3">
                                <path d="M81.9215017,10.9756098 C81.9215017,7.6097561 80.5119454,4.65853659 75.7576792,4.65853659 C73.3208191,4.65853659 71.3856655,5.36585366 70.3105802,5.97560976 L71.0750853,8.68292683 C72.0307167,8.04878049 73.5836177,7.53658537 75.0409556,7.53658537 C77.4539249,7.53658537 77.8600683,8.92682927 77.8600683,9.82926829 L77.8600683,10.0487805 C72.6040956,10.0487805 69.2832765,11.902439 69.2832765,15.6829268 C69.2832765,18 70.9795222,20.1707317 73.9180887,20.1707317 C75.7337884,20.1707317 77.2389078,19.4390244 78.1467577,18.2439024 L78.2423208,18.2439024 C78.2423208,18.2439024 78.8395904,20.804878 82.1604096,19.8292683 C81.9931741,18.7560976 81.9215017,17.6341463 81.9215017,16.2439024 L81.9215017,10.9756098 Z M78.003413,14.5365854 C78.003413,14.804878 77.9795222,15.097561 77.9078498,15.3414634 C77.5972696,16.3658537 76.5699659,17.2439024 75.2559727,17.2439024 C74.1569966,17.2439024 73.2969283,16.6097561 73.2969283,15.2926829 C73.2969283,13.2439024 75.4948805,12.6829268 78.003413,12.7073171 L78.003413,14.5365854 Z"></path>
                                <path d="M0,0.0731707317 C0,0.0731707317 3.44027304,14.4390244 3.98976109,16.7804878 C4.63481229,19.5121951 5.78156997,20.5121951 9.10238908,19.8292683 L11.2525597,10.9268293 C11.8020478,8.70731707 12.1604096,7.14634146 12.5187713,4.87804878 L12.5904437,4.87804878 C12.8293515,7.14634146 13.1877133,8.70731707 13.6416382,10.9268293 C13.6416382,10.9268293 14.5255973,14.9756098 14.9556314,17.097561 C15.4095563,19.2195122 16.6518771,20.5609756 19.9010239,19.8292683 L25.0136519,0.0731707317 L20.8805461,0.0731707317 L19.1365188,8.6097561 C18.6587031,11.097561 18.2525597,13.0487805 17.9180887,15.3170732 L17.8703072,15.3170732 C17.5836177,13.0731707 17.2013652,11.195122 16.7235495,8.7804878 L14.9078498,0.0731707317 L10.6075085,0.0731707317 L8.67235495,8.56097561 C8.12286689,11.1463415 7.59726962,13.2195122 7.28668942,15.4146341 L7.16723549,15.4146341 C6.83276451,13.3414634 6.37883959,10.7317073 5.90102389,8.24390244 C5.90102389,8.24390244 4.75426621,2.17073171 4.34812287,0.0731707317 L0,0.0731707317 Z"></path>
                                <path d="M36.7201365,10.9756098 C36.7201365,7.6097561 35.3105802,4.65853659 30.556314,4.65853659 C28.1194539,4.65853659 26.1843003,5.36585366 25.109215,5.97560976 L25.8737201,8.68292683 C26.8293515,8.04878049 28.3822526,7.53658537 29.8395904,7.53658537 C32.2525597,7.53658537 32.6587031,8.92682927 32.6587031,9.82926829 L32.6587031,10.0487805 C27.4027304,10.0487805 24.0819113,11.902439 24.0819113,15.6829268 C24.0819113,18 25.778157,20.1707317 28.7167235,20.1707317 C30.5324232,20.1707317 32.0375427,19.4390244 32.9453925,18.2439024 L33.0409556,18.2439024 C33.0409556,18.2439024 33.6382253,20.804878 36.9590444,19.8292683 C36.7918089,18.7560976 36.7201365,17.6341463 36.7201365,16.2439024 L36.7201365,10.9756098 Z M32.8020478,14.5365854 C32.8020478,14.804878 32.778157,15.097561 32.7064846,15.3414634 C32.3959044,16.3658537 31.3686007,17.2439024 30.0546075,17.2439024 C28.9556314,17.2439024 28.0955631,16.6097561 28.0955631,15.2926829 C28.0955631,13.2439024 30.2935154,12.6829268 32.8020478,12.7073171 L32.8020478,14.5365854 Z"></path>
                                <polygon points="43.2662116 15.6341463 43.2662116 0.0731707317 39.3481229 0.0731707317 39.3481229 19.8292683 43.2662116 19.8292683"></polygon>
                                <path d="M94.6791809,0.0731707317 C94.6791809,1.97560976 94.6791809,14.6585366 94.6791809,14.6585366 C94.6791809,16.6585366 95.0614334,18.0731707 95.8498294,18.9268293 C96.5426621,19.6829268 97.6894198,20.1707317 99.0511945,20.1707317 C100.221843,20.1707317 101.34471,19.9512195 101.894198,19.7317073 L101.846416,16.5853659 C101.440273,16.6829268 100.986348,16.7560976 100.365188,16.7560976 C99.0273038,16.7560976 98.5733788,15.8780488 98.5733788,14.0731707 L98.5733788,8.51219512 L101.989761,8.51219512 L101.989761,4.73170732 L98.5733788,4.73170732 L98.5733788,0.0731707317 L94.6791809,0.0731707317 Z"></path>
                                <path d="M84.5494881,4.97560976 L84.5494881,19.8292683 L88.6109215,19.8292683 L88.6109215,12.2195122 C88.6109215,11.804878 88.6348123,11.4634146 88.7064846,11.1219512 C89.0170648,9.53658537 90.1877133,8.51219512 91.9078498,8.51219512 C92.3856655,8.51219512 92.7201365,8.56097561 93.0784983,8.6097561 L93.0784983,4.73170732 C92.7679181,4.65853659 92.552901,4.63414634 92.1945392,4.63414634 C90.6894198,4.63414634 88.9692833,5.63414634 88.2286689,7.7804878 L88.109215,7.7804878 L88.109215,4.97560976 L84.5494881,4.97560976 Z"></path>
                                <path d="M46.0375427,4.97560976 L46.0375427,19.8292683 L49.9795222,19.8292683 L49.9795222,11.1219512 C49.9795222,10.7073171 50.0273038,10.2926829 50.1706485,9.90243902 C50.5051195,9.02439024 51.2935154,8 52.559727,8 C54.1604096,8 54.9010239,9.36585366 54.9010239,11.3658537 L54.9010239,19.8292683 L58.8430034,19.8292683 L58.8430034,11.0243902 C58.8430034,10.6341463 58.890785,10.1707317 59.0102389,9.82926829 C59.3447099,8.82926829 60.2047782,8.02439024 61.3754266,8.02439024 C63,8.02439024 63.7645051,9.36585366 63.7645051,11.7073171 C63.7645051,11.7073171 63.7645051,17.9756098 63.7645051,19.8292683 L67.7064846,19.8292683 L67.7064846,11.097561 C67.7064846,6.48780488 65.4129693,4.65853659 62.8327645,4.65853659 C61.6860068,4.65853659 60.778157,4.95121951 59.9658703,5.46341463 C59.2730375,5.90243902 58.6518771,6.51219512 58.1262799,7.31707317 L58.0784983,7.31707317 C57.4573379,5.70731707 55.9761092,4.65853659 54.0648464,4.65853659 C51.6040956,4.65853659 50.5051195,5.92682927 49.8361775,7 L49.7883959,7 L49.7883959,4.97560976 L46.0375427,4.97560976 Z"></path>
                            </g>
                        </g>
                    </g>
                    <path d="M139.139932,26 C139.522184,26 139.832765,26.3170732 139.832765,26.6829268 C139.832765,27.0731707 139.522184,27.3658537 139.139932,27.3658537 C138.757679,27.3658537 138.447099,27.0731707 138.447099,26.6829268 C138.423208,26.3170732 138.733788,26 139.139932,26 Z M139.116041,26.1463415 C138.829352,26.1463415 138.590444,26.3902439 138.590444,26.7073171 C138.590444,27.0243902 138.805461,27.2682927 139.116041,27.2682927 C139.40273,27.2682927 139.641638,27.0243902 139.641638,26.7073171 C139.641638,26.3902439 139.426621,26.1463415 139.116041,26.1463415 Z M139.020478,27.0487805 L138.853242,27.0487805 L138.853242,26.3658537 C138.924915,26.3414634 138.996587,26.3414634 139.116041,26.3414634 C139.235495,26.3414634 139.307167,26.3658537 139.354949,26.3902439 C139.40273,26.4146341 139.426621,26.4634146 139.426621,26.5365854 C139.426621,26.6097561 139.37884,26.6829268 139.283276,26.7073171 C139.354949,26.7317073 139.37884,26.7804878 139.40273,26.8780488 C139.426621,26.9756098 139.426621,27.0243902 139.450512,27.0487805 L139.283276,27.0487805 C139.259386,27.0243902 139.259386,26.9756098 139.235495,26.8780488 C139.211604,26.804878 139.187713,26.7804878 139.09215,26.7804878 L139.020478,26.7804878 L139.020478,27.0487805 Z M139.020478,26.6585366 L139.09215,26.6585366 C139.187713,26.6585366 139.259386,26.6341463 139.259386,26.5609756 C139.259386,26.4878049 139.211604,26.4634146 139.116041,26.4634146 C139.068259,26.4634146 139.044369,26.4634146 139.020478,26.4634146 L139.020478,26.6585366 Z" id="Shape" fill="#FDBB30"></path>
                </g>
            </g>
        </g>
    </g>
</svg>